font--1.ufo
<glyph name="quotedbl" format="2">
  <advance width="354"/>
  <unicode hex="0022"/>
  <note>
quotedbl
</note>
  <outline>
    <contour>
      <point x="40" y="642" type="line"/>
      <point x="40" y="556" type="line"/>
      <point x="58" y="408" type="line"/>
      <point x="139" y="408" type="line"/>
      <point x="157" y="556" type="line"/>
      <point x="157" y="642" type="line"/>
    </contour>
    <contour>
      <point x="197" y="642" type="line"/>
      <point x="197" y="556" type="line"/>
      <point x="215" y="408" type="line"/>
      <point x="296" y="408" type="line"/>
      <point x="314" y="556" type="line"/>
      <point x="314" y="642" type="line"/>
    </contour>
  </outline>
</glyph>
<glyph name="ampersand" format="2">
  <advance width="642"/>
  <unicode hex="0026"/>
  <note>
ampersand
</note>
  <outline>
    <contour>
      <point x="446" y="261" type="line"/>
      <point x="444" y="261" type="line"/>
      <point x="297" y="391" type="line" smooth="yes"/>
      <point x="257" y="426"/>
      <point x="247" y="444"/>
      <point x="247" y="473" type="curve" smooth="yes"/>
      <point x="247" y="511"/>
      <point x="260" y="526"/>
      <point x="313" y="526" type="curve" smooth="yes"/>
      <point x="374" y="526"/>
      <point x="387" y="511"/>
      <point x="385" y="447" type="curve"/>
      <point x="531" y="447" type="line"/>
      <point x="531" y="479" type="line" smooth="yes"/>
      <point x="531" y="610"/>
      <point x="490" y="652"/>
      <point x="311" y="652" type="curve" smooth="yes"/>
      <point x="154" y="652"/>
      <point x="102" y="601"/>
      <point x="102" y="490" type="curve" smooth="yes"/>
      <point x="102" y="435"/>
      <point x="112" y="402"/>
      <point x="145" y="369" type="curve"/>
      <point x="143" y="365" type="line"/>
      <point x="88" y="361"/>
      <point x="40" y="315"/>
      <point x="40" y="201" type="curve" smooth="yes"/>
      <point x="40" y="51"/>
      <point x="112" y="0"/>
      <point x="311" y="0" type="curve" smooth="yes"/>
      <point x="398" y="0"/>
      <point x="463" y="17"/>
      <point x="507" y="49" type="curve"/>
      <point x="557" y="5" type="line"/>
      <point x="632" y="95" type="line"/>
      <point x="571" y="148" type="line"/>
      <point x="577" y="169"/>
      <point x="580" y="194"/>
      <point x="580" y="220" type="curve" smooth="yes"/>
      <point x="580" y="344" type="line"/>
      <point x="446" y="344" type="line"/>
    </contour>
    <contour>
      <point x="230" y="292" type="curve"/>
      <point x="395" y="147" type="line"/>
      <point x="395" y="145" type="line"/>
      <point x="374" y="138"/>
      <point x="343" y="134"/>
      <point x="311" y="134" type="curve" smooth="yes"/>
      <point x="214" y="134"/>
      <point x="191" y="149"/>
      <point x="191" y="217" type="curve" smooth="yes"/>
      <point x="191" y="264"/>
      <point x="209" y="289"/>
    </contour>
  </outline>
</glyph>
<glyph name="asterisk" format="2">
  <advance width="504"/>
  <unicode hex="002A"/>
  <note>
asterisk
</note>
  <outline>
    <contour>
      <point x="143" y="512" type="curve" smooth="yes"/>
      <point x="55" y="540" type="line"/>
      <point x="18" y="429" type="line"/>
      <point x="107" y="401" type="line" smooth="yes"/>
      <point x="143" y="390"/>
      <point x="163" y="390"/>
      <point x="191" y="394" type="curve"/>
      <point x="192" y="391" type="line"/>
      <point x="165" y="381"/>
      <point x="148" y="374"/>
      <point x="125" y="342" type="curve" smooth="yes"/>
      <point x="71" y="267" type="line"/>
      <point x="167" y="197" type="line"/>
      <point x="221" y="271" type="line" smooth="yes"/>
      <point x="244" y="303"/>
      <point x="249" y="319"/>
      <point x="249" y="346" type="curve"/>
      <point x="251" y="346" type="line"/>
      <point x="253" y="319"/>
      <point x="260" y="301"/>
      <point x="282" y="271" type="curve" smooth="yes"/>
      <point x="337" y="197" type="line"/>
      <point x="433" y="267" type="line"/>
      <point x="378" y="341" type="line" smooth="yes"/>
      <point x="357" y="369"/>
      <point x="341" y="381"/>
      <point x="312" y="390" type="curve"/>
      <point x="313" y="393" type="line"/>
      <point x="342" y="387"/>
      <point x="359" y="388"/>
      <point x="397" y="400" type="curve" smooth="yes"/>
      <point x="486" y="429" type="line"/>
      <point x="449" y="541" type="line"/>
      <point x="361" y="512" type="line" smooth="yes"/>
      <point x="323" y="499"/>
      <point x="305" y="482"/>
      <point x="291" y="461" type="curve"/>
      <point x="289" y="462" type="line"/>
      <point x="300" y="486"/>
      <point x="310" y="509"/>
      <point x="310" y="548" type="curve" smooth="yes"/>
      <point x="310" y="642" type="line"/>
      <point x="192" y="642" type="line"/>
      <point x="192" y="548" type="line" smooth="yes"/>
      <point x="192" y="509"/>
      <point x="198" y="483"/>
      <point x="212" y="462" type="curve"/>
      <point x="211" y="461" type="line"/>
      <point x="197" y="482"/>
      <point x="172" y="503"/>
    </contour>
  </outline>
</glyph>
<glyph name="comma" format="2">
  <advance width="201"/>
  <unicode hex="002C"/>
  <note>
comma
</note>
  <outline>
    <contour>
      <point x="59" y="-93" type="curve"/>
      <point x="58" y="-94" type="line"/>
      <point x="58" y="-148" type="line"/>
      <point x="66" y="-149"/>
      <point x="72" y="-150"/>
      <point x="79" y="-150" type="curve" smooth="yes"/>
      <point x="152" y="-150"/>
      <point x="194" y="-119"/>
      <point x="194" y="-21" type="curve" smooth="yes"/>
      <point x="194" y="54"/>
      <point x="166" y="95"/>
      <point x="96" y="95" type="curve" smooth="yes"/>
      <point x="27" y="95"/>
      <point x="5" y="68"/>
      <point x="5" y="18" type="curve" smooth="yes"/>
      <point x="5" y="-30"/>
      <point x="32" y="-56"/>
      <point x="83" y="-56" type="curve" smooth="yes"/>
      <point x="105" y="-56"/>
      <point x="122" y="-52"/>
      <point x="132" y="-46" type="curve"/>
      <point x="133" y="-47" type="line"/>
      <point x="133" y="-82"/>
      <point x="113" y="-94"/>
      <point x="73" y="-94" type="curve" smooth="yes"/>
      <point x="68" y="-94"/>
      <point x="65" y="-94"/>
    </contour>
  </outline>
</glyph>
<glyph name="hyphen" format="2">
  <advance width="468"/>
  <unicode hex="002D"/>
  <note>
hyphen
</note>
  <outline>
    <contour>
      <point x="30" y="197" type="line"/>
      <point x="438" y="197" type="line"/>
      <point x="438" y="322" type="line"/>
      <point x="30" y="322" type="line"/>
    </contour>
  </outline>
</glyph>
<glyph name="zero" format="2">
  <advance width="599"/>
  <unicode hex="0030"/>
  <note>
zero
</note>
  <outline>
    <contour>
      <point x="564" y="314" type="curve" smooth="yes"/>
      <point x="564" y="543"/>
      <point x="493" y="629"/>
      <point x="299" y="629" type="curve" smooth="yes"/>
      <point x="106" y="629"/>
      <point x="35" y="543"/>
      <point x="35" y="314" type="curve" smooth="yes"/>
      <point x="35" y="86"/>
      <point x="106" y="0"/>
      <point x="299" y="0" type="curve" smooth="yes"/>
      <point x="493" y="0"/>
      <point x="564" y="86"/>
    </contour>
    <contour>
      <point x="299" y="133" type="curve" smooth="yes"/>
      <point x="209" y="133"/>
      <point x="189" y="191"/>
      <point x="189" y="314" type="curve" smooth="yes"/>
      <point x="189" y="438"/>
      <point x="209" y="495"/>
      <point x="299" y="495" type="curve" smooth="yes"/>
      <point x="390" y="495"/>
      <point x="410" y="438"/>
      <point x="410" y="314" type="curve" smooth="yes"/>
      <point x="410" y="191"/>
      <point x="390" y="133"/>
    </contour>
  </outline>
</glyph>
<glyph name="one" format="2">
  <advance width="379"/>
  <unicode hex="0031"/>
  <note>
one
</note>
  <guideline x="-210" y="623" angle="0"/>
  <outline>
    <contour>
      <point x="40" y="379" type="line"/>
      <point x="45" y="379" type="line"/>
      <point x="152" y="450" type="line"/>
      <point x="157" y="450" type="line"/>
      <point x="157" y="9" type="line"/>
      <point x="309" y="9" type="line"/>
      <point x="307" y="623" type="line"/>
      <point x="157" y="623" type="line"/>
      <point x="40" y="549" type="line"/>
    </contour>
  </outline>
</glyph>
<glyph name="three" format="2">
  <advance width="531"/>
  <unicode hex="0033"/>
  <note>
three
</note>
  <outline>
    <contour>
      <point x="70" y="605" type="curve"/>
      <point x="70" y="480" type="line"/>
      <point x="74" y="479" type="line"/>
      <point x="117" y="492"/>
      <point x="172" y="501"/>
      <point x="224" y="501" type="curve" smooth="yes"/>
      <point x="319" y="501"/>
      <point x="352" y="490"/>
      <point x="352" y="445" type="curve" smooth="yes"/>
      <point x="352" y="401"/>
      <point x="325" y="387"/>
      <point x="229" y="387" type="curve" smooth="yes"/>
      <point x="162" y="387" type="line"/>
      <point x="162" y="258" type="line"/>
      <point x="242" y="258" type="line" smooth="yes"/>
      <point x="326" y="258"/>
      <point x="352" y="244"/>
      <point x="352" y="199" type="curve" smooth="yes"/>
      <point x="352" y="149"/>
      <point x="313" y="132"/>
      <point x="220" y="132" type="curve" smooth="yes"/>
      <point x="150" y="132"/>
      <point x="99" y="139"/>
      <point x="46" y="157" type="curve"/>
      <point x="40" y="157" type="line"/>
      <point x="40" y="32" type="line"/>
      <point x="96" y="13"/>
      <point x="162" y="1"/>
      <point x="251" y="3" type="curve" smooth="yes"/>
      <point x="425" y="7"/>
      <point x="501" y="67"/>
      <point x="501" y="187" type="curve" smooth="yes"/>
      <point x="501" y="259"/>
      <point x="463" y="314"/>
      <point x="364" y="319" type="curve"/>
      <point x="364" y="324" type="line"/>
      <point x="459" y="336"/>
      <point x="493" y="396"/>
      <point x="493" y="477" type="curve" smooth="yes"/>
      <point x="493" y="581"/>
      <point x="435" y="630"/>
      <point x="264" y="630" type="curve" smooth="yes"/>
      <point x="190" y="630"/>
      <point x="129" y="623"/>
    </contour>
  </outline>
</glyph>
<glyph name="five" format="2">
  <advance width="535"/>
  <unicode hex="0035"/>
  <note>
five
</note>
  <outline>
    <contour>
      <point x="53" y="265" type="line"/>
      <point x="276" y="265" type="line"/>
      <point x="341" y="265"/>
      <point x="358" y="245"/>
      <point x="358" y="199" type="curve" smooth="yes"/>
      <point x="358" y="143"/>
      <point x="328" y="128"/>
      <point x="205" y="128" type="curve" smooth="yes"/>
      <point x="152" y="128"/>
      <point x="76" y="135"/>
      <point x="32" y="147" type="curve"/>
      <point x="30" y="145" type="line"/>
      <point x="30" y="23" type="line"/>
      <point x="86" y="9"/>
      <point x="156" y="0"/>
      <point x="243" y="0" type="curve" smooth="yes"/>
      <point x="425" y="0"/>
      <point x="510" y="61"/>
      <point x="510" y="200" type="curve" smooth="yes"/>
      <point x="510" y="331"/>
      <point x="446" y="388"/>
      <point x="300" y="388" type="curve"/>
      <point x="193" y="388" type="line"/>
      <point x="191" y="391" type="line"/>
      <point x="191" y="489" type="line"/>
      <point x="487" y="489" type="line"/>
      <point x="487" y="618" type="line"/>
      <point x="53" y="618" type="line"/>
    </contour>
  </outline>
</glyph>
<glyph name="eight" format="2">
  <advance width="552"/>
  <unicode hex="0038"/>
  <note>
eight
</note>
  <outline>
    <contour>
      <point x="522" y="176" type="curve" smooth="yes"/>
      <point x="522" y="256"/>
      <point x="507" y="298"/>
      <point x="449" y="314" type="curve"/>
      <point x="449" y="316" type="line"/>
      <point x="497" y="332"/>
      <point x="512" y="373"/>
      <point x="512" y="449" type="curve" smooth="yes"/>
      <point x="512" y="583"/>
      <point x="448" y="629"/>
      <point x="276" y="629" type="curve" smooth="yes"/>
      <point x="101" y="629"/>
      <point x="40" y="582"/>
      <point x="40" y="449" type="curve" smooth="yes"/>
      <point x="40" y="373"/>
      <point x="55" y="332"/>
      <point x="103" y="316" type="curve"/>
      <point x="103" y="314" type="line"/>
      <point x="45" y="298"/>
      <point x="30" y="256"/>
      <point x="30" y="176" type="curve" smooth="yes"/>
      <point x="30" y="47"/>
      <point x="91" y="0"/>
      <point x="276" y="0" type="curve" smooth="yes"/>
      <point x="458" y="0"/>
      <point x="522" y="46"/>
    </contour>
    <contour>
      <point x="179" y="189" type="curve" smooth="yes"/>
      <point x="179" y="249"/>
      <point x="211" y="264"/>
      <point x="276" y="264" type="curve" smooth="yes"/>
      <point x="342" y="264"/>
      <point x="373" y="249"/>
      <point x="373" y="189" type="curve" smooth="yes"/>
      <point x="373" y="129"/>
      <point x="342" y="113"/>
      <point x="276" y="113" type="curve" smooth="yes"/>
      <point x="211" y="113"/>
      <point x="179" y="129"/>
    </contour>
    <contour>
      <point x="189" y="444" type="curve" smooth="yes"/>
      <point x="189" y="504"/>
      <point x="222" y="518"/>
      <point x="276" y="518" type="curve" smooth="yes"/>
      <point x="328" y="518"/>
      <point x="363" y="506"/>
      <point x="363" y="444" type="curve" smooth="yes"/>
      <point x="363" y="377"/>
      <point x="333" y="364"/>
      <point x="276" y="364" type="curve" smooth="yes"/>
      <point x="222" y="364"/>
      <point x="189" y="375"/>
    </contour>
  </outline>
</glyph>
<glyph name="greater" format="2">
  <advance width="482"/>
  <unicode hex="003E"/>
  <note>
greater
</note>
  <outline>
    <contour>
      <point x="448" y="437" type="line"/>
      <point x="66" y="575" type="line"/>
      <point x="66" y="430" type="line"/>
      <point x="314" y="337" type="line"/>
      <point x="314" y="335" type="line"/>
      <point x="66" y="241" type="line"/>
      <point x="66" y="97" type="line"/>
      <point x="448" y="235" type="line"/>
    </contour>
  </outline>
</glyph>
<glyph name="at" format="2">
  <advance width="1002"/>
  <unicode hex="0040"/>
  <outline>
    <contour>
      <point x="586" y="57" type="curve"/>
      <point x="597" y="57" type="line"/>
      <point x="588" y="177" type="line"/>
      <point x="587" y="136"/>
      <point x="551" y="118"/>
      <point x="477" y="118" type="curve" smooth="yes"/>
      <point x="439" y="118"/>
      <point x="418" y="127"/>
      <point x="418" y="158" type="curve" smooth="yes"/>
      <point x="418" y="183"/>
      <point x="435" y="198"/>
      <point x="487" y="198" type="curve" smooth="yes"/>
      <point x="600" y="198" type="line"/>
      <point x="600" y="293" type="line"/>
      <point x="455" y="293" type="line" smooth="yes"/>
      <point x="339" y="293"/>
      <point x="288" y="243"/>
      <point x="288" y="158" type="curve" smooth="yes"/>
      <point x="288" y="57"/>
      <point x="340" y="7"/>
      <point x="442" y="7" type="curve" smooth="yes"/>
      <point x="515" y="7"/>
      <point x="562" y="26"/>
    </contour>
    <contour>
      <point x="561" y="-163" type="curve"/>
      <point x="559" y="-35" type="line"/>
      <point x="558" y="-34" type="line"/>
      <point x="537" y="-39"/>
      <point x="510" y="-40"/>
      <point x="478" y="-40" type="curve" smooth="yes"/>
      <point x="225" y="-40"/>
      <point x="190" y="16"/>
      <point x="190" y="231" type="curve" smooth="yes"/>
      <point x="190" y="470"/>
      <point x="225" y="531"/>
      <point x="502" y="531" type="curve" smooth="yes"/>
      <point x="789" y="531"/>
      <point x="820" y="470"/>
      <point x="820" y="228" type="curve" smooth="yes"/>
      <point x="820" y="69"/>
      <point x="822" y="35"/>
      <point x="767" y="35" type="curve" smooth="yes"/>
      <point x="712" y="35"/>
      <point x="719" y="58"/>
      <point x="714" y="228" type="curve" smooth="yes"/>
      <point x="708" y="428"/>
      <point x="642" y="470"/>
      <point x="478" y="470" type="curve" smooth="yes"/>
      <point x="425" y="470"/>
      <point x="357" y="460"/>
      <point x="321" y="448" type="curve"/>
      <point x="321" y="335" type="line"/>
      <point x="324" y="333" type="line"/>
      <point x="364" y="343"/>
      <point x="413" y="351"/>
      <point x="466" y="351" type="curve" smooth="yes"/>
      <point x="567" y="351"/>
      <point x="588" y="333"/>
      <point x="588" y="253" type="curve" smooth="yes"/>
      <point x="588" y="57" type="line"/>
      <point x="592" y="35" type="line"/>
      <point x="607" y="-48"/>
      <point x="660" y="-77"/>
      <point x="771" y="-77" type="curve" smooth="yes"/>
      <point x="938" y="-77"/>
      <point x="960" y="-7"/>
      <point x="960" y="231" type="curve" smooth="yes"/>
      <point x="960" y="544"/>
      <point x="872" y="661"/>
      <point x="502" y="661" type="curve" smooth="yes"/>
      <point x="151" y="661"/>
      <point x="50" y="544"/>
      <point x="50" y="231" type="curve" smooth="yes"/>
      <point x="50" y="-60"/>
      <point x="149" y="-170"/>
      <point x="477" y="-170" type="curve" smooth="yes"/>
      <point x="511" y="-170"/>
      <point x="537" y="-167"/>
    </contour>
  </outline>
</glyph>
<glyph name="E" format="2">
  <advance width="550"/>
  <unicode hex="0045"/>
  <outline>
    <contour>
      <point x="220" y="9" type="line"/>
      <point x="220" y="642" type="line"/>
      <point x="60" y="642" type="line"/>
      <point x="60" y="9" type="line"/>
    </contour>
    <contour>
      <point x="160" y="262" type="line"/>
      <point x="489" y="262" type="line"/>
      <point x="489" y="392" type="line"/>
      <point x="160" y="392" type="line"/>
    </contour>
    <contour>
      <point x="160" y="512" type="line"/>
      <point x="530" y="512" type="line"/>
      <point x="530" y="642" type="line"/>
      <point x="160" y="642" type="line"/>
    </contour>
    <contour>
      <point x="160" y="9" type="line"/>
      <point x="530" y="9" type="line"/>
      <point x="530" y="139" type="line"/>
      <point x="160" y="139" type="line"/>
    </contour>
  </outline>
</glyph>
<glyph name="L" format="2">
  <advance width="530"/>
  <unicode hex="004C"/>
  <outline>
    <contour>
      <point x="220" y="9" type="line"/>
      <point x="220" y="642" type="line"/>
      <point x="60" y="642" type="line"/>
      <point x="60" y="9" type="line"/>
    </contour>
    <contour>
      <point x="109" y="9" type="line"/>
      <point x="520" y="9" type="line"/>
      <point x="520" y="145" type="line"/>
      <point x="109" y="145" type="line"/>
    </contour>
  </outline>
</glyph>
<glyph name="V" format="2">
  <advance width="669"/>
  <unicode hex="0056"/>
  <outline>
    <contour>
      <point x="637" y="641" type="line"/>
      <point x="458" y="641" type="line"/>
      <point x="415" y="506"/>
      <point x="356" y="278"/>
      <point x="337" y="177" type="curve"/>
      <point x="333" y="177" type="line"/>
      <point x="315" y="278"/>
      <point x="254" y="507"/>
      <point x="212" y="641" type="curve"/>
      <point x="33" y="641" type="line"/>
      <point x="220" y="9" type="line"/>
      <point x="440" y="9" type="line"/>
    </contour>
  </outline>
</glyph>
<glyph name="X" format="2">
  <advance width="672"/>
  <unicode hex="0058"/>
  <guideline x="395" y="338" angle="0"/>
  <outline>
    <contour>
      <point x="468" y="332" type="line"/>
      <point x="468" y="337" type="line"/>
      <point x="641" y="642" type="line"/>
      <point x="444" y="642" type="line"/>
      <point x="338" y="422" type="line"/>
      <point x="335" y="422" type="line"/>
      <point x="229" y="642" type="line"/>
      <point x="32" y="642" type="line"/>
      <point x="205" y="337" type="line"/>
      <point x="205" y="332" type="line"/>
      <point x="20" y="9" type="line"/>
      <point x="220" y="9" type="line"/>
      <point x="335" y="233" type="line"/>
      <point x="338" y="233" type="line"/>
      <point x="453" y="9" type="line"/>
      <point x="653" y="9" type="line"/>
    </contour>
  </outline>
</glyph>
<glyph name="Y" format="2">
  <advance width="570"/>
  <unicode hex="0059"/>
  <outline>
    <contour>
      <point x="570" y="639" type="line"/>
      <point x="570" y="642" type="line"/>
      <point x="395" y="642" type="line"/>
      <point x="312" y="426"/>
      <point x="305" y="406"/>
      <point x="287" y="356" type="curve"/>
      <point x="283" y="356" type="line"/>
      <point x="265" y="406"/>
      <point x="258" y="426"/>
      <point x="175" y="642" type="curve"/>
      <point x="0" y="642" type="line"/>
      <point x="0" y="639" type="line"/>
      <point x="205" y="205" type="line"/>
      <point x="365" y="205" type="line"/>
    </contour>
    <contour>
      <point x="205" y="9" type="line"/>
      <point x="365" y="9" type="line"/>
      <point x="365" y="248" type="line"/>
      <point x="205" y="248" type="line"/>
    </contour>
  </outline>
</glyph>
<glyph name="Z" format="2">
  <advance width="599"/>
  <unicode hex="005A"/>
  <outline>
    <contour>
      <point x="353" y="513" type="line"/>
      <point x="353" y="511" type="line"/>
      <point x="30" y="113" type="line"/>
      <point x="30" y="8" type="line"/>
      <point x="569" y="8" type="line"/>
      <point x="569" y="137" type="line"/>
      <point x="247" y="137" type="line"/>
      <point x="247" y="139" type="line"/>
      <point x="553" y="527" type="line"/>
      <point x="553" y="642" type="line"/>
      <point x="46" y="642" type="line"/>
      <point x="46" y="513" type="line"/>
    </contour>
  </outline>
</glyph>
<glyph name="bracketright" format="2">
  <advance width="343"/>
  <unicode hex="005D"/>
  <note>
bracketright
</note>
  <outline>
    <contour>
      <point x="30" y="797" type="line"/>
      <point x="30" y="672" type="line"/>
      <point x="135" y="672" type="line"/>
      <point x="135" y="-134" type="line"/>
      <point x="30" y="-134" type="line"/>
      <point x="30" y="-259" type="line"/>
      <point x="283" y="-259" type="line"/>
      <point x="283" y="797" type="line"/>
    </contour>
  </outline>
</glyph>
<glyph name="asciicircum" format="2">
  <advance width="558"/>
  <unicode hex="005E"/>
  <note>
asciicircum
</note>
  <outline>
    <contour>
      <point x="380" y="642" type="line"/>
      <point x="178" y="642" type="line"/>
      <point x="40" y="318" type="line"/>
      <point x="184" y="318" type="line"/>
      <point x="278" y="528" type="line"/>
      <point x="280" y="528" type="line"/>
      <point x="373" y="318" type="line"/>
      <point x="518" y="318" type="line"/>
    </contour>
  </outline>
</glyph>
<glyph name="grave" format="2">
  <advance width="280"/>
  <unicode hex="0060"/>
  <outline>
    <contour>
      <point x="20" y="829" type="line"/>
      <point x="142" y="682" type="line"/>
      <point x="270" y="682" type="line"/>
      <point x="168" y="836" type="line"/>
      <point x="20" y="836" type="line"/>
    </contour>
  </outline>
</glyph>
<glyph name="a" format="2">
  <advance width="559"/>
  <unicode hex="0061"/>
  <outline>
    <contour>
      <point x="361" y="55" type="curve"/>
      <point x="375" y="55" type="line"/>
      <point x="364" y="183" type="line"/>
      <point x="363" y="137"/>
      <point x="322" y="118"/>
      <point x="239" y="118" type="curve" smooth="yes"/>
      <point x="197" y="118"/>
      <point x="172" y="128"/>
      <point x="172" y="162" type="curve" smooth="yes"/>
      <point x="172" y="190"/>
      <point x="192" y="208"/>
      <point x="251" y="208" type="curve" smooth="yes"/>
      <point x="377" y="208" type="line"/>
      <point x="377" y="310" type="line"/>
      <point x="214" y="310" type="line" smooth="yes"/>
      <point x="83" y="310"/>
      <point x="25" y="254"/>
      <point x="25" y="162" type="curve" smooth="yes"/>
      <point x="25" y="55"/>
      <point x="84" y="0"/>
      <point x="198" y="0" type="curve" smooth="yes"/>
      <point x="283" y="0"/>
      <point x="335" y="21"/>
    </contour>
    <contour>
      <point x="245" y="501" type="curve" smooth="yes"/>
      <point x="184" y="501"/>
      <point x="104" y="490"/>
      <point x="64" y="478" type="curve"/>
      <point x="63" y="362" type="line"/>
      <point x="66" y="360" type="line"/>
      <point x="108" y="370"/>
      <point x="168" y="381"/>
      <point x="227" y="381" type="curve" smooth="yes"/>
      <point x="340" y="381"/>
      <point x="364" y="360"/>
      <point x="364" y="270" type="curve" smooth="yes"/>
      <point x="364" y="55" type="line"/>
      <point x="369" y="9" type="line"/>
      <point x="514" y="9" type="line"/>
      <point x="514" y="253" type="line" smooth="yes"/>
      <point x="514" y="455"/>
      <point x="436" y="501"/>
    </contour>
  </outline>
</glyph>
<glyph name="c" format="2">
  <advance width="469"/>
  <unicode hex="0063"/>
  <outline>
    <contour>
      <point x="439" y="20" type="curve"/>
      <point x="439" y="150" type="line"/>
      <point x="435" y="153" type="line"/>
      <point x="387" y="147"/>
      <point x="346" y="143"/>
      <point x="300" y="143" type="curve" smooth="yes"/>
      <point x="211" y="143"/>
      <point x="181" y="156"/>
      <point x="181" y="246" type="curve" smooth="yes"/>
      <point x="181" y="325"/>
      <point x="211" y="355"/>
      <point x="300" y="355" type="curve" smooth="yes"/>
      <point x="344" y="355"/>
      <point x="391" y="351"/>
      <point x="431" y="343" type="curve"/>
      <point x="434" y="345" type="line"/>
      <point x="433" y="479" type="line"/>
      <point x="392" y="492"/>
      <point x="319" y="501"/>
      <point x="260" y="501" type="curve" smooth="yes"/>
      <point x="112" y="501"/>
      <point x="24" y="445"/>
      <point x="25" y="248" type="curve" smooth="yes"/>
      <point x="26" y="56"/>
      <point x="102" y="0"/>
      <point x="261" y="0" type="curve" smooth="yes"/>
      <point x="334" y="0"/>
      <point x="405" y="7"/>
    </contour>
  </outline>
</glyph>
<glyph name="r" format="2">
  <advance width="446"/>
  <unicode hex="0072"/>
  <outline>
    <contour>
      <point x="434" y="336" type="curve"/>
      <point x="436" y="338" type="line"/>
      <point x="436" y="494" type="line"/>
      <point x="416" y="497"/>
      <point x="386" y="501"/>
      <point x="350" y="501" type="curve" smooth="yes"/>
      <point x="260" y="501"/>
      <point x="218" y="470"/>
      <point x="206" y="396" type="curve"/>
      <point x="191" y="396" type="line"/>
      <point x="213" y="210" type="line"/>
      <point x="222" y="185" type="line"/>
      <point x="222" y="320"/>
      <point x="276" y="346"/>
      <point x="351" y="346" type="curve" smooth="yes"/>
      <point x="385" y="346"/>
      <point x="413" y="341"/>
    </contour>
    <contour>
      <point x="220" y="9" type="line"/>
      <point x="224" y="379" type="line"/>
      <point x="203" y="396" type="line"/>
      <point x="190" y="496" type="line"/>
      <point x="60" y="496" type="line"/>
      <point x="60" y="9" type="line"/>
    </contour>
  </outline>
</glyph>
<glyph name="u" format="2">
  <advance width="593"/>
  <unicode hex="0075"/>
  <outline>
    <contour>
      <point x="220" y="0" type="curve" smooth="yes"/>
      <point x="296" y="0"/>
      <point x="352" y="25"/>
      <point x="370" y="64" type="curve"/>
      <point x="381" y="64" type="line"/>
      <point x="373" y="228" type="line"/>
      <point x="374" y="168"/>
      <point x="358" y="146"/>
      <point x="292" y="146" type="curve" smooth="yes"/>
      <point x="226" y="146"/>
      <point x="211" y="168"/>
      <point x="211" y="228" type="curve" smooth="yes"/>
      <point x="210" y="496" type="line"/>
      <point x="50" y="496" type="line"/>
      <point x="50" y="189" type="line" smooth="yes"/>
      <point x="50" y="68"/>
      <point x="97" y="0"/>
    </contour>
    <contour>
      <point x="373" y="496" type="line"/>
      <point x="373" y="64" type="line"/>
      <point x="381" y="9" type="line"/>
      <point x="533" y="9" type="line"/>
      <point x="533" y="496" type="line"/>
    </contour>
  </outline>
</glyph>
<glyph name="y" format="2">
  <advance width="537"/>
  <unicode hex="0079"/>
  <outline>
    <contour>
      <point x="116" y="-175" type="line"/>
      <point x="116" y="-177" type="line"/>
      <point x="280" y="-177" type="line"/>
      <point x="537" y="493" type="line"/>
      <point x="537" y="496" type="line"/>
      <point x="365" y="496" type="line"/>
      <point x="325" y="389"/>
      <point x="293" y="284"/>
      <point x="273" y="173" type="curve"/>
      <point x="271" y="173" type="line"/>
      <point x="251" y="285"/>
      <point x="216" y="390"/>
      <point x="179" y="496" type="curve"/>
      <point x="0" y="496" type="line"/>
      <point x="0" y="494" type="line"/>
      <point x="197" y="-1" type="line"/>
      <point x="198" y="19" type="line"/>
    </contour>
  </outline>
</glyph>
<glyph name="z" format="2">
  <advance width="514"/>
  <unicode hex="007A"/>
  <outline>
    <contour>
      <point x="266" y="366" type="line"/>
      <point x="266" y="364" type="line"/>
      <point x="33" y="116" type="line"/>
      <point x="33" y="11" type="line"/>
      <point x="492" y="11" type="line"/>
      <point x="492" y="140" type="line"/>
      <point x="260" y="140" type="line"/>
      <point x="260" y="142" type="line"/>
      <point x="476" y="380" type="line"/>
      <point x="476" y="495" type="line"/>
      <point x="49" y="495" type="line"/>
      <point x="49" y="366" type="line"/>
    </contour>
  </outline>
</glyph>
<glyph name="braceright" format="2">
  <advance width="408"/>
  <unicode hex="007D"/>
  <note>
braceright
</note>
  <outline>
    <contour>
      <point x="149" y="188" type="curve" smooth="yes"/>
      <point x="149" y="-88" type="line" smooth="yes"/>
      <point x="149" y="-124"/>
      <point x="133" y="-136"/>
      <point x="101" y="-136" type="curve" smooth="yes"/>
      <point x="92" y="-136"/>
      <point x="79" y="-134"/>
      <point x="71" y="-131" type="curve"/>
      <point x="70" y="-132" type="line"/>
      <point x="70" y="-239" type="line"/>
      <point x="87" y="-245"/>
      <point x="108" y="-249"/>
      <point x="137" y="-249" type="curve" smooth="yes"/>
      <point x="241" y="-249"/>
      <point x="275" y="-195"/>
      <point x="275" y="-109" type="curve" smooth="yes"/>
      <point x="275" y="175" type="line" smooth="yes"/>
      <point x="275" y="220"/>
      <point x="326" y="220"/>
      <point x="343" y="220" type="curve"/>
      <point x="343" y="329" type="line"/>
      <point x="326" y="329"/>
      <point x="275" y="329"/>
      <point x="275" y="365" type="curve" smooth="yes"/>
      <point x="275" y="657" type="line" smooth="yes"/>
      <point x="275" y="743"/>
      <point x="241" y="797"/>
      <point x="137" y="797" type="curve" smooth="yes"/>
      <point x="108" y="797"/>
      <point x="87" y="793"/>
      <point x="70" y="787" type="curve"/>
      <point x="70" y="680" type="line"/>
      <point x="71" y="679" type="line"/>
      <point x="79" y="682"/>
      <point x="92" y="684"/>
      <point x="101" y="684" type="curve" smooth="yes"/>
      <point x="133" y="684"/>
      <point x="149" y="672"/>
      <point x="149" y="636" type="curve" smooth="yes"/>
      <point x="149" y="352" type="line" smooth="yes"/>
      <point x="149" y="290"/>
      <point x="202" y="278"/>
      <point x="228" y="275" type="curve"/>
      <point x="228" y="271" type="line"/>
      <point x="202" y="269"/>
      <point x="149" y="265"/>
    </contour>
  </outline>
</glyph>
<glyph name="sterling" format="2">
  <advance width="552"/>
  <unicode hex="00A3"/>
  <outline>
    <contour>
      <point x="50" y="262" type="line"/>
      <point x="511" y="262" type="line"/>
      <point x="511" y="392" type="line"/>
      <point x="50" y="392" type="line"/>
    </contour>
    <contour>
      <point x="201" y="139" type="line"/>
      <point x="201" y="140" type="line"/>
      <point x="252" y="150"/>
      <point x="280" y="196"/>
      <point x="280" y="243" type="curve" smooth="yes"/>
      <point x="280" y="348" type="line" smooth="yes"/>
      <point x="280" y="501"/>
      <point x="303" y="518"/>
      <point x="402" y="518" type="curve" smooth="yes"/>
      <point x="455" y="518"/>
      <point x="484" y="515"/>
      <point x="529" y="502" type="curve"/>
      <point x="532" y="504" type="line"/>
      <point x="532" y="628" type="line"/>
      <point x="473" y="647"/>
      <point x="437" y="651"/>
      <point x="369" y="651" type="curve" smooth="yes"/>
      <point x="170" y="651"/>
      <point x="120" y="602"/>
      <point x="120" y="344" type="curve" smooth="yes"/>
      <point x="120" y="230" type="line" smooth="yes"/>
      <point x="120" y="182"/>
      <point x="95" y="139"/>
      <point x="50" y="139" type="curve"/>
      <point x="50" y="9" type="line"/>
      <point x="532" y="9" type="line"/>
      <point x="532" y="139" type="line"/>
    </contour>
  </outline>
</glyph>
<glyph name="section" format="2">
  <advance width="600"/>
  <unicode hex="00A7"/>
  <outline>
    <contour>
      <point x="389" y="347" type="curve"/>
      <point x="554" y="347" type="line"/>
      <point x="553" y="429"/>
      <point x="515" y="472"/>
      <point x="435" y="490" type="curve"/>
      <point x="362" y="504" type="line"/>
      <point x="275" y="520"/>
      <point x="268" y="525"/>
      <point x="268" y="545" type="curve" smooth="yes"/>
      <point x="268" y="570"/>
      <point x="289" y="577"/>
      <point x="352" y="577" type="curve" smooth="yes"/>
      <point x="416" y="577"/>
      <point x="473" y="569"/>
      <point x="529" y="551" type="curve"/>
      <point x="532" y="554" type="line"/>
      <point x="534" y="675" type="line"/>
      <point x="487" y="690"/>
      <point x="417" y="701"/>
      <point x="325" y="701" type="curve" smooth="yes"/>
      <point x="172" y="701"/>
      <point x="105" y="666"/>
      <point x="105" y="549" type="curve" smooth="yes"/>
      <point x="105" y="462"/>
      <point x="146" y="424"/>
      <point x="248" y="404" type="curve"/>
      <point x="327" y="389" type="line"/>
      <point x="376" y="379"/>
      <point x="389" y="370"/>
    </contour>
    <contour>
      <point x="268" y="355" type="curve"/>
      <point x="105" y="355" type="line"/>
      <point x="106" y="271"/>
      <point x="148" y="224"/>
      <point x="248" y="204" type="curve"/>
      <point x="327" y="189" type="line"/>
      <point x="376" y="179"/>
      <point x="389" y="180"/>
      <point x="389" y="157" type="curve" smooth="yes"/>
      <point x="389" y="132"/>
      <point x="373" y="125"/>
      <point x="281" y="125" type="curve" smooth="yes"/>
      <point x="216" y="125"/>
      <point x="161" y="132"/>
      <point x="108" y="147" type="curve"/>
      <point x="105" y="145" type="line"/>
      <point x="105" y="22" type="line"/>
      <point x="163" y="10"/>
      <point x="238" y="0"/>
      <point x="326" y="0" type="curve" smooth="yes"/>
      <point x="499" y="0"/>
      <point x="554" y="38"/>
      <point x="554" y="152" type="curve" smooth="yes"/>
      <point x="554" y="238"/>
      <point x="516" y="272"/>
      <point x="435" y="290" type="curve"/>
      <point x="362" y="304" type="line"/>
      <point x="301" y="315"/>
      <point x="279" y="323"/>
    </contour>
  </outline>
</glyph>
<glyph name="dieresis" format="2">
  <advance width="339"/>
  <unicode hex="00A8"/>
  <outline>
    <contour>
      <point x="327" y="780" type="curve"/>
      <point x="305" y="785"/>
      <point x="284" y="787"/>
      <point x="263" y="787" type="curve" smooth="yes"/>
      <point x="241" y="787"/>
      <point x="220" y="785"/>
      <point x="198" y="780" type="curve"/>
      <point x="196" y="762"/>
      <point x="195" y="748"/>
      <point x="195" y="735" type="curve" smooth="yes"/>
      <point x="195" y="722"/>
      <point x="196" y="706"/>
      <point x="198" y="689" type="curve"/>
      <point x="220" y="684"/>
      <point x="241" y="682"/>
      <point x="261" y="682" type="curve" smooth="yes"/>
      <point x="283" y="682"/>
      <point x="304" y="684"/>
      <point x="327" y="689" type="curve"/>
      <point x="328" y="707"/>
      <point x="329" y="721"/>
      <point x="329" y="735" type="curve" smooth="yes"/>
      <point x="329" y="748"/>
      <point x="328" y="762"/>
    </contour>
    <contour>
      <point x="142" y="780" type="curve"/>
      <point x="120" y="785"/>
      <point x="99" y="787"/>
      <point x="78" y="787" type="curve" smooth="yes"/>
      <point x="56" y="787"/>
      <point x="35" y="785"/>
      <point x="13" y="780" type="curve"/>
      <point x="11" y="762"/>
      <point x="10" y="748"/>
      <point x="10" y="735" type="curve" smooth="yes"/>
      <point x="10" y="722"/>
      <point x="11" y="706"/>
      <point x="13" y="689" type="curve"/>
      <point x="35" y="684"/>
      <point x="56" y="682"/>
      <point x="76" y="682" type="curve" smooth="yes"/>
      <point x="98" y="682"/>
      <point x="119" y="684"/>
      <point x="142" y="689" type="curve"/>
      <point x="143" y="707"/>
      <point x="144" y="721"/>
      <point x="144" y="735" type="curve" smooth="yes"/>
      <point x="144" y="748"/>
      <point x="143" y="762"/>
    </contour>
  </outline>
</glyph>
<glyph name="guillemotleft" format="2">
  <advance width="486"/>
  <unicode hex="00AB"/>
  <note>
guillemotleft
</note>
  <outline>
    <contour>
      <point x="221" y="237" type="line"/>
      <point x="350" y="43" type="line"/>
      <point x="486" y="43" type="line"/>
      <point x="356" y="237" type="line"/>
      <point x="486" y="433" type="line"/>
      <point x="350" y="433" type="line"/>
    </contour>
    <contour>
      <point x="-10" y="237" type="line"/>
      <point x="119" y="43" type="line"/>
      <point x="255" y="43" type="line"/>
      <point x="124" y="237" type="line"/>
      <point x="255" y="433" type="line"/>
      <point x="119" y="433" type="line"/>
    </contour>
  </outline>
</glyph>
<glyph name="degree" format="2">
  <advance width="293"/>
  <unicode hex="00B0"/>
  <outline>
    <contour>
      <point x="273" y="603" type="curve" smooth="yes"/>
      <point x="273" y="687"/>
      <point x="236" y="727"/>
      <point x="146" y="727" type="curve" smooth="yes"/>
      <point x="57" y="727"/>
      <point x="20" y="687"/>
      <point x="20" y="603" type="curve" smooth="yes"/>
      <point x="20" y="520"/>
      <point x="57" y="480"/>
      <point x="146" y="480" type="curve" smooth="yes"/>
      <point x="236" y="480"/>
      <point x="273" y="520"/>
    </contour>
    <contour>
      <point x="146" y="549" type="curve" smooth="yes"/>
      <point x="104" y="549"/>
      <point x="91" y="566"/>
      <point x="91" y="603" type="curve" smooth="yes"/>
      <point x="91" y="640"/>
      <point x="104" y="657"/>
      <point x="146" y="657" type="curve" smooth="yes"/>
      <point x="188" y="657"/>
      <point x="202" y="640"/>
      <point x="202" y="603" type="curve" smooth="yes"/>
      <point x="202" y="566"/>
      <point x="188" y="549"/>
    </contour>
  </outline>
</glyph>
<glyph name="plusminus" format="2">
  <advance width="582"/>
  <unicode hex="00B1"/>
  <note>
plusminus
</note>
  <outline>
    <contour>
      <point x="40" y="154" type="line"/>
      <point x="40" y="54" type="line"/>
      <point x="542" y="54" type="line"/>
      <point x="542" y="154" type="line"/>
    </contour>
    <contour>
      <point x="365" y="581" type="line"/>
      <point x="217" y="581" type="line"/>
      <point x="217" y="453" type="line"/>
      <point x="40" y="453" type="line"/>
      <point x="40" y="329" type="line"/>
      <point x="217" y="329" type="line"/>
      <point x="217" y="201" type="line"/>
      <point x="365" y="201" type="line"/>
      <point x="365" y="329" type="line"/>
      <point x="542" y="329" type="line"/>
      <point x="542" y="453" type="line"/>
      <point x="365" y="453" type="line"/>
    </contour>
  </outline>
</glyph>
<glyph name="onesuperior" format="2">
  <advance width="301"/>
  <unicode hex="00B9"/>
  <outline>
    <contour>
      <point x="40" y="468" type="line"/>
      <point x="44" y="468" type="line"/>
      <point x="116" y="516" type="line"/>
      <point x="119" y="516" type="line"/>
      <point x="119" y="235" type="line"/>
      <point x="231" y="235" type="line"/>
      <point x="230" y="642" type="line"/>
      <point x="119" y="642" type="line"/>
      <point x="40" y="592" type="line"/>
    </contour>
  </outline>
</glyph>
<glyph name="guillemotright" format="2">
  <advance width="496"/>
  <unicode hex="00BB"/>
  <note>
guillemotright
</note>
  <outline>
    <contour>
      <point x="275" y="237" type="line"/>
      <point x="146" y="433" type="line"/>
      <point x="10" y="433" type="line"/>
      <point x="140" y="237" type="line"/>
      <point x="10" y="43" type="line"/>
      <point x="146" y="43" type="line"/>
    </contour>
    <contour>
      <point x="506" y="237" type="line"/>
      <point x="377" y="433" type="line"/>
      <point x="241" y="433" type="line"/>
      <point x="372" y="237" type="line"/>
      <point x="241" y="43" type="line"/>
      <point x="377" y="43" type="line"/>
    </contour>
  </outline>
</glyph>
<glyph name="AE" format="2">
  <advance width="950"/>
  <unicode hex="00C6"/>
  <outline>
    <contour>
      <point x="160" y="130" type="line"/>
      <point x="570" y="130" type="line"/>
      <point x="570" y="255" type="line"/>
      <point x="160" y="255" type="line"/>
    </contour>
    <contour>
      <point x="456" y="528" type="curve"/>
      <point x="476" y="528" type="line"/>
      <point x="581" y="642" type="line"/>
      <point x="343" y="642" type="line"/>
      <point x="10" y="11" type="line"/>
      <point x="10" y="9" type="line"/>
      <point x="199" y="9" type="line"/>
      <point x="249" y="112"/>
      <point x="399" y="408"/>
    </contour>
    <component base="E" xOffset="400"/>
  </outline>
</glyph>
<glyph name="dcroat" format="2">
  <advance width="576"/>
  <unicode hex="0111"/>
  <outline>
    <contour>
      <point x="590" y="613" type="line"/>
      <point x="286" y="613" type="line"/>
      <point x="286" y="533" type="line"/>
      <point x="590" y="533" type="line"/>
    </contour>
    <component base="d"/>
  </outline>
</glyph>
<glyph name="hbar" format="2">
  <advance width="592"/>
  <unicode hex="0127"/>
  <outline>
    <contour>
      <point x="290" y="613" type="line"/>
      <point x="-14" y="613" type="line"/>
      <point x="-14" y="533" type="line"/>
      <point x="290" y="533" type="line"/>
    </contour>
    <component base="h"/>
  </outline>
</glyph>
<glyph name="kgreenlandic" format="2">
  <advance width="537"/>
  <unicode hex="0138"/>
  <outline>
    <contour>
      <point x="220" y="9" type="line"/>
      <point x="220" y="496" type="line"/>
      <point x="60" y="496" type="line"/>
      <point x="60" y="9" type="line"/>
    </contour>
    <contour>
      <point x="220" y="9" type="line"/>
      <point x="220" y="496" type="line"/>
      <point x="60" y="496" type="line"/>
      <point x="60" y="9" type="line"/>
    </contour>
    <contour>
      <point x="376" y="262" type="line"/>
      <point x="524" y="492" type="line"/>
      <point x="524" y="496" type="line"/>
      <point x="348" y="496" type="line"/>
      <point x="222" y="290" type="line"/>
      <point x="188" y="290" type="line"/>
      <point x="220" y="235" type="line"/>
      <point x="223" y="234" type="line"/>
      <point x="364" y="9" type="line"/>
      <point x="548" y="9" type="line"/>
      <point x="376" y="258" type="line"/>
    </contour>
  </outline>
</glyph>
<glyph name="eng" format="2">
  <advance width="593"/>
  <unicode hex="014B"/>
  <outline>
    <contour>
      <point x="543" y="7" type="curve" smooth="yes"/>
      <point x="543" y="196" type="line"/>
      <point x="383" y="196" type="line"/>
      <point x="383" y="12" type="line" smooth="yes"/>
      <point x="383" y="-26"/>
      <point x="377" y="-37"/>
      <point x="342" y="-37" type="curve" smooth="yes"/>
      <point x="321" y="-37"/>
      <point x="306" y="-35"/>
      <point x="292" y="-32" type="curve"/>
      <point x="289" y="-34" type="line"/>
      <point x="289" y="-163" type="line"/>
      <point x="320" y="-172"/>
      <point x="354" y="-177"/>
      <point x="396" y="-177" type="curve" smooth="yes"/>
      <point x="504" y="-177"/>
      <point x="543" y="-136"/>
    </contour>
    <component base="n"/>
  </outline>
</glyph>
<glyph name="OE" format="2">
  <advance width="981"/>
  <unicode hex="0152"/>
  <outline>
    <contour>
      <point x="200" y="326" type="curve" smooth="yes"/>
      <point x="200" y="469"/>
      <point x="224" y="511"/>
      <point x="351" y="511" type="curve" smooth="yes"/>
      <point x="437" y="511"/>
      <point x="491" y="492"/>
      <point x="491" y="436" type="curve"/>
      <point x="509" y="602" type="line"/>
      <point x="490" y="602" type="line"/>
      <point x="469" y="631"/>
      <point x="412" y="651"/>
      <point x="331" y="651" type="curve" smooth="yes"/>
      <point x="109" y="651"/>
      <point x="40" y="567"/>
      <point x="40" y="326" type="curve" smooth="yes"/>
      <point x="40" y="85"/>
      <point x="109" y="1"/>
      <point x="331" y="1" type="curve" smooth="yes"/>
      <point x="412" y="1"/>
      <point x="469" y="21"/>
      <point x="490" y="50" type="curve"/>
      <point x="509" y="50" type="line"/>
      <point x="491" y="216" type="line"/>
      <point x="491" y="160"/>
      <point x="437" y="141"/>
      <point x="351" y="141" type="curve" smooth="yes"/>
      <point x="224" y="141"/>
      <point x="200" y="183"/>
    </contour>
    <component base="E" xOffset="431"/>
  </outline>
</glyph>
<glyph name="tbar" format="2">
  <advance width="372"/>
  <unicode hex="0167"/>
  <outline>
    <contour>
      <point x="70" y="155" type="line"/>
      <point x="70" y="44"/>
      <point x="109" y="0"/>
      <point x="215" y="0" type="curve" smooth="yes"/>
      <point x="267" y="0"/>
      <point x="311" y="5"/>
      <point x="342" y="14" type="curve"/>
      <point x="342" y="144" type="line"/>
      <point x="339" y="146" type="line"/>
      <point x="315" y="143"/>
      <point x="290" y="141"/>
      <point x="269" y="141" type="curve" smooth="yes"/>
      <point x="236" y="141"/>
      <point x="230" y="152"/>
      <point x="230" y="190" type="curve" smooth="yes"/>
      <point x="230" y="614" type="line"/>
      <point x="115" y="614" type="line"/>
      <point x="84" y="489" type="line"/>
      <point x="70" y="479" type="line"/>
    </contour>
    <contour>
      <point x="10" y="495" type="line"/>
      <point x="10" y="375" type="line"/>
      <point x="339" y="375" type="line"/>
      <point x="339" y="495" type="line"/>
    </contour>
    <contour>
      <point x="10" y="345" type="line"/>
      <point x="10" y="225" type="line"/>
      <point x="339" y="225" type="line"/>
      <point x="339" y="345" type="line"/>
    </contour>
  </outline>
</glyph>
<glyph name="circumflex" format="2">
  <advance width="348"/>
  <unicode hex="02C6"/>
  <outline>
    <contour>
      <point x="190" y="691" type="curve"/>
      <point x="305" y="691" type="line"/>
      <point x="192" y="836" type="line"/>
      <point x="84" y="836" type="line"/>
      <point x="-23" y="691" type="line"/>
      <point x="93" y="691" type="line"/>
      <point x="108" y="714"/>
      <point x="131" y="750"/>
      <point x="140" y="775" type="curve"/>
      <point x="143" y="775" type="line"/>
      <point x="150" y="750"/>
      <point x="175" y="714"/>
    </contour>
  </outline>
</glyph>
<glyph name="caron" format="2">
  <advance width="348"/>
  <unicode hex="02C7"/>
  <guideline x="-26" y="836" angle="0"/>
  <outline>
    <contour>
      <point x="338" y="836" type="line"/>
      <point x="223" y="836" type="line"/>
      <point x="208" y="813"/>
      <point x="183" y="777"/>
      <point x="176" y="752" type="curve"/>
      <point x="173" y="752" type="line"/>
      <point x="164" y="777"/>
      <point x="141" y="813"/>
      <point x="126" y="836" type="curve"/>
      <point x="10" y="836" type="line"/>
      <point x="117" y="691" type="line"/>
      <point x="225" y="691" type="line"/>
    </contour>
  </outline>
</glyph>
<glyph name="breve" format="2">
  <advance width="418"/>
  <unicode hex="02D8"/>
  <outline>
    <contour>
      <point x="301" y="837" type="curve"/>
      <point x="408" y="837" type="line"/>
      <point x="408" y="712"/>
      <point x="377" y="682"/>
      <point x="211" y="682" type="curve" smooth="yes"/>
      <point x="35" y="682"/>
      <point x="10" y="712"/>
      <point x="10" y="837" type="curve"/>
      <point x="118" y="837" type="line"/>
      <point x="118" y="780"/>
      <point x="125" y="771"/>
      <point x="211" y="770" type="curve" smooth="yes"/>
      <point x="297" y="769"/>
      <point x="301" y="780"/>
    </contour>
  </outline>
</glyph>
<glyph name="ogonek" format="2">
  <advance width="214"/>
  <unicode hex="02DB"/>
  <outline>
    <contour>
      <point x="202" y="-127" type="line"/>
      <point x="190" y="-129"/>
      <point x="181" y="-129"/>
      <point x="170" y="-129" type="curve" smooth="yes"/>
      <point x="125" y="-129"/>
      <point x="111" y="-111"/>
      <point x="111" y="-75" type="curve" smooth="yes"/>
      <point x="111" y="-46"/>
      <point x="122" y="-17"/>
      <point x="139" y="9" type="curve"/>
      <point x="60" y="9" type="line"/>
      <point x="27" y="-17"/>
      <point x="10" y="-63"/>
      <point x="10" y="-107" type="curve" smooth="yes"/>
      <point x="10" y="-173"/>
      <point x="46" y="-211"/>
      <point x="148" y="-211" type="curve" smooth="yes"/>
      <point x="162" y="-211"/>
      <point x="185" y="-209"/>
      <point x="203" y="-208" type="curve"/>
      <point x="204" y="-130" type="line"/>
    </contour>
  </outline>
</glyph>
<glyph name="Delta" format="2">
  <advance width="720"/>
  <unicode hex="0394"/>
  <outline>
    <contour>
      <point x="417" y="655" type="line"/>
      <point x="303" y="655" type="line"/>
      <point x="10" y="3" type="line"/>
      <point x="710" y="3" type="line"/>
    </contour>
    <contour>
      <point x="183" y="115" type="line"/>
      <point x="360" y="506" type="line"/>
      <point x="537" y="115" type="line"/>
    </contour>
  </outline>
</glyph>
<glyph name="pi" format="2">
  <advance width="600"/>
  <unicode hex="03C0"/>
  <outline>
    <contour>
      <point x="575" y="500" type="line"/>
      <point x="-30" y="500" type="line"/>
      <point x="-30" y="370" type="line"/>
      <point x="575" y="370" type="line"/>
    </contour>
    <contour>
      <point x="50" y="500" type="line"/>
      <point x="50" y="9" type="line"/>
      <point x="210" y="9" type="line"/>
      <point x="210" y="500" type="line"/>
    </contour>
    <contour>
      <point x="568" y="143" type="line"/>
      <point x="558" y="139"/>
      <point x="547" y="137"/>
      <point x="523" y="137" type="curve" smooth="yes"/>
      <point x="489" y="137"/>
      <point x="483" y="159"/>
      <point x="483" y="248" type="curve" smooth="yes"/>
      <point x="484" y="489" type="line"/>
      <point x="329" y="489" type="line"/>
      <point x="329" y="211" type="line" smooth="yes"/>
      <point x="329" y="48"/>
      <point x="372" y="0"/>
      <point x="472" y="0" type="curve" smooth="yes"/>
      <point x="500" y="0"/>
      <point x="540" y="5"/>
      <point x="572" y="13" type="curve"/>
      <point x="572" y="141" type="line"/>
    </contour>
  </outline>
</glyph>
<glyph name="dvAnusvara" format="2">
  <unicode hex="0902"/>
  <anchor x="-57" y="609" name="_abvm.bindu"/>
  <outline>
    <contour>
      <point x="-57" y="772" type="curve"/>
      <point x="-55" y="750"/>
      <point x="-54" y="735"/>
      <point x="-54" y="719" type="curve" smooth="yes"/>
      <point x="-54" y="703"/>
      <point x="-55" y="687"/>
      <point x="-57" y="666" type="curve"/>
      <point x="-83" y="661"/>
      <point x="-108" y="658"/>
      <point x="-133" y="658" type="curve" smooth="yes"/>
      <point x="-157" y="658"/>
      <point x="-181" y="661"/>
      <point x="-206" y="666" type="curve"/>
      <point x="-209" y="686"/>
      <point x="-210" y="702"/>
      <point x="-210" y="718" type="curve" smooth="yes"/>
      <point x="-210" y="733"/>
      <point x="-209" y="750"/>
      <point x="-206" y="772" type="curve"/>
      <point x="-181" y="777"/>
      <point x="-156" y="779"/>
      <point x="-131" y="779" type="curve" smooth="yes"/>
      <point x="-107" y="779"/>
      <point x="-82" y="777"/>
    </contour>
  </outline>
</glyph>
<glyph name="dvVisarga" format="2">
  <advance width="310"/>
  <unicode hex="0903"/>
  <outline>
    <contour>
      <point x="247" y="453" type="curve"/>
      <point x="249" y="427"/>
      <point x="250" y="409"/>
      <point x="250" y="389" type="curve" smooth="yes"/>
      <point x="250" y="369"/>
      <point x="249" y="350"/>
      <point x="247" y="324" type="curve"/>
      <point x="215" y="318"/>
      <point x="185" y="315"/>
      <point x="154" y="315" type="curve" smooth="yes"/>
      <point x="125" y="315"/>
      <point x="95" y="318"/>
      <point x="65" y="324" type="curve"/>
      <point x="61" y="349"/>
      <point x="60" y="368"/>
      <point x="60" y="388" type="curve" smooth="yes"/>
      <point x="60" y="406"/>
      <point x="61" y="427"/>
      <point x="65" y="453" type="curve"/>
      <point x="95" y="460"/>
      <point x="126" y="462"/>
      <point x="156" y="462" type="curve" smooth="yes"/>
      <point x="186" y="462"/>
      <point x="216" y="460"/>
    </contour>
    <contour>
      <point x="247" y="185" type="curve"/>
      <point x="249" y="158"/>
      <point x="250" y="140"/>
      <point x="250" y="120" type="curve" smooth="yes"/>
      <point x="250" y="101"/>
      <point x="249" y="81"/>
      <point x="247" y="56" type="curve"/>
      <point x="215" y="49"/>
      <point x="185" y="46"/>
      <point x="154" y="46" type="curve" smooth="yes"/>
      <point x="125" y="46"/>
      <point x="95" y="49"/>
      <point x="66" y="56" type="curve"/>
      <point x="61" y="80"/>
      <point x="60" y="99"/>
      <point x="60" y="119" type="curve" smooth="yes"/>
      <point x="60" y="138"/>
      <point x="61" y="158"/>
      <point x="66" y="185" type="curve"/>
      <point x="95" y="191"/>
      <point x="126" y="193"/>
      <point x="156" y="193" type="curve" smooth="yes"/>
      <point x="186" y="193"/>
      <point x="216" y="191"/>
    </contour>
  </outline>
</glyph>
<glyph name="dvA" format="2">
  <advance width="742"/>
  <unicode hex="0905"/>
  <guideline x="216" y="216" angle="270"/>
  <anchor x="682" y="607" name="abvm.bindu"/>
  <outline>
    <contour>
      <point x="534" y="9" type="line"/>
      <point x="534" y="501" type="line"/>
      <point x="682" y="501" type="line"/>
      <point x="682" y="9" type="line"/>
    </contour>
    <contour>
      <point x="474" y="500" type="line"/>
      <point x="474" y="607" type="line"/>
      <point x="782" y="607" type="line"/>
      <point x="782" y="500" type="line"/>
    </contour>
    <contour>
      <point x="332" y="168" type="line"/>
      <point x="332" y="283" type="line"/>
      <point x="589" y="283" type="line"/>
      <point x="589" y="168" type="line"/>
    </contour>
    <contour>
      <point x="65" y="477" type="curve"/>
      <point x="62" y="478" type="line"/>
      <point x="62" y="590" type="line"/>
      <point x="110" y="606"/>
      <point x="166" y="616"/>
      <point x="227" y="616" type="curve" smooth="yes"/>
      <point x="359" y="616"/>
      <point x="407" y="561"/>
      <point x="407" y="473" type="curve" smooth="yes"/>
      <point x="407" y="390"/>
      <point x="378" y="343"/>
      <point x="285" y="332" type="curve"/>
      <point x="285" y="328" type="line"/>
      <point x="378" y="323"/>
      <point x="410" y="261"/>
      <point x="410" y="187" type="curve" smooth="yes"/>
      <point x="410" y="100"/>
      <point x="360" y="39"/>
      <point x="218" y="35" type="curve" smooth="yes"/>
      <point x="142" y="33"/>
      <point x="63" y="46"/>
      <point x="20" y="68" type="curve"/>
      <point x="20" y="190" type="line"/>
      <point x="25" y="190" type="line"/>
      <point x="77" y="168"/>
      <point x="127" y="160"/>
      <point x="183" y="160" type="curve" smooth="yes"/>
      <point x="243" y="160"/>
      <point x="266" y="173"/>
      <point x="266" y="216" type="curve" smooth="yes"/>
      <point x="266" y="256"/>
      <point x="245" y="270"/>
      <point x="193" y="270" type="curve" smooth="yes"/>
      <point x="118" y="270" type="line"/>
      <point x="118" y="390" type="line"/>
      <point x="182" y="390" type="line" smooth="yes"/>
      <point x="244" y="390"/>
      <point x="266" y="403"/>
      <point x="266" y="442" type="curve" smooth="yes"/>
      <point x="266" y="476"/>
      <point x="248" y="494"/>
      <point x="186" y="494" type="curve" smooth="yes"/>
      <point x="146" y="494"/>
      <point x="101" y="487"/>
    </contour>
  </outline>
</glyph>
<glyph name="dvI" format="2">
  <advance width="529"/>
  <unicode hex="0907"/>
  <anchor x="456" y="607" name="abvm.bindu"/>
  <outline>
    <contour>
      <point x="356" y="344" type="line"/>
      <point x="356" y="501" type="line"/>
      <point x="474" y="501" type="line"/>
      <point x="474" y="344" type="line"/>
    </contour>
    <contour>
      <point x="-40" y="500" type="line"/>
      <point x="-40" y="607" type="line"/>
      <point x="564" y="607" type="line"/>
      <point x="564" y="500" type="line"/>
    </contour>
    <contour>
      <point x="224" y="447" type="curve" smooth="yes"/>
      <point x="474" y="447" type="line"/>
      <point x="474" y="340" type="line"/>
      <point x="228" y="340" type="line" smooth="yes"/>
      <point x="205" y="340"/>
      <point x="190" y="336"/>
      <point x="190" y="311" type="curve" smooth="yes"/>
      <point x="190" y="286"/>
      <point x="205" y="282"/>
      <point x="228" y="282" type="curve" smooth="yes"/>
      <point x="300" y="282" type="line" smooth="yes"/>
      <point x="452" y="282"/>
      <point x="499" y="256"/>
      <point x="499" y="143" type="curve" smooth="yes"/>
      <point x="499" y="36"/>
      <point x="445" y="0"/>
      <point x="307" y="0" type="curve" smooth="yes"/>
      <point x="241" y="0"/>
      <point x="192" y="7"/>
      <point x="164" y="19" type="curve"/>
      <point x="161" y="16" type="line"/>
      <point x="171" y="-12"/>
      <point x="173" y="-36"/>
      <point x="173" y="-74" type="curve"/>
      <point x="48" y="-74" type="line"/>
      <point x="48" y="157" type="line"/>
      <point x="151" y="157" type="line"/>
      <point x="151" y="149" type="line" smooth="yes"/>
      <point x="151" y="120"/>
      <point x="168" y="113"/>
      <point x="255" y="113" type="curve" smooth="yes"/>
      <point x="344" y="113"/>
      <point x="359" y="120"/>
      <point x="359" y="149" type="curve" smooth="yes"/>
      <point x="359" y="178"/>
      <point x="346" y="185"/>
      <point x="262" y="185" type="curve" smooth="yes"/>
      <point x="212" y="185" type="line" smooth="yes"/>
      <point x="95" y="185"/>
      <point x="50" y="222"/>
      <point x="50" y="318" type="curve" smooth="yes"/>
      <point x="50" y="413"/>
      <point x="102" y="447"/>
    </contour>
  </outline>
</glyph>
<glyph name="dvCA" format="2">
  <advance width="662"/>
  <unicode hex="091A"/>
  <anchor x="533" y="8" name="blwm"/>
  <anchor x="536" y="607" name="abvm"/>
  <outline>
    <contour>
      <point x="453" y="9" type="line"/>
      <point x="453" y="501" type="line"/>
      <point x="602" y="501" type="line"/>
      <point x="602" y="9" type="line"/>
    </contour>
    <contour>
      <point x="-35" y="500" type="line"/>
      <point x="-35" y="607" type="line"/>
      <point x="702" y="607" type="line"/>
      <point x="702" y="500" type="line"/>
    </contour>
    <contour>
      <point x="13" y="292" type="curve"/>
      <point x="13" y="423" type="line"/>
      <point x="352" y="423" type="line"/>
      <point x="352" y="317" type="line"/>
      <point x="272" y="317" type="line" smooth="yes"/>
      <point x="244" y="317"/>
      <point x="225" y="307"/>
      <point x="225" y="270" type="curve" smooth="yes"/>
      <point x="225" y="227"/>
      <point x="246" y="214"/>
      <point x="315" y="211" type="curve" smooth="yes"/>
      <point x="368" y="209"/>
      <point x="430" y="225"/>
      <point x="458" y="245" type="curve"/>
      <point x="475" y="126" type="line"/>
      <point x="467" y="121"/>
      <point x="463" y="118"/>
      <point x="453" y="114" type="curve"/>
      <point x="451" y="115" type="line"/>
      <point x="407" y="96"/>
      <point x="346" y="84"/>
      <point x="286" y="84" type="curve" smooth="yes"/>
      <point x="164" y="84"/>
      <point x="84" y="125"/>
      <point x="84" y="221" type="curve" smooth="yes"/>
      <point x="84" y="265"/>
      <point x="97" y="290"/>
      <point x="115" y="304" type="curve"/>
      <point x="113" y="307" type="line"/>
      <point x="90" y="299"/>
      <point x="53" y="292"/>
    </contour>
  </outline>
</glyph>
<glyph name="dvCHA" format="2">
  <advance width="682"/>
  <unicode hex="091B"/>
  <anchor x="294" y="-51" name="blwm.virama"/>
  <anchor x="561" y="607" name="abvm.bindu"/>
  <anchor x="394" y="-71" name="blwm.u"/>
  <anchor x="559" y="607" name="abvm.e"/>
  <outline>
    <contour>
      <point x="-60" y="500" type="line"/>
      <point x="727" y="500" type="line"/>
      <point x="727" y="607" type="line"/>
      <point x="-60" y="607" type="line"/>
    </contour>
    <contour>
      <point x="434" y="538" type="line"/>
      <point x="434" y="397" type="line"/>
      <point x="562" y="397" type="line"/>
      <point x="562" y="538" type="line"/>
    </contour>
    <contour>
      <point x="26" y="410" type="curve" smooth="yes"/>
      <point x="26" y="349"/>
      <point x="66" y="306"/>
      <point x="142" y="303" type="curve"/>
      <point x="142" y="299" type="line"/>
      <point x="66" y="289"/>
      <point x="34" y="246"/>
      <point x="34" y="173" type="curve" smooth="yes"/>
      <point x="34" y="52"/>
      <point x="126" y="0"/>
      <point x="347" y="0" type="curve" smooth="yes"/>
      <point x="614" y="0"/>
      <point x="656" y="111"/>
      <point x="656" y="280" type="curve" smooth="yes"/>
      <point x="656" y="421"/>
      <point x="607" y="452"/>
      <point x="488" y="452" type="curve" smooth="yes"/>
      <point x="394" y="452"/>
      <point x="333" y="432"/>
      <point x="333" y="315" type="curve" smooth="yes"/>
      <point x="333" y="291"/>
      <point x="336" y="263"/>
      <point x="343" y="238" type="curve"/>
      <point x="453" y="238" type="line"/>
      <point x="453" y="240" type="line"/>
      <point x="449" y="257"/>
      <point x="446" y="277"/>
      <point x="446" y="295" type="curve" smooth="yes"/>
      <point x="446" y="341"/>
      <point x="454" y="356"/>
      <point x="487" y="356" type="curve" smooth="yes"/>
      <point x="520" y="356"/>
      <point x="530" y="341"/>
      <point x="530" y="295" type="curve" smooth="yes"/>
      <point x="530" y="252"/>
      <point x="529" y="203"/>
      <point x="513" y="176" type="curve" smooth="yes"/>
      <point x="492" y="140"/>
      <point x="439" y="122"/>
      <point x="344" y="122" type="curve" smooth="yes"/>
      <point x="219" y="122"/>
      <point x="182" y="142"/>
      <point x="182" y="187" type="curve" smooth="yes"/>
      <point x="182" y="230"/>
      <point x="207" y="243"/>
      <point x="279" y="243" type="curve" smooth="yes"/>
      <point x="285" y="243" type="line"/>
      <point x="285" y="359" type="line"/>
      <point x="279" y="359" type="line" smooth="yes"/>
      <point x="199" y="359"/>
      <point x="174" y="378"/>
      <point x="174" y="429" type="curve" smooth="yes"/>
      <point x="174" y="480"/>
      <point x="199" y="500"/>
      <point x="259" y="500" type="curve"/>
      <point x="259" y="606" type="line"/>
      <point x="74" y="502" type="line"/>
      <point x="74" y="498" type="line"/>
      <point x="49" y="488"/>
      <point x="26" y="453"/>
    </contour>
  </outline>
</glyph>
<glyph name="dvTTHA" format="2">
  <advance width="616"/>
  <unicode hex="0920"/>
  <anchor x="231" y="-53" name="blwm.virama"/>
  <anchor x="379" y="607" name="abvm.bindu"/>
  <anchor x="331" y="-81" name="blwm.u"/>
  <anchor x="377" y="607" name="abvm.e"/>
  <outline>
    <contour>
      <point x="239" y="379" type="line"/>
      <point x="239" y="501" type="line"/>
      <point x="377" y="501" type="line"/>
      <point x="377" y="379" type="line"/>
    </contour>
    <contour>
      <point x="-30" y="500" type="line"/>
      <point x="-30" y="607" type="line"/>
      <point x="646" y="607" type="line"/>
      <point x="646" y="500" type="line"/>
    </contour>
    <contour>
      <point x="35" y="219" type="curve" smooth="yes"/>
      <point x="35" y="396"/>
      <point x="89" y="435"/>
      <point x="308" y="435" type="curve" smooth="yes"/>
      <point x="527" y="435"/>
      <point x="581" y="396"/>
      <point x="581" y="219" type="curve" smooth="yes"/>
      <point x="581" y="42"/>
      <point x="527" y="3"/>
      <point x="308" y="3" type="curve" smooth="yes"/>
      <point x="89" y="3"/>
      <point x="35" y="42"/>
    </contour>
    <contour>
      <point x="168" y="224" type="curve" smooth="yes"/>
      <point x="168" y="139"/>
      <point x="193" y="123"/>
      <point x="308" y="123" type="curve" smooth="yes"/>
      <point x="423" y="123"/>
      <point x="448" y="144"/>
      <point x="448" y="224" type="curve" smooth="yes"/>
      <point x="448" y="304"/>
      <point x="423" y="315"/>
      <point x="308" y="315" type="curve" smooth="yes"/>
      <point x="193" y="315"/>
      <point x="168" y="304"/>
    </contour>
  </outline>
</glyph>
<glyph name="dvNNA" format="2">
  <advance width="761"/>
  <unicode hex="0923"/>
  <outline>
    <contour>
      <point x="552" y="9" type="line"/>
      <point x="552" y="501" type="line"/>
      <point x="701" y="501" type="line"/>
      <point x="701" y="9" type="line"/>
    </contour>
    <contour>
      <point x="-60" y="500" type="line"/>
      <point x="-60" y="607" type="line"/>
      <point x="801" y="607" type="line"/>
      <point x="801" y="500" type="line"/>
    </contour>
    <contour>
      <point x="40" y="331" type="curve" smooth="yes"/>
      <point x="40" y="518" type="line"/>
      <point x="184" y="518" type="line"/>
      <point x="184" y="306" type="line" smooth="yes"/>
      <point x="184" y="236"/>
      <point x="198" y="217"/>
      <point x="246" y="217" type="curve" smooth="yes"/>
      <point x="294" y="217"/>
      <point x="308" y="236"/>
      <point x="308" y="306" type="curve" smooth="yes"/>
      <point x="308" y="518" type="line"/>
      <point x="452" y="518" type="line"/>
      <point x="452" y="331" type="line" smooth="yes"/>
      <point x="452" y="154"/>
      <point x="416" y="95"/>
      <point x="246" y="95" type="curve" smooth="yes"/>
      <point x="76" y="95"/>
      <point x="40" y="154"/>
    </contour>
  </outline>
</glyph>
<glyph name="dvDHA" format="2">
  <advance width="643"/>
  <unicode hex="0927"/>
  <outline>
    <contour>
      <point x="434" y="9" type="line"/>
      <point x="434" y="501" type="line"/>
      <point x="583" y="501" type="line"/>
      <point x="583" y="9" type="line"/>
    </contour>
    <contour>
      <point x="434" y="500" type="line"/>
      <point x="434" y="607" type="line"/>
      <point x="683" y="607" type="line"/>
      <point x="683" y="500" type="line"/>
    </contour>
    <contour>
      <point x="-65" y="500" type="line"/>
      <point x="-65" y="607" type="line"/>
      <point x="329" y="607" type="line"/>
      <point x="329" y="500" type="line"/>
    </contour>
    <contour>
      <point x="39" y="436" type="curve" smooth="yes"/>
      <point x="39" y="465"/>
      <point x="50" y="484"/>
      <point x="69" y="497" type="curve"/>
      <point x="69" y="501" type="line"/>
      <point x="260" y="606" type="line"/>
      <point x="260" y="500" type="line"/>
      <point x="197" y="500"/>
      <point x="185" y="483"/>
      <point x="185" y="447" type="curve" smooth="yes"/>
      <point x="185" y="411"/>
      <point x="207" y="395"/>
      <point x="290" y="395" type="curve" smooth="yes"/>
      <point x="319" y="395" type="line"/>
      <point x="319" y="280" type="line"/>
      <point x="290" y="280" type="line" smooth="yes"/>
      <point x="215" y="280"/>
      <point x="193" y="268"/>
      <point x="193" y="228" type="curve" smooth="yes"/>
      <point x="193" y="190"/>
      <point x="215" y="177"/>
      <point x="300" y="177" type="curve" smooth="yes"/>
      <point x="342" y="177"/>
      <point x="419" y="189"/>
      <point x="440" y="207" type="curve"/>
      <point x="457" y="98" type="line"/>
      <point x="434" y="83" type="line"/>
      <point x="431" y="85" type="line"/>
      <point x="388" y="66"/>
      <point x="322" y="54"/>
      <point x="249" y="54" type="curve" smooth="yes"/>
      <point x="108" y="54"/>
      <point x="48" y="105"/>
      <point x="48" y="216" type="curve" smooth="yes"/>
      <point x="48" y="281"/>
      <point x="89" y="330"/>
      <point x="163" y="334" type="curve"/>
      <point x="163" y="338" type="line"/>
      <point x="85" y="341"/>
      <point x="39" y="378"/>
    </contour>
  </outline>
</glyph>
<glyph name="dvNA" format="2">
  <advance width="586"/>
  <unicode hex="0928"/>
  <outline>
    <contour>
      <point x="377" y="9" type="line"/>
      <point x="377" y="501" type="line"/>
      <point x="526" y="501" type="line"/>
      <point x="526" y="9" type="line"/>
    </contour>
    <contour>
      <point x="-60" y="500" type="line"/>
      <point x="-60" y="607" type="line"/>
      <point x="626" y="607" type="line"/>
      <point x="626" y="500" type="line"/>
    </contour>
    <contour>
      <point x="137" y="228" type="line"/>
      <point x="137" y="340" type="line"/>
      <point x="495" y="341" type="line"/>
      <point x="495" y="229" type="line"/>
    </contour>
    <contour>
      <point x="125" y="340" type="curve"/>
      <point x="225" y="340" type="line"/>
      <point x="225" y="251" type="line" smooth="yes"/>
      <point x="225" y="164"/>
      <point x="205" y="154"/>
      <point x="122" y="154" type="curve" smooth="yes"/>
      <point x="42" y="154"/>
      <point x="22" y="171"/>
      <point x="22" y="247" type="curve" smooth="yes"/>
      <point x="22" y="329"/>
      <point x="43" y="340"/>
    </contour>
  </outline>
</glyph>
<glyph name="dvBA" format="2">
  <advance width="636"/>
  <unicode hex="092C"/>
  <outline>
    <contour>
      <point x="-50" y="500" type="line"/>
      <point x="-50" y="607" type="line"/>
      <point x="676" y="607" type="line"/>
      <point x="676" y="500" type="line"/>
    </contour>
    <contour>
      <point x="264" y="64" type="curve" smooth="yes"/>
      <point x="99" y="64"/>
      <point x="30" y="113"/>
      <point x="30" y="252" type="curve" smooth="yes"/>
      <point x="30" y="392"/>
      <point x="94" y="439"/>
      <point x="216" y="439" type="curve" smooth="yes"/>
      <point x="263" y="439"/>
      <point x="334" y="433"/>
      <point x="371" y="422" type="curve"/>
      <point x="371" y="319" type="line"/>
      <point x="367" y="318" type="line"/>
      <point x="345" y="324"/>
      <point x="293" y="332"/>
      <point x="258" y="332" type="curve" smooth="yes"/>
      <point x="182" y="332"/>
      <point x="162" y="315"/>
      <point x="162" y="254" type="curve" smooth="yes"/>
      <point x="162" y="190"/>
      <point x="196" y="173"/>
      <point x="290" y="173" type="curve" smooth="yes"/>
      <point x="342" y="173"/>
      <point x="405" y="182"/>
      <point x="441" y="201" type="curve"/>
      <point x="454" y="96" type="line"/>
      <point x="429" y="90" type="line"/>
      <point x="427" y="91" type="line"/>
      <point x="392" y="74"/>
      <point x="338" y="64"/>
    </contour>
    <contour>
      <point x="429" y="9" type="line"/>
      <point x="429" y="501" type="line"/>
      <point x="577" y="501" type="line"/>
      <point x="577" y="9" type="line"/>
    </contour>
    <contour>
      <point x="411" y="127" type="line"/>
      <point x="344" y="176" type="line"/>
      <point x="344" y="177" type="line"/>
      <point x="170" y="297" type="line"/>
      <point x="166" y="297" type="line"/>
      <point x="205" y="350" type="line"/>
      <point x="232" y="331" type="line"/>
      <point x="232" y="330" type="line"/>
      <point x="451" y="178" type="line"/>
    </contour>
  </outline>
</glyph>
<glyph name="dvBHA" format="2">
  <advance width="616"/>
  <unicode hex="092D"/>
  <outline>
    <contour>
      <point x="407" y="9" type="line"/>
      <point x="407" y="501" type="line"/>
      <point x="556" y="501" type="line"/>
      <point x="556" y="9" type="line"/>
    </contour>
    <contour>
      <point x="407" y="500" type="line"/>
      <point x="407" y="607" type="line"/>
      <point x="656" y="607" type="line"/>
      <point x="656" y="500" type="line"/>
    </contour>
    <contour>
      <point x="139" y="168" type="line"/>
      <point x="139" y="280" type="line"/>
      <point x="512" y="280" type="line"/>
      <point x="512" y="168" type="line"/>
    </contour>
    <contour>
      <point x="53" y="500" type="curve" smooth="yes"/>
      <point x="-70" y="500" type="line"/>
      <point x="-70" y="607" type="line"/>
      <point x="90" y="607" type="line" smooth="yes"/>
      <point x="215" y="607"/>
      <point x="252" y="558"/>
      <point x="252" y="422" type="curve" smooth="yes"/>
      <point x="252" y="196" type="line" smooth="yes"/>
      <point x="252" y="109"/>
      <point x="234" y="94"/>
      <point x="142" y="94" type="curve" smooth="yes"/>
      <point x="45" y="94"/>
      <point x="23" y="113"/>
      <point x="23" y="187" type="curve" smooth="yes"/>
      <point x="23" y="262"/>
      <point x="44" y="280"/>
      <point x="104" y="280" type="curve"/>
      <point x="104" y="433" type="line" smooth="yes"/>
      <point x="104" y="482"/>
      <point x="96" y="500"/>
    </contour>
  </outline>
</glyph>
<glyph name="dvRA" format="2">
  <advance width="412"/>
  <unicode hex="0930"/>
  <outline>
    <contour>
      <point x="29" y="211" type="line"/>
      <point x="111" y="254" type="line"/>
      <point x="130" y="240"/>
      <point x="156" y="234"/>
      <point x="179" y="234" type="curve" smooth="yes"/>
      <point x="277" y="234"/>
      <point x="351" y="280"/>
      <point x="351" y="382" type="curve" smooth="yes"/>
      <point x="351" y="572" type="line"/>
      <point x="206" y="573" type="line"/>
      <point x="206" y="399" type="line" smooth="yes"/>
      <point x="206" y="345"/>
      <point x="149" y="327"/>
      <point x="81" y="327" type="curve" smooth="yes"/>
      <point x="29" y="327" type="line"/>
    </contour>
    <contour>
      <point x="-30" y="500" type="line"/>
      <point x="451" y="500" type="line"/>
      <point x="451" y="607" type="line"/>
      <point x="-30" y="607" type="line"/>
    </contour>
    <contour>
      <point x="217" y="6" type="line"/>
      <point x="390" y="6" type="line"/>
      <point x="390" y="11" type="line"/>
      <point x="312" y="110"/>
      <point x="238" y="184"/>
      <point x="167" y="231" type="curve"/>
      <point x="167" y="235" type="line"/>
      <point x="128" y="256" type="line"/>
      <point x="29" y="248" type="line"/>
      <point x="29" y="211" type="line"/>
    </contour>
  </outline>
</glyph>
<glyph name="dvVA" format="2">
  <advance width="611"/>
  <unicode hex="0935"/>
  <outline>
    <contour>
      <point x="213" y="439" type="curve" smooth="yes"/>
      <point x="263" y="439"/>
      <point x="306" y="433"/>
      <point x="345" y="423" type="curve"/>
      <point x="345" y="308" type="line"/>
      <point x="341" y="307" type="line"/>
      <point x="318" y="312"/>
      <point x="289" y="315"/>
      <point x="258" y="315" type="curve" smooth="yes"/>
      <point x="195" y="315"/>
      <point x="175" y="303"/>
      <point x="175" y="246" type="curve" smooth="yes"/>
      <point x="175" y="188"/>
      <point x="205" y="176"/>
      <point x="286" y="176" type="curve" smooth="yes"/>
      <point x="340" y="176"/>
      <point x="377" y="184"/>
      <point x="411" y="203" type="curve"/>
      <point x="438" y="96" type="line"/>
      <point x="404" y="83" type="line"/>
      <point x="400" y="85" type="line"/>
      <point x="363" y="67"/>
      <point x="302" y="56"/>
      <point x="247" y="56" type="curve" smooth="yes"/>
      <point x="85" y="56"/>
      <point x="25" y="111"/>
      <point x="25" y="251" type="curve" smooth="yes"/>
      <point x="25" y="385"/>
      <point x="85" y="439"/>
    </contour>
    <contour>
      <point x="403" y="9" type="line"/>
      <point x="403" y="501" type="line"/>
      <point x="551" y="501" type="line"/>
      <point x="551" y="9" type="line"/>
    </contour>
    <contour>
      <point x="-10" y="500" type="line"/>
      <point x="-10" y="607" type="line"/>
      <point x="651" y="607" type="line"/>
      <point x="651" y="500" type="line"/>
    </contour>
  </outline>
</glyph>
<glyph name="dvSHA" format="2">
  <advance width="714"/>
  <unicode hex="0936"/>
  <outline>
    <contour>
      <point x="506" y="9" type="line"/>
      <point x="506" y="501" type="line"/>
      <point x="654" y="501" type="line"/>
      <point x="654" y="9" type="line"/>
    </contour>
    <contour>
      <point x="506" y="500" type="line"/>
      <point x="506" y="607" type="line"/>
      <point x="754" y="607" type="line"/>
      <point x="754" y="500" type="line"/>
    </contour>
    <contour>
      <point x="186" y="434" type="curve"/>
      <point x="186" y="432" type="line"/>
      <point x="64" y="432" type="line"/>
      <point x="62" y="441"/>
      <point x="60" y="455"/>
      <point x="60" y="467" type="curve" smooth="yes"/>
      <point x="60" y="563"/>
      <point x="116" y="615"/>
      <point x="241" y="615" type="curve" smooth="yes"/>
      <point x="366" y="615"/>
      <point x="422" y="557"/>
      <point x="422" y="433" type="curve" smooth="yes"/>
      <point x="422" y="317"/>
      <point x="347" y="230"/>
      <point x="194" y="230" type="curve" smooth="yes"/>
      <point x="176" y="230"/>
      <point x="177" y="231"/>
      <point x="156" y="235" type="curve"/>
      <point x="40" y="224" type="line"/>
      <point x="40" y="343" type="line"/>
      <point x="135" y="343" type="line"/>
      <point x="242" y="343"/>
      <point x="288" y="383"/>
      <point x="288" y="442" type="curve" smooth="yes"/>
      <point x="288" y="487"/>
      <point x="273" y="506"/>
      <point x="236" y="506" type="curve" smooth="yes"/>
      <point x="198" y="506"/>
      <point x="183" y="487"/>
      <point x="183" y="457" type="curve" smooth="yes"/>
      <point x="183" y="448"/>
      <point x="184" y="440"/>
    </contour>
    <contour>
      <point x="246" y="9" type="line"/>
      <point x="40" y="223" type="line"/>
      <point x="40" y="250" type="line"/>
      <point x="187" y="232" type="line"/>
      <point x="187" y="228" type="line"/>
      <point x="270" y="173"/>
      <point x="348" y="100"/>
      <point x="424" y="11" type="curve"/>
      <point x="424" y="9" type="line"/>
    </contour>
  </outline>
</glyph>
<glyph name="dvSSA" format="2">
  <advance width="589"/>
  <unicode hex="0937"/>
  <outline>
    <contour>
      <point x="389" y="257" type="line"/>
      <point x="144" y="427" type="line"/>
      <point x="183" y="485" type="line"/>
      <point x="429" y="313" type="line"/>
    </contour>
    <contour>
      <point x="388" y="9" type="line"/>
      <point x="388" y="501" type="line"/>
      <point x="529" y="501" type="line"/>
      <point x="529" y="9" type="line"/>
    </contour>
    <contour>
      <point x="-50" y="500" type="line"/>
      <point x="-50" y="607" type="line"/>
      <point x="629" y="607" type="line"/>
      <point x="629" y="500" type="line"/>
    </contour>
    <contour>
      <point x="246" y="100" type="curve" smooth="yes"/>
      <point x="96" y="100"/>
      <point x="50" y="148"/>
      <point x="50" y="317" type="curve" smooth="yes"/>
      <point x="50" y="513" type="line"/>
      <point x="186" y="514" type="line"/>
      <point x="186" y="302" type="line" smooth="yes"/>
      <point x="186" y="239"/>
      <point x="219" y="219"/>
      <point x="294" y="219" type="curve" smooth="yes"/>
      <point x="335" y="219"/>
      <point x="364" y="225"/>
      <point x="390" y="240" type="curve"/>
      <point x="394" y="125" type="line"/>
      <point x="388" y="120" type="line"/>
      <point x="384" y="122" type="line"/>
      <point x="346" y="107"/>
      <point x="298" y="100"/>
    </contour>
  </outline>
</glyph>
<glyph name="dvmAA" format="2">
  <advance width="268"/>
  <unicode hex="093E"/>
  <anchor x="208" y="607" name="abvm.bindu"/>
  <anchor x="211" y="607" name="abvm.e"/>
  <outline>
    <contour>
      <point x="60" y="9" type="line"/>
      <point x="60" y="501" type="line"/>
      <point x="208" y="501" type="line"/>
      <point x="208" y="9" type="line"/>
    </contour>
    <contour>
      <point x="-40" y="500" type="line"/>
      <point x="-40" y="607" type="line"/>
      <point x="308" y="607" type="line"/>
      <point x="308" y="500" type="line"/>
    </contour>
  </outline>
</glyph>
<glyph name="dvmU" format="2">
  <unicode hex="0941"/>
  <anchor x="-180" y="-77" name="_blwm.u"/>
  <outline>
    <contour>
      <point x="-490" y="-126" type="curve"/>
      <point x="-490" y="-119" type="line"/>
      <point x="-358" y="-119" type="line"/>
      <point x="-327" y="-168"/>
      <point x="-278" y="-190"/>
      <point x="-205" y="-190" type="curve" smooth="yes"/>
      <point x="-154" y="-190"/>
      <point x="-138" y="-184"/>
      <point x="-138" y="-158" type="curve" smooth="yes"/>
      <point x="-138" y="-130"/>
      <point x="-154" y="-125"/>
      <point x="-183" y="-125" type="curve" smooth="yes"/>
      <point x="-202" y="-125"/>
      <point x="-227" y="-128"/>
      <point x="-241" y="-131" type="curve"/>
      <point x="-245" y="-128" type="line"/>
      <point x="-264" y="-44" type="line"/>
      <point x="-240" y="-35"/>
      <point x="-194" y="-27"/>
      <point x="-156" y="-27" type="curve" smooth="yes"/>
      <point x="-60" y="-27"/>
      <point x="-10" y="-52"/>
      <point x="-10" y="-164" type="curve" smooth="yes"/>
      <point x="-10" y="-258"/>
      <point x="-47" y="-298"/>
      <point x="-194" y="-298" type="curve" smooth="yes"/>
      <point x="-363" y="-298"/>
      <point x="-447" y="-232"/>
    </contour>
  </outline>
</glyph>
<glyph name="dvmOcandra" format="2">
  <advance width="268"/>
  <unicode hex="0949"/>
  <outline>
    <contour>
      <point x="60" y="9" type="line"/>
      <point x="60" y="501" type="line"/>
      <point x="208" y="501" type="line"/>
      <point x="208" y="9" type="line"/>
    </contour>
    <contour>
      <point x="-40" y="500" type="line"/>
      <point x="-40" y="607" type="line"/>
      <point x="308" y="607" type="line"/>
      <point x="308" y="500" type="line"/>
    </contour>
    <contour>
      <point x="216" y="837" type="curve"/>
      <point x="345" y="837" type="line"/>
      <point x="345" y="704"/>
      <point x="312" y="674"/>
      <point x="136" y="674" type="curve" smooth="yes"/>
      <point x="-51" y="674"/>
      <point x="-77" y="704"/>
      <point x="-77" y="837" type="curve"/>
      <point x="53" y="837" type="line"/>
      <point x="53" y="789"/>
      <point x="61" y="781"/>
      <point x="136" y="780" type="curve" smooth="yes"/>
      <point x="211" y="779"/>
      <point x="216" y="789"/>
    </contour>
  </outline>
</glyph>
<glyph name="dvAbbreviationsign" format="2">
  <advance width="582"/>
  <unicode hex="0970"/>
  <outline>
    <contour>
      <point x="291" y="118" type="curve" smooth="yes"/>
      <point x="426" y="118"/>
      <point x="482" y="186"/>
      <point x="482" y="297" type="curve" smooth="yes"/>
      <point x="482" y="408"/>
      <point x="426" y="476"/>
      <point x="291" y="476" type="curve" smooth="yes"/>
      <point x="156" y="476"/>
      <point x="100" y="408"/>
      <point x="100" y="297" type="curve" smooth="yes"/>
      <point x="100" y="186"/>
      <point x="156" y="118"/>
    </contour>
    <contour>
      <point x="376" y="297" type="curve" smooth="yes"/>
      <point x="376" y="244"/>
      <point x="357" y="215"/>
      <point x="291" y="215" type="curve" smooth="yes"/>
      <point x="225" y="215"/>
      <point x="206" y="244"/>
      <point x="206" y="297" type="curve" smooth="yes"/>
      <point x="206" y="350"/>
      <point x="225" y="378"/>
      <point x="291" y="378" type="curve" smooth="yes"/>
      <point x="357" y="378"/>
      <point x="376" y="350"/>
    </contour>
  </outline>
</glyph>
<glyph name="endash" format="2">
  <advance width="563"/>
  <unicode hex="2013"/>
  <note>
endash
</note>
  <outline>
    <contour>
      <point x="40" y="374" type="line"/>
      <point x="40" y="274" type="line"/>
      <point x="523" y="274" type="line"/>
      <point x="523" y="374" type="line"/>
    </contour>
  </outline>
</glyph>
<glyph name="emdash" format="2">
  <advance width="826"/>
  <unicode hex="2014"/>
  <note>
emdash
</note>
  <outline>
    <contour>
      <point x="30" y="393" type="line"/>
      <point x="30" y="293" type="line"/>
      <point x="796" y="293" type="line"/>
      <point x="796" y="393" type="line"/>
    </contour>
  </outline>
</glyph>
<glyph name="quotesinglbase" format="2">
  <advance width="241"/>
  <unicode hex="201A"/>
  <note>
quotesinglbase
</note>
  <outline>
    <contour>
      <point x="80" y="-91" type="curve"/>
      <point x="79" y="-92" type="line"/>
      <point x="79" y="-146" type="line"/>
      <point x="87" y="-147"/>
      <point x="93" y="-148"/>
      <point x="100" y="-148" type="curve" smooth="yes"/>
      <point x="173" y="-148"/>
      <point x="215" y="-117"/>
      <point x="215" y="-19" type="curve" smooth="yes"/>
      <point x="215" y="56"/>
      <point x="187" y="97"/>
      <point x="117" y="97" type="curve" smooth="yes"/>
      <point x="49" y="97"/>
      <point x="26" y="70"/>
      <point x="26" y="20" type="curve" smooth="yes"/>
      <point x="26" y="-28"/>
      <point x="53" y="-54"/>
      <point x="104" y="-54" type="curve" smooth="yes"/>
      <point x="126" y="-54"/>
      <point x="143" y="-50"/>
      <point x="153" y="-44" type="curve"/>
      <point x="154" y="-45" type="line"/>
      <point x="154" y="-80"/>
      <point x="134" y="-92"/>
      <point x="94" y="-92" type="curve" smooth="yes"/>
      <point x="89" y="-92"/>
      <point x="86" y="-92"/>
    </contour>
  </outline>
</glyph>
<glyph name="daggerdbl" format="2">
  <advance width="465"/>
  <unicode hex="2021"/>
  <outline>
    <contour>
      <point x="355" y="421" type="curve" smooth="yes"/>
      <point x="445" y="421" type="line"/>
      <point x="445" y="551" type="line"/>
      <point x="356" y="551" type="line" smooth="yes"/>
      <point x="333" y="551"/>
      <point x="320" y="550"/>
      <point x="307" y="543" type="curve"/>
      <point x="306" y="544" type="line"/>
      <point x="312" y="556"/>
      <point x="313" y="580"/>
      <point x="313" y="593" type="curve" smooth="yes"/>
      <point x="313" y="682" type="line"/>
      <point x="153" y="682" type="line"/>
      <point x="153" y="593" type="line" smooth="yes"/>
      <point x="153" y="580"/>
      <point x="154" y="556"/>
      <point x="160" y="544" type="curve"/>
      <point x="159" y="543" type="line"/>
      <point x="146" y="550"/>
      <point x="133" y="551"/>
      <point x="110" y="551" type="curve" smooth="yes"/>
      <point x="20" y="551" type="line"/>
      <point x="20" y="421" type="line"/>
      <point x="110" y="421" type="line" smooth="yes"/>
      <point x="133" y="421"/>
      <point x="146" y="422"/>
      <point x="159" y="429" type="curve"/>
      <point x="160" y="428" type="line"/>
      <point x="154" y="416"/>
      <point x="153" y="392"/>
      <point x="153" y="379" type="curve" smooth="yes"/>
      <point x="153" y="126" type="line" smooth="yes"/>
      <point x="153" y="113"/>
      <point x="154" y="89"/>
      <point x="160" y="77" type="curve"/>
      <point x="159" y="76" type="line"/>
      <point x="146" y="83"/>
      <point x="133" y="84"/>
      <point x="110" y="84" type="curve" smooth="yes"/>
      <point x="20" y="84" type="line"/>
      <point x="20" y="-46" type="line"/>
      <point x="110" y="-46" type="line" smooth="yes"/>
      <point x="133" y="-46"/>
      <point x="146" y="-45"/>
      <point x="159" y="-38" type="curve"/>
      <point x="160" y="-39" type="line"/>
      <point x="154" y="-51"/>
      <point x="153" y="-75"/>
      <point x="153" y="-88" type="curve" smooth="yes"/>
      <point x="153" y="-177" type="line"/>
      <point x="313" y="-177" type="line"/>
      <point x="313" y="-88" type="line" smooth="yes"/>
      <point x="313" y="-75"/>
      <point x="312" y="-51"/>
      <point x="306" y="-39" type="curve"/>
      <point x="307" y="-38" type="line"/>
      <point x="320" y="-45"/>
      <point x="333" y="-46"/>
      <point x="356" y="-46" type="curve" smooth="yes"/>
      <point x="445" y="-46" type="line"/>
      <point x="445" y="84" type="line"/>
      <point x="355" y="84" type="line" smooth="yes"/>
      <point x="332" y="84"/>
      <point x="319" y="83"/>
      <point x="306" y="76" type="curve"/>
      <point x="305" y="77" type="line"/>
      <point x="311" y="89"/>
      <point x="312" y="113"/>
      <point x="312" y="126" type="curve" smooth="yes"/>
      <point x="312" y="379" type="line" smooth="yes"/>
      <point x="312" y="392"/>
      <point x="311" y="416"/>
      <point x="305" y="428" type="curve"/>
      <point x="306" y="429" type="line"/>
      <point x="319" y="422"/>
      <point x="332" y="421"/>
    </contour>
  </outline>
</glyph>
<glyph name="bullet" format="2">
  <advance width="373"/>
  <unicode hex="2022"/>
  <note>
bullet
</note>
  <outline>
    <contour>
      <point x="336" y="414" type="curve"/>
      <point x="286" y="422"/>
      <point x="236" y="427"/>
      <point x="187" y="427" type="curve" smooth="yes"/>
      <point x="137" y="427"/>
      <point x="87" y="422"/>
      <point x="38" y="414" type="curve"/>
      <point x="32" y="370"/>
      <point x="30" y="337"/>
      <point x="30" y="306" type="curve" smooth="yes"/>
      <point x="30" y="274"/>
      <point x="32" y="239"/>
      <point x="38" y="200" type="curve"/>
      <point x="87" y="191"/>
      <point x="137" y="184"/>
      <point x="187" y="184" type="curve" smooth="yes"/>
      <point x="236" y="184"/>
      <point x="283" y="191"/>
      <point x="336" y="200" type="curve"/>
      <point x="341" y="241"/>
      <point x="343" y="274"/>
      <point x="343" y="306" type="curve" smooth="yes"/>
      <point x="343" y="337"/>
      <point x="341" y="370"/>
    </contour>
  </outline>
</glyph>
<glyph name="guilsinglleft" format="2">
  <advance width="255"/>
  <unicode hex="2039"/>
  <note>
guilsinglleft
</note>
  <outline>
    <contour>
      <point x="-10" y="237" type="line"/>
      <point x="119" y="43" type="line"/>
      <point x="255" y="43" type="line"/>
      <point x="124" y="237" type="line"/>
      <point x="255" y="433" type="line"/>
      <point x="119" y="433" type="line"/>
    </contour>
  </outline>
</glyph>
<glyph name="fraction" format="2">
  <advance width="434"/>
  <unicode hex="2044"/>
  <note>
fraction
</note>
  <outline>
    <contour>
      <point x="309" y="722" type="line"/>
      <point x="-20" y="-101" type="line"/>
      <point x="125" y="-101" type="line"/>
      <point x="454" y="722" type="line"/>
    </contour>
  </outline>
</glyph>
<glyph name="minus" format="2">
  <advance width="362"/>
  <unicode hex="2212"/>
  <note>
minus
</note>
  <outline>
    <contour>
      <point x="30" y="390" type="line"/>
      <point x="30" y="265" type="line"/>
      <point x="332" y="265" type="line"/>
      <point x="332" y="390" type="line"/>
    </contour>
  </outline>
</glyph>
<glyph name="infinity" format="2">
  <advance width="709"/>
  <unicode hex="221E"/>
  <note>
infinity
</note>
  <outline>
    <contour>
      <point x="504" y="149" type="curve" smooth="yes"/>
      <point x="629" y="147"/>
      <point x="679" y="224"/>
      <point x="679" y="316" type="curve" smooth="yes"/>
      <point x="679" y="407"/>
      <point x="629" y="483"/>
      <point x="504" y="483" type="curve" smooth="yes"/>
      <point x="438" y="483"/>
      <point x="381" y="457"/>
      <point x="351" y="408" type="curve"/>
      <point x="321" y="457"/>
      <point x="272" y="483"/>
      <point x="206" y="483" type="curve" smooth="yes"/>
      <point x="70" y="483"/>
      <point x="31" y="407"/>
      <point x="30" y="316" type="curve" smooth="yes"/>
      <point x="29" y="224"/>
      <point x="70" y="149"/>
      <point x="206" y="149" type="curve" smooth="yes"/>
      <point x="272" y="149"/>
      <point x="321" y="174"/>
      <point x="351" y="223" type="curve"/>
      <point x="380" y="174"/>
      <point x="436" y="150"/>
    </contour>
    <contour>
      <point x="209" y="258" type="curve" smooth="yes"/>
      <point x="163" y="258"/>
      <point x="145" y="277"/>
      <point x="144" y="315" type="curve" smooth="yes"/>
      <point x="143" y="353"/>
      <point x="163" y="374"/>
      <point x="209" y="374" type="curve" smooth="yes"/>
      <point x="247" y="374"/>
      <point x="275" y="348"/>
      <point x="303" y="315" type="curve"/>
      <point x="275" y="282"/>
      <point x="247" y="258"/>
    </contour>
    <contour>
      <point x="501" y="258" type="curve" smooth="yes"/>
      <point x="463" y="258"/>
      <point x="435" y="282"/>
      <point x="407" y="315" type="curve"/>
      <point x="435" y="348"/>
      <point x="463" y="374"/>
      <point x="501" y="374" type="curve" smooth="yes"/>
      <point x="545" y="374"/>
      <point x="566" y="353"/>
      <point x="566" y="315" type="curve" smooth="yes"/>
      <point x="566" y="277"/>
      <point x="545" y="258"/>
    </contour>
  </outline>
</glyph>
<glyph name="lessequal" format="2">
  <advance width="581"/>
  <unicode hex="2264"/>
  <note>
lessequal
</note>
  <outline>
    <contour>
      <point x="40" y="129" type="line"/>
      <point x="40" y="9" type="line"/>
      <point x="541" y="9" type="line"/>
      <point x="541" y="129" type="line"/>
    </contour>
    <contour>
      <point x="40" y="479" type="line"/>
      <point x="40" y="296" type="line"/>
      <point x="541" y="171" type="line"/>
      <point x="541" y="302" type="line"/>
      <point x="195" y="387" type="line"/>
      <point x="195" y="388" type="line"/>
      <point x="541" y="473" type="line"/>
      <point x="541" y="604" type="line"/>
    </contour>
  </outline>
</glyph>
<glyph name="lozenge" format="2">
  <advance width="513"/>
  <unicode hex="25CA"/>
  <outline>
    <contour>
      <point x="165" y="9" type="line"/>
      <point x="348" y="9" type="line"/>
      <point x="473" y="346" type="line"/>
      <point x="342" y="346" type="line"/>
      <point x="257" y="113" type="line"/>
      <point x="256" y="113" type="line"/>
      <point x="171" y="346" type="line"/>
      <point x="40" y="346" type="line"/>
    </contour>
    <contour>
      <point x="165" y="682" type="line"/>
      <point x="40" y="345" type="line"/>
      <point x="171" y="345" type="line"/>
      <point x="256" y="578" type="line"/>
      <point x="257" y="578" type="line"/>
      <point x="342" y="345" type="line"/>
      <point x="473" y="345" type="line"/>
      <point x="348" y="682" type="line"/>
    </contour>
  </outline>
</glyph>
<glyph name="dvBH" format="2">
  <advance width="392"/>
  <outline>
    <contour>
      <point x="139" y="168" type="line"/>
      <point x="139" y="280" type="line"/>
      <point x="512" y="280" type="line"/>
      <point x="512" y="168" type="line"/>
    </contour>
    <contour>
      <point x="53" y="500" type="curve" smooth="yes"/>
      <point x="-70" y="500" type="line"/>
      <point x="-70" y="607" type="line"/>
      <point x="90" y="607" type="line" smooth="yes"/>
      <point x="215" y="607"/>
      <point x="252" y="558"/>
      <point x="252" y="422" type="curve" smooth="yes"/>
      <point x="252" y="196" type="line" smooth="yes"/>
      <point x="252" y="109"/>
      <point x="235" y="94"/>
      <point x="143" y="94" type="curve" smooth="yes"/>
      <point x="46" y="94"/>
      <point x="23" y="113"/>
      <point x="23" y="187" type="curve" smooth="yes"/>
      <point x="23" y="262"/>
      <point x="44" y="280"/>
      <point x="104" y="280" type="curve"/>
      <point x="104" y="433" type="line" smooth="yes"/>
      <point x="104" y="482"/>
      <point x="96" y="500"/>
    </contour>
  </outline>
</glyph>
<glyph name="dvBH_LA" format="2">
  <advance width="1186"/>
  <outline>
    <contour>
      <point x="139" y="168" type="line"/>
      <point x="139" y="280" type="line"/>
      <point x="512" y="280" type="line"/>
      <point x="512" y="168" type="line"/>
    </contour>
    <contour>
      <point x="53" y="500" type="curve" smooth="yes"/>
      <point x="-70" y="500" type="line"/>
      <point x="-70" y="607" type="line"/>
      <point x="90" y="607" type="line" smooth="yes"/>
      <point x="215" y="607"/>
      <point x="252" y="558"/>
      <point x="252" y="422" type="curve" smooth="yes"/>
      <point x="252" y="196" type="line" smooth="yes"/>
      <point x="252" y="109"/>
      <point x="235" y="94"/>
      <point x="143" y="94" type="curve" smooth="yes"/>
      <point x="46" y="94"/>
      <point x="23" y="113"/>
      <point x="23" y="187" type="curve" smooth="yes"/>
      <point x="23" y="262"/>
      <point x="44" y="280"/>
      <point x="104" y="280" type="curve"/>
      <point x="104" y="433" type="line" smooth="yes"/>
      <point x="104" y="482"/>
      <point x="96" y="500"/>
    </contour>
    <contour>
      <point x="486" y="9" type="line"/>
      <point x="447" y="81"/>
      <point x="425" y="159"/>
      <point x="425" y="236" type="curve" smooth="yes"/>
      <point x="425" y="366"/>
      <point x="489" y="420"/>
      <point x="610" y="420" type="curve" smooth="yes"/>
      <point x="715" y="420"/>
      <point x="762" y="383"/>
      <point x="771" y="326" type="curve"/>
      <point x="774" y="326" type="line"/>
      <point x="784" y="383"/>
      <point x="818" y="419"/>
      <point x="904" y="419" type="curve" smooth="yes"/>
      <point x="935" y="419"/>
      <point x="960" y="410"/>
      <point x="975" y="393" type="curve"/>
      <point x="977" y="395" type="line"/>
      <point x="991" y="393"/>
      <point x="1023" y="374"/>
      <point x="1027" y="358" type="curve"/>
      <point x="1096" y="333"/>
      <point x="1096" y="317"/>
      <point x="1098" y="193" type="curve"/>
      <point x="978" y="193" type="line"/>
      <point x="978" y="277"/>
      <point x="959" y="294"/>
      <point x="912" y="294" type="curve" smooth="yes"/>
      <point x="861" y="294"/>
      <point x="844" y="277"/>
      <point x="844" y="193" type="curve" smooth="yes"/>
      <point x="844" y="126" type="line"/>
      <point x="712" y="126" type="line"/>
      <point x="712" y="193" type="line" smooth="yes"/>
      <point x="712" y="274"/>
      <point x="691" y="294"/>
      <point x="644" y="294" type="curve" smooth="yes"/>
      <point x="592" y="294"/>
      <point x="573" y="270"/>
      <point x="573" y="203" type="curve" smooth="yes"/>
      <point x="573" y="138"/>
      <point x="589" y="79"/>
      <point x="628" y="14" type="curve"/>
      <point x="628" y="9" type="line"/>
    </contour>
    <contour>
      <point x="977" y="9" type="line"/>
      <point x="977" y="501" type="line"/>
      <point x="1126" y="501" type="line"/>
      <point x="1126" y="9" type="line"/>
    </contour>
    <contour>
      <point x="352" y="500" type="line"/>
      <point x="352" y="607" type="line"/>
      <point x="1226" y="607" type="line"/>
      <point x="1226" y="500" type="line"/>
    </contour>
  </outline>
</glyph>
<glyph name="dvBH_R_YA" format="2">
  <advance width="1090"/>
  <outline>
    <contour>
      <point x="712" y="76" type="curve" smooth="yes"/>
      <point x="779" y="76"/>
      <point x="831" y="84"/>
      <point x="878" y="100" type="curve"/>
      <point x="882" y="98" type="line"/>
      <point x="915" y="110"/>
      <point x="937" y="125"/>
      <point x="962" y="146" type="curve"/>
      <point x="931" y="257" type="line"/>
      <point x="877" y="216"/>
      <point x="814" y="200"/>
      <point x="726" y="200" type="curve" smooth="yes"/>
      <point x="616" y="200"/>
      <point x="570" y="220"/>
      <point x="569" y="260" type="curve"/>
      <point x="690" y="267"/>
      <point x="733" y="310"/>
      <point x="733" y="412" type="curve" smooth="yes"/>
      <point x="733" y="520" type="line"/>
      <point x="591" y="520" type="line"/>
      <point x="591" y="454" type="line" smooth="yes"/>
      <point x="591" y="369"/>
      <point x="576" y="357"/>
      <point x="483" y="357" type="curve" smooth="yes"/>
      <point x="435" y="357" type="line"/>
      <point x="435" y="302" type="line" smooth="yes"/>
      <point x="435" y="149"/>
      <point x="531" y="76"/>
    </contour>
    <contour>
      <point x="188" y="1" type="curve"/>
      <point x="188" y="-3" type="line"/>
      <point x="374" y="-3" type="line"/>
      <point x="495" y="179" type="line"/>
      <point x="430" y="266" type="line"/>
      <point x="339" y="193"/>
      <point x="241" y="80"/>
    </contour>
    <contour>
      <point x="142" y="172" type="curve" smooth="yes"/>
      <point x="234" y="172"/>
      <point x="252" y="187"/>
      <point x="252" y="274" type="curve" smooth="yes"/>
      <point x="252" y="422" type="line" smooth="yes"/>
      <point x="252" y="558"/>
      <point x="215" y="607"/>
      <point x="90" y="607" type="curve" smooth="yes"/>
      <point x="-70" y="607" type="line"/>
      <point x="-70" y="500" type="line"/>
      <point x="53" y="500" type="line" smooth="yes"/>
      <point x="96" y="500"/>
      <point x="104" y="482"/>
      <point x="104" y="433" type="curve" smooth="yes"/>
      <point x="104" y="358" type="line"/>
      <point x="44" y="358"/>
      <point x="23" y="340"/>
      <point x="23" y="265" type="curve" smooth="yes"/>
      <point x="23" y="191"/>
      <point x="45" y="172"/>
    </contour>
    <contour>
      <point x="159" y="246" type="line"/>
      <point x="532" y="246" type="line"/>
      <point x="532" y="358" type="line"/>
      <point x="159" y="358" type="line"/>
    </contour>
    <contour>
      <point x="882" y="9" type="line"/>
      <point x="1030" y="9" type="line"/>
      <point x="1030" y="501" type="line"/>
      <point x="882" y="501" type="line"/>
    </contour>
    <contour>
      <point x="352" y="500" type="line"/>
      <point x="1130" y="500" type="line"/>
      <point x="1130" y="607" type="line"/>
      <point x="352" y="607" type="line"/>
    </contour>
  </outline>
</glyph>
<glyph name="dvB_BHA" format="2">
  <advance width="1037"/>
  <outline>
    <contour>
      <point x="-50" y="500" type="line"/>
      <point x="-50" y="607" type="line"/>
      <point x="476" y="607" type="line"/>
      <point x="476" y="500" type="line"/>
    </contour>
    <contour>
      <point x="265" y="34" type="curve" smooth="yes"/>
      <point x="100" y="34"/>
      <point x="31" y="83"/>
      <point x="31" y="222" type="curve" smooth="yes"/>
      <point x="31" y="362"/>
      <point x="95" y="409"/>
      <point x="217" y="409" type="curve" smooth="yes"/>
      <point x="264" y="409"/>
      <point x="335" y="403"/>
      <point x="372" y="392" type="curve"/>
      <point x="372" y="289" type="line"/>
      <point x="368" y="288" type="line"/>
      <point x="346" y="294"/>
      <point x="294" y="302"/>
      <point x="259" y="302" type="curve" smooth="yes"/>
      <point x="183" y="302"/>
      <point x="163" y="285"/>
      <point x="163" y="224" type="curve" smooth="yes"/>
      <point x="163" y="160"/>
      <point x="197" y="143"/>
      <point x="291" y="143" type="curve" smooth="yes"/>
      <point x="363" y="143"/>
      <point x="453" y="161"/>
      <point x="511" y="189" type="curve"/>
      <point x="564" y="96" type="line"/>
      <point x="484" y="57"/>
      <point x="391" y="34"/>
    </contour>
    <contour>
      <point x="412" y="97" type="line"/>
      <point x="345" y="146" type="line"/>
      <point x="345" y="147" type="line"/>
      <point x="171" y="267" type="line"/>
      <point x="167" y="267" type="line"/>
      <point x="206" y="320" type="line"/>
      <point x="233" y="301" type="line"/>
      <point x="233" y="300" type="line"/>
      <point x="452" y="148" type="line"/>
    </contour>
    <contour>
      <point x="828" y="9" type="line"/>
      <point x="828" y="501" type="line"/>
      <point x="977" y="501" type="line"/>
      <point x="977" y="9" type="line"/>
    </contour>
    <contour>
      <point x="828" y="500" type="line"/>
      <point x="828" y="607" type="line"/>
      <point x="1077" y="607" type="line"/>
      <point x="1077" y="500" type="line"/>
    </contour>
    <contour>
      <point x="560" y="168" type="line"/>
      <point x="560" y="280" type="line"/>
      <point x="933" y="280" type="line"/>
      <point x="933" y="168" type="line"/>
    </contour>
    <contour>
      <point x="474" y="500" type="curve" smooth="yes"/>
      <point x="351" y="500" type="line"/>
      <point x="351" y="607" type="line"/>
      <point x="511" y="607" type="line" smooth="yes"/>
      <point x="636" y="607"/>
      <point x="673" y="558"/>
      <point x="673" y="422" type="curve" smooth="yes"/>
      <point x="673" y="196" type="line" smooth="yes"/>
      <point x="673" y="109"/>
      <point x="655" y="94"/>
      <point x="563" y="94" type="curve" smooth="yes"/>
      <point x="466" y="94"/>
      <point x="444" y="113"/>
      <point x="444" y="187" type="curve" smooth="yes"/>
      <point x="444" y="262"/>
      <point x="465" y="280"/>
      <point x="525" y="280" type="curve"/>
      <point x="525" y="433" type="line" smooth="yes"/>
      <point x="525" y="482"/>
      <point x="517" y="500"/>
    </contour>
  </outline>
</glyph>
<glyph name="dvB_DA" format="2">
  <advance width="972"/>
  <outline>
    <contour>
      <point x="780" y="321" type="line"/>
      <point x="780" y="501" type="line"/>
      <point x="912" y="501" type="line"/>
      <point x="912" y="321" type="line"/>
    </contour>
    <contour>
      <point x="361" y="500" type="line"/>
      <point x="361" y="607" type="line"/>
      <point x="1012" y="607" type="line"/>
      <point x="1012" y="500" type="line"/>
    </contour>
    <contour>
      <point x="447" y="253" type="curve" smooth="yes"/>
      <point x="447" y="388"/>
      <point x="508" y="435"/>
      <point x="667" y="435" type="curve" smooth="yes"/>
      <point x="754" y="435"/>
      <point x="862" y="434"/>
      <point x="892" y="431" type="curve"/>
      <point x="892" y="321" type="line"/>
      <point x="684" y="321" type="line" smooth="yes"/>
      <point x="602" y="321"/>
      <point x="583" y="306"/>
      <point x="583" y="247" type="curve" smooth="yes"/>
      <point x="583" y="189"/>
      <point x="603" y="179"/>
      <point x="695" y="179" type="curve" smooth="yes"/>
      <point x="780" y="179"/>
      <point x="801" y="191"/>
      <point x="801" y="218" type="curve" smooth="yes"/>
      <point x="801" y="250" type="line"/>
      <point x="917" y="250" type="line"/>
      <point x="917" y="9" type="line"/>
      <point x="773" y="9" type="line"/>
      <point x="773" y="49"/>
      <point x="776" y="68"/>
      <point x="783" y="87" type="curve"/>
      <point x="780" y="89" type="line"/>
      <point x="753" y="74"/>
      <point x="706" y="65"/>
      <point x="647" y="65" type="curve" smooth="yes"/>
      <point x="514" y="65"/>
      <point x="447" y="116"/>
    </contour>
    <component base="dvB"/>
  </outline>
</glyph>
<glyph name="dvB_JHA" format="2">
  <advance width="1227"/>
  <outline>
    <contour>
      <point x="-50" y="500" type="line"/>
      <point x="-50" y="607" type="line"/>
      <point x="458" y="607" type="line"/>
      <point x="458" y="500" type="line"/>
    </contour>
    <contour>
      <point x="452" y="157" type="curve"/>
      <point x="452" y="51" type="line"/>
      <point x="400" y="39"/>
      <point x="342" y="32"/>
      <point x="274" y="32" type="curve" smooth="yes"/>
      <point x="109" y="32"/>
      <point x="40" y="81"/>
      <point x="40" y="220" type="curve" smooth="yes"/>
      <point x="40" y="360"/>
      <point x="110" y="407"/>
      <point x="231" y="407" type="curve" smooth="yes"/>
      <point x="283" y="407"/>
      <point x="344" y="401"/>
      <point x="381" y="390" type="curve"/>
      <point x="381" y="287" type="line"/>
      <point x="377" y="286" type="line"/>
      <point x="351" y="294"/>
      <point x="305" y="300"/>
      <point x="268" y="300" type="curve" smooth="yes"/>
      <point x="192" y="300"/>
      <point x="172" y="283"/>
      <point x="172" y="222" type="curve" smooth="yes"/>
      <point x="172" y="158"/>
      <point x="206" y="141"/>
      <point x="300" y="141" type="curve" smooth="yes"/>
      <point x="359" y="141"/>
      <point x="403" y="144"/>
    </contour>
    <contour>
      <point x="421" y="95" type="line"/>
      <point x="355" y="142" type="line"/>
      <point x="355" y="143" type="line"/>
      <point x="170" y="267" type="line"/>
      <point x="166" y="267" type="line"/>
      <point x="215" y="318" type="line"/>
      <point x="242" y="299" type="line"/>
      <point x="242" y="298" type="line"/>
      <point x="468" y="146" type="line"/>
    </contour>
    <contour>
      <point x="781" y="118" type="line"/>
      <point x="781" y="223" type="line"/>
      <point x="1068" y="223" type="line"/>
      <point x="1068" y="118" type="line"/>
    </contour>
    <contour>
      <point x="782" y="340" type="line"/>
      <point x="782" y="500" type="line"/>
      <point x="900" y="500" type="line"/>
      <point x="900" y="340" type="line"/>
    </contour>
    <contour>
      <point x="1019" y="9" type="line"/>
      <point x="1019" y="501" type="line"/>
      <point x="1167" y="501" type="line"/>
      <point x="1167" y="9" type="line"/>
    </contour>
    <contour>
      <point x="368" y="500" type="line"/>
      <point x="368" y="607" type="line"/>
      <point x="1267" y="607" type="line"/>
      <point x="1267" y="500" type="line"/>
    </contour>
    <contour>
      <point x="782" y="340" type="line"/>
      <point x="782" y="500" type="line"/>
      <point x="900" y="500" type="line"/>
      <point x="900" y="340" type="line"/>
    </contour>
    <contour>
      <point x="627" y="447" type="curve" smooth="yes"/>
      <point x="872" y="447" type="line"/>
      <point x="872" y="340" type="line"/>
      <point x="631" y="340" type="line" smooth="yes"/>
      <point x="608" y="340"/>
      <point x="593" y="336"/>
      <point x="593" y="311" type="curve" smooth="yes"/>
      <point x="593" y="286"/>
      <point x="608" y="282"/>
      <point x="631" y="282" type="curve" smooth="yes"/>
      <point x="698" y="282" type="line" smooth="yes"/>
      <point x="850" y="282"/>
      <point x="897" y="256"/>
      <point x="897" y="143" type="curve" smooth="yes"/>
      <point x="897" y="36"/>
      <point x="843" y="0"/>
      <point x="705" y="0" type="curve" smooth="yes"/>
      <point x="649" y="0"/>
      <point x="595" y="7"/>
      <point x="567" y="19" type="curve"/>
      <point x="564" y="16" type="line"/>
      <point x="574" y="-12"/>
      <point x="576" y="-36"/>
      <point x="576" y="-74" type="curve"/>
      <point x="451" y="-74" type="line"/>
      <point x="451" y="157" type="line"/>
      <point x="554" y="157" type="line"/>
      <point x="554" y="149" type="line" smooth="yes"/>
      <point x="554" y="120"/>
      <point x="571" y="113"/>
      <point x="663" y="113" type="curve" smooth="yes"/>
      <point x="742" y="113"/>
      <point x="757" y="120"/>
      <point x="757" y="149" type="curve" smooth="yes"/>
      <point x="757" y="178"/>
      <point x="744" y="185"/>
      <point x="670" y="185" type="curve" smooth="yes"/>
      <point x="615" y="185" type="line" smooth="yes"/>
      <point x="498" y="185"/>
      <point x="453" y="222"/>
      <point x="453" y="318" type="curve" smooth="yes"/>
      <point x="453" y="413"/>
      <point x="505" y="447"/>
    </contour>
  </outline>
</glyph>
<glyph name="dvB_R" format="2">
  <advance width="421"/>
  <outline>
    <contour>
      <point x="198" y="-31" type="curve"/>
      <point x="198" y="-35" type="line"/>
      <point x="373" y="-35" type="line"/>
      <point x="500" y="118" type="line"/>
      <point x="368" y="134" type="line"/>
      <point x="317" y="83" type="line"/>
      <point x="317" y="80" type="line"/>
      <point x="273" y="50"/>
      <point x="232" y="11"/>
    </contour>
    <contour>
      <point x="411" y="127" type="line"/>
      <point x="451" y="178" type="line"/>
      <point x="232" y="330" type="line"/>
      <point x="232" y="331" type="line"/>
      <point x="205" y="350" type="line"/>
      <point x="166" y="297" type="line"/>
      <point x="170" y="297" type="line"/>
      <point x="344" y="177" type="line"/>
      <point x="344" y="176" type="line"/>
    </contour>
    <contour>
      <point x="-50" y="500" type="line"/>
      <point x="500" y="500" type="line"/>
      <point x="500" y="607" type="line"/>
      <point x="-50" y="607" type="line"/>
    </contour>
    <contour>
      <point x="500" y="118" type="curve"/>
      <point x="500" y="215" type="line"/>
      <point x="442" y="190"/>
      <point x="358" y="185"/>
      <point x="290" y="185" type="curve" smooth="yes"/>
      <point x="196" y="185"/>
      <point x="162" y="202"/>
      <point x="162" y="254" type="curve" smooth="yes"/>
      <point x="162" y="315"/>
      <point x="182" y="332"/>
      <point x="258" y="332" type="curve" smooth="yes"/>
      <point x="293" y="332"/>
      <point x="345" y="324"/>
      <point x="367" y="318" type="curve"/>
      <point x="371" y="319" type="line"/>
      <point x="371" y="422" type="line"/>
      <point x="334" y="433"/>
      <point x="263" y="439"/>
      <point x="216" y="439" type="curve" smooth="yes"/>
      <point x="94" y="439"/>
      <point x="30" y="392"/>
      <point x="30" y="252" type="curve" smooth="yes"/>
      <point x="30" y="125"/>
      <point x="109" y="81"/>
      <point x="264" y="81" type="curve" smooth="yes"/>
      <point x="358" y="81"/>
      <point x="434" y="95"/>
    </contour>
  </outline>
</glyph>
<glyph name="dvC" format="2">
  <advance width="427"/>
  <outline>
    <contour>
      <point x="296" y="84" type="curve" smooth="yes"/>
      <point x="398" y="84"/>
      <point x="472" y="102"/>
      <point x="537" y="136" type="curve"/>
      <point x="518" y="255" type="line"/>
      <point x="474" y="224"/>
      <point x="418" y="209"/>
      <point x="335" y="211" type="curve" smooth="yes"/>
      <point x="244" y="213"/>
      <point x="225" y="227"/>
      <point x="225" y="270" type="curve" smooth="yes"/>
      <point x="225" y="307"/>
      <point x="244" y="317"/>
      <point x="272" y="317" type="curve" smooth="yes"/>
      <point x="352" y="317" type="line"/>
      <point x="352" y="423" type="line"/>
      <point x="13" y="423" type="line"/>
      <point x="13" y="292" type="line"/>
      <point x="53" y="292"/>
      <point x="90" y="299"/>
      <point x="113" y="307" type="curve"/>
      <point x="115" y="304" type="line"/>
      <point x="97" y="290"/>
      <point x="84" y="265"/>
      <point x="84" y="221" type="curve" smooth="yes"/>
      <point x="84" y="125"/>
      <point x="164" y="84"/>
    </contour>
    <contour>
      <point x="-35" y="500" type="line"/>
      <point x="502" y="500" type="line"/>
      <point x="502" y="607" type="line"/>
      <point x="-35" y="607" type="line"/>
    </contour>
  </outline>
</glyph>
<glyph name="dvCH" format="2">
  <advance width="687"/>
  <outline>
    <contour>
      <point x="-60" y="500" type="line"/>
      <point x="732" y="500" type="line"/>
      <point x="732" y="607" type="line"/>
      <point x="-60" y="607" type="line"/>
    </contour>
    <contour>
      <point x="16" y="410" type="curve" smooth="yes"/>
      <point x="16" y="349"/>
      <point x="56" y="306"/>
      <point x="132" y="303" type="curve"/>
      <point x="132" y="299" type="line"/>
      <point x="56" y="289"/>
      <point x="24" y="246"/>
      <point x="24" y="173" type="curve" smooth="yes"/>
      <point x="24" y="52"/>
      <point x="116" y="0"/>
      <point x="337" y="0" type="curve" smooth="yes"/>
      <point x="604" y="0"/>
      <point x="646" y="111"/>
      <point x="646" y="280" type="curve" smooth="yes"/>
      <point x="646" y="421"/>
      <point x="597" y="452"/>
      <point x="478" y="452" type="curve" smooth="yes"/>
      <point x="384" y="452"/>
      <point x="323" y="432"/>
      <point x="323" y="315" type="curve" smooth="yes"/>
      <point x="323" y="291"/>
      <point x="326" y="263"/>
      <point x="333" y="238" type="curve"/>
      <point x="443" y="238" type="line"/>
      <point x="443" y="240" type="line"/>
      <point x="439" y="257"/>
      <point x="436" y="277"/>
      <point x="436" y="295" type="curve" smooth="yes"/>
      <point x="436" y="341"/>
      <point x="444" y="356"/>
      <point x="477" y="356" type="curve" smooth="yes"/>
      <point x="510" y="356"/>
      <point x="520" y="341"/>
      <point x="520" y="295" type="curve" smooth="yes"/>
      <point x="520" y="252"/>
      <point x="519" y="203"/>
      <point x="503" y="176" type="curve" smooth="yes"/>
      <point x="482" y="140"/>
      <point x="429" y="122"/>
      <point x="334" y="122" type="curve" smooth="yes"/>
      <point x="209" y="122"/>
      <point x="172" y="142"/>
      <point x="172" y="187" type="curve" smooth="yes"/>
      <point x="172" y="230"/>
      <point x="197" y="243"/>
      <point x="269" y="243" type="curve" smooth="yes"/>
      <point x="275" y="243" type="line"/>
      <point x="275" y="359" type="line"/>
      <point x="269" y="359" type="line" smooth="yes"/>
      <point x="189" y="359"/>
      <point x="164" y="378"/>
      <point x="164" y="429" type="curve" smooth="yes"/>
      <point x="164" y="480"/>
      <point x="189" y="500"/>
      <point x="249" y="500" type="curve"/>
      <point x="249" y="606" type="line"/>
      <point x="64" y="502" type="line"/>
      <point x="64" y="498" type="line"/>
      <point x="39" y="488"/>
      <point x="16" y="453"/>
    </contour>
  </outline>
</glyph>
<glyph name="dvCH_R_YA" format="2">
  <advance width="1321"/>
  <outline>
    <contour>
      <point x="704" y="500" type="line"/>
      <point x="1361" y="500" type="line"/>
      <point x="1361" y="607" type="line"/>
      <point x="704" y="607" type="line"/>
    </contour>
    <contour>
      <point x="964" y="50" type="curve" smooth="yes"/>
      <point x="1021" y="50"/>
      <point x="1081" y="57"/>
      <point x="1112" y="68" type="curve"/>
      <point x="1116" y="66" type="line"/>
      <point x="1149" y="78"/>
      <point x="1169" y="89"/>
      <point x="1194" y="110" type="curve"/>
      <point x="1163" y="201" type="line"/>
      <point x="1128" y="174"/>
      <point x="1065" y="158"/>
      <point x="994" y="158" type="curve" smooth="yes"/>
      <point x="896" y="158"/>
      <point x="862" y="172"/>
      <point x="859" y="194" type="curve"/>
      <point x="976" y="194"/>
      <point x="1015" y="238"/>
      <point x="1015" y="328" type="curve" smooth="yes"/>
      <point x="1015" y="417"/>
      <point x="972" y="457"/>
      <point x="846" y="457" type="curve" smooth="yes"/>
      <point x="486" y="457" type="line"/>
      <point x="556" y="349" type="line"/>
      <point x="609" y="349"/>
      <point x="745" y="349"/>
      <point x="805" y="349" type="curve" smooth="yes"/>
      <point x="865" y="349"/>
      <point x="880" y="340"/>
      <point x="880" y="312" type="curve" smooth="yes"/>
      <point x="880" y="284"/>
      <point x="865" y="275"/>
      <point x="805" y="275" type="curve" smooth="yes"/>
      <point x="727" y="275" type="line"/>
      <point x="727" y="216" type="line" smooth="yes"/>
      <point x="727" y="99"/>
      <point x="809" y="50"/>
    </contour>
    <contour>
      <point x="1114" y="9" type="line"/>
      <point x="1262" y="9" type="line"/>
      <point x="1262" y="501" type="line"/>
      <point x="1114" y="501" type="line"/>
    </contour>
    <contour>
      <point x="156" y="-99" type="line"/>
      <point x="305" y="-99" type="line"/>
      <point x="349" y="22" type="line"/>
      <point x="351" y="22" type="line"/>
      <point x="397" y="-99" type="line"/>
      <point x="546" y="-99" type="line"/>
      <point x="546" y="-95" type="line"/>
      <point x="454" y="63" type="line"/>
      <point x="454" y="65" type="line"/>
      <point x="445" y="81" type="line"/>
      <point x="247" y="81" type="line"/>
      <point x="240" y="63" type="line"/>
      <point x="240" y="62" type="line"/>
      <point x="156" y="-95" type="line"/>
    </contour>
    <contour>
      <point x="-60" y="500" type="line"/>
      <point x="727" y="500" type="line"/>
      <point x="727" y="607" type="line"/>
      <point x="-60" y="607" type="line"/>
    </contour>
    <contour>
      <point x="29" y="410" type="curve" smooth="yes"/>
      <point x="29" y="349"/>
      <point x="69" y="306"/>
      <point x="145" y="303" type="curve"/>
      <point x="145" y="299" type="line"/>
      <point x="69" y="289"/>
      <point x="37" y="246"/>
      <point x="37" y="173" type="curve" smooth="yes"/>
      <point x="37" y="72"/>
      <point x="129" y="14"/>
      <point x="350" y="14" type="curve" smooth="yes"/>
      <point x="617" y="14"/>
      <point x="656" y="136"/>
      <point x="656" y="285" type="curve" smooth="yes"/>
      <point x="656" y="426"/>
      <point x="610" y="457"/>
      <point x="491" y="457" type="curve" smooth="yes"/>
      <point x="397" y="457"/>
      <point x="336" y="437"/>
      <point x="336" y="320" type="curve" smooth="yes"/>
      <point x="336" y="296"/>
      <point x="339" y="268"/>
      <point x="346" y="243" type="curve"/>
      <point x="456" y="243" type="line"/>
      <point x="456" y="245" type="line"/>
      <point x="452" y="262"/>
      <point x="449" y="282"/>
      <point x="449" y="300" type="curve" smooth="yes"/>
      <point x="449" y="346"/>
      <point x="457" y="361"/>
      <point x="490" y="361" type="curve" smooth="yes"/>
      <point x="523" y="361"/>
      <point x="533" y="346"/>
      <point x="533" y="300" type="curve" smooth="yes"/>
      <point x="533" y="257"/>
      <point x="532" y="203"/>
      <point x="516" y="176" type="curve" smooth="yes"/>
      <point x="495" y="140"/>
      <point x="442" y="122"/>
      <point x="347" y="122" type="curve" smooth="yes"/>
      <point x="222" y="122"/>
      <point x="185" y="142"/>
      <point x="185" y="187" type="curve" smooth="yes"/>
      <point x="185" y="230"/>
      <point x="210" y="243"/>
      <point x="282" y="243" type="curve" smooth="yes"/>
      <point x="288" y="243" type="line"/>
      <point x="288" y="359" type="line"/>
      <point x="282" y="359" type="line" smooth="yes"/>
      <point x="202" y="359"/>
      <point x="177" y="378"/>
      <point x="177" y="429" type="curve" smooth="yes"/>
      <point x="177" y="480"/>
      <point x="202" y="500"/>
      <point x="262" y="500" type="curve"/>
      <point x="262" y="606" type="line"/>
      <point x="77" y="502" type="line"/>
      <point x="77" y="498" type="line"/>
      <point x="52" y="488"/>
      <point x="29" y="453"/>
    </contour>
  </outline>
</glyph>
<glyph name="dvC_R" format="2">
  <advance width="427"/>
  <outline>
    <contour>
      <point x="228" y="4" type="curve"/>
      <point x="228" y="0" type="line"/>
      <point x="392" y="0" type="line"/>
      <point x="537" y="158" type="line"/>
      <point x="368" y="134" type="line"/>
      <point x="339" y="109" type="line"/>
      <point x="339" y="105" type="line"/>
      <point x="301" y="81"/>
      <point x="255" y="38"/>
    </contour>
    <contour>
      <point x="537" y="158" type="curve"/>
      <point x="537" y="253" type="line"/>
      <point x="532" y="256" type="line"/>
      <point x="482" y="227"/>
      <point x="415" y="213"/>
      <point x="335" y="215" type="curve" smooth="yes"/>
      <point x="244" y="217"/>
      <point x="225" y="231"/>
      <point x="225" y="265" type="curve" smooth="yes"/>
      <point x="225" y="302"/>
      <point x="244" y="312"/>
      <point x="272" y="312" type="curve" smooth="yes"/>
      <point x="352" y="312" type="line"/>
      <point x="352" y="418" type="line"/>
      <point x="13" y="418" type="line"/>
      <point x="13" y="287" type="line"/>
      <point x="53" y="287"/>
      <point x="90" y="294"/>
      <point x="113" y="302" type="curve"/>
      <point x="115" y="299" type="line"/>
      <point x="97" y="285"/>
      <point x="84" y="260"/>
      <point x="84" y="216" type="curve" smooth="yes"/>
      <point x="84" y="147"/>
      <point x="164" y="106"/>
      <point x="296" y="106" type="curve" smooth="yes"/>
      <point x="398" y="106"/>
      <point x="472" y="124"/>
    </contour>
    <contour>
      <point x="-35" y="500" type="line"/>
      <point x="537" y="500" type="line"/>
      <point x="537" y="607" type="line"/>
      <point x="-35" y="607" type="line"/>
    </contour>
  </outline>
</glyph>
<glyph name="dvC_RA" format="2">
  <advance width="668"/>
  <anchor x="533" y="8" name="blwm"/>
  <anchor x="536" y="607" name="abvm"/>
  <outline>
    <contour>
      <point x="286" y="107" type="curve" smooth="yes"/>
      <point x="346" y="107"/>
      <point x="407" y="119"/>
      <point x="451" y="138" type="curve"/>
      <point x="453" y="137" type="line"/>
      <point x="463" y="141"/>
      <point x="467" y="144"/>
      <point x="475" y="149" type="curve"/>
      <point x="458" y="249" type="line"/>
      <point x="430" y="229"/>
      <point x="368" y="213"/>
      <point x="315" y="215" type="curve" smooth="yes"/>
      <point x="246" y="218"/>
      <point x="225" y="231"/>
      <point x="225" y="270" type="curve" smooth="yes"/>
      <point x="225" y="302"/>
      <point x="244" y="312"/>
      <point x="272" y="312" type="curve" smooth="yes"/>
      <point x="352" y="312" type="line"/>
      <point x="352" y="418" type="line"/>
      <point x="13" y="418" type="line"/>
      <point x="13" y="287" type="line"/>
      <point x="53" y="287"/>
      <point x="90" y="294"/>
      <point x="113" y="302" type="curve"/>
      <point x="115" y="299" type="line"/>
      <point x="97" y="285"/>
      <point x="84" y="260"/>
      <point x="84" y="221" type="curve" smooth="yes"/>
      <point x="84" y="148"/>
      <point x="164" y="107"/>
    </contour>
    <contour>
      <point x="187" y="4" type="curve"/>
      <point x="187" y="0" type="line"/>
      <point x="362" y="0" type="line"/>
      <point x="451" y="139" type="line"/>
      <point x="327" y="134" type="line"/>
      <point x="298" y="109" type="line"/>
      <point x="298" y="105" type="line"/>
      <point x="260" y="81"/>
      <point x="214" y="38"/>
    </contour>
    <contour>
      <point x="453" y="9" type="line"/>
      <point x="602" y="9" type="line"/>
      <point x="602" y="501" type="line"/>
      <point x="453" y="501" type="line"/>
    </contour>
    <contour>
      <point x="-35" y="500" type="line"/>
      <point x="702" y="500" type="line"/>
      <point x="702" y="607" type="line"/>
      <point x="-35" y="607" type="line"/>
    </contour>
  </outline>
</glyph>
<glyph name="dvDD" format="2">
  <advance width="518"/>
  <outline>
    <contour>
      <point x="169" y="-55" type="line"/>
      <point x="169" y="-50" type="line"/>
      <point x="307" y="-50" type="line"/>
      <point x="370" y="-86"/>
      <point x="430" y="-128"/>
      <point x="483" y="-179" type="curve"/>
      <point x="483" y="-184" type="line"/>
      <point x="343" y="-221" type="line"/>
    </contour>
    <component base="dvDDA"/>
  </outline>
</glyph>
<glyph name="dvDDH" format="2">
  <advance width="562"/>
  <outline>
    <contour>
      <point x="203" y="-56" type="line"/>
      <point x="203" y="-51" type="line"/>
      <point x="341" y="-51" type="line"/>
      <point x="404" y="-87"/>
      <point x="464" y="-129"/>
      <point x="517" y="-180" type="curve"/>
      <point x="517" y="-185" type="line"/>
      <point x="377" y="-222" type="line"/>
    </contour>
    <component base="dvDDHA"/>
  </outline>
</glyph>
<glyph name="dvDDH_R" format="2">
  <advance width="542"/>
  <outline>
    <contour>
      <point x="207" y="-166" type="line"/>
      <point x="207" y="-161" type="line"/>
      <point x="345" y="-161" type="line"/>
      <point x="408" y="-197"/>
      <point x="468" y="-239"/>
      <point x="521" y="-290" type="curve"/>
      <point x="521" y="-295" type="line"/>
      <point x="381" y="-332" type="line"/>
    </contour>
    <component base="dvDDH_RA"/>
  </outline>
</glyph>
<glyph name="dvDDHxA" format="2">
  <advance width="562"/>
  <anchor x="214" y="-223" name="blwm.virama"/>
  <anchor x="471" y="607" name="abvm.bindu"/>
  <anchor x="294" y="-243" name="blwm.u"/>
  <anchor x="469" y="607" name="abvm.e"/>
  <outline>
    <contour>
      <point x="353" y="-59" type="curve"/>
      <point x="355" y="-81"/>
      <point x="356" y="-96"/>
      <point x="356" y="-112" type="curve" smooth="yes"/>
      <point x="356" y="-128"/>
      <point x="355" y="-144"/>
      <point x="353" y="-165" type="curve"/>
      <point x="327" y="-170"/>
      <point x="302" y="-173"/>
      <point x="277" y="-173" type="curve" smooth="yes"/>
      <point x="253" y="-173"/>
      <point x="229" y="-170"/>
      <point x="204" y="-165" type="curve"/>
      <point x="201" y="-145"/>
      <point x="200" y="-129"/>
      <point x="200" y="-113" type="curve" smooth="yes"/>
      <point x="200" y="-98"/>
      <point x="201" y="-81"/>
      <point x="204" y="-59" type="curve"/>
      <point x="229" y="-54"/>
      <point x="254" y="-52"/>
      <point x="279" y="-52" type="curve" smooth="yes"/>
      <point x="303" y="-52"/>
      <point x="328" y="-54"/>
    </contour>
    <component base="dvDDHA"/>
  </outline>
</glyph>
<glyph name="dvDD_DDA" format="2">
  <advance width="550"/>
  <guideline x="364" y="-180" angle="0"/>
  <anchor x="167" y="-281" name="blwm.virama"/>
  <anchor x="494" y="607" name="abvm.bindu"/>
  <anchor x="257" y="-312" name="blwm.u"/>
  <anchor x="492" y="607" name="abvm.e"/>
  <outline>
    <contour>
      <point x="377" y="364" type="line"/>
      <point x="377" y="511" type="line"/>
      <point x="495" y="511" type="line"/>
      <point x="495" y="364" type="line"/>
    </contour>
    <contour>
      <point x="-20" y="500" type="line"/>
      <point x="-20" y="607" type="line"/>
      <point x="595" y="607" type="line"/>
      <point x="595" y="500" type="line"/>
    </contour>
    <contour>
      <point x="30" y="-202" type="curve"/>
      <point x="30" y="-95" type="line"/>
      <point x="33" y="-92" type="line"/>
      <point x="80" y="-109"/>
      <point x="151" y="-119"/>
      <point x="237" y="-119" type="curve" smooth="yes"/>
      <point x="342" y="-119"/>
      <point x="363" y="-108"/>
      <point x="363" y="-89" type="curve" smooth="yes"/>
      <point x="363" y="-69"/>
      <point x="355" y="-64"/>
      <point x="272" y="-64" type="curve" smooth="yes"/>
      <point x="206" y="-64" type="line" smooth="yes"/>
      <point x="79" y="-64"/>
      <point x="48" y="-33"/>
      <point x="48" y="23" type="curve" smooth="yes"/>
      <point x="48" y="60"/>
      <point x="68" y="84"/>
      <point x="101" y="93" type="curve"/>
      <point x="101" y="95" type="line"/>
      <point x="80" y="96"/>
      <point x="53" y="101"/>
      <point x="39" y="105" type="curve"/>
      <point x="39" y="196" type="line"/>
      <point x="44" y="199" type="line"/>
      <point x="86" y="182"/>
      <point x="165" y="173"/>
      <point x="249" y="173" type="curve" smooth="yes"/>
      <point x="354" y="173"/>
      <point x="374" y="180"/>
      <point x="374" y="201" type="curve" smooth="yes"/>
      <point x="374" y="222"/>
      <point x="365" y="228"/>
      <point x="282" y="228" type="curve" smooth="yes"/>
      <point x="226" y="228" type="line" smooth="yes"/>
      <point x="100" y="228"/>
      <point x="58" y="257"/>
      <point x="58" y="349" type="curve" smooth="yes"/>
      <point x="58" y="434"/>
      <point x="108" y="457"/>
      <point x="225" y="457" type="curve" smooth="yes"/>
      <point x="495" y="457" type="line"/>
      <point x="495" y="360" type="line"/>
      <point x="234" y="360" type="line" smooth="yes"/>
      <point x="200" y="360"/>
      <point x="190" y="355"/>
      <point x="190" y="339" type="curve" smooth="yes"/>
      <point x="190" y="323"/>
      <point x="200" y="318"/>
      <point x="234" y="318" type="curve" smooth="yes"/>
      <point x="300" y="318" type="line" smooth="yes"/>
      <point x="474" y="318"/>
      <point x="506" y="295"/>
      <point x="506" y="194" type="curve" smooth="yes"/>
      <point x="506" y="108"/>
      <point x="443" y="68"/>
      <point x="309" y="68" type="curve" smooth="yes"/>
      <point x="294" y="68"/>
      <point x="281" y="68"/>
      <point x="211" y="68" type="curve" smooth="yes"/>
      <point x="188" y="68"/>
      <point x="179" y="61"/>
      <point x="179" y="46" type="curve" smooth="yes"/>
      <point x="179" y="32"/>
      <point x="190" y="26"/>
      <point x="224" y="26" type="curve" smooth="yes"/>
      <point x="290" y="26" type="line" smooth="yes"/>
      <point x="458" y="26"/>
      <point x="495" y="4"/>
      <point x="495" y="-97" type="curve" smooth="yes"/>
      <point x="495" y="-192"/>
      <point x="433" y="-222"/>
      <point x="239" y="-222" type="curve" smooth="yes"/>
      <point x="146" y="-222"/>
      <point x="88" y="-216"/>
    </contour>
  </outline>
</glyph>
<glyph name="dvDD_R" format="2">
  <advance width="498"/>
  <outline>
    <contour>
      <point x="177" y="-166" type="line"/>
      <point x="177" y="-161" type="line"/>
      <point x="315" y="-161" type="line"/>
      <point x="378" y="-197"/>
      <point x="438" y="-239"/>
      <point x="491" y="-290" type="curve"/>
      <point x="491" y="-295" type="line"/>
      <point x="351" y="-332" type="line"/>
    </contour>
    <component base="dvDD_RA"/>
  </outline>
</glyph>
<glyph name="dvDH_N_YA" format="2">
  <advance width="1405"/>
  <outline>
    <contour>
      <point x="394" y="500" type="line"/>
      <point x="394" y="607" type="line"/>
      <point x="993" y="607" type="line"/>
      <point x="993" y="500" type="line"/>
    </contour>
    <contour>
      <point x="534" y="254" type="line"/>
      <point x="534" y="366" type="line"/>
      <point x="862" y="367" type="line"/>
      <point x="862" y="255" type="line"/>
    </contour>
    <contour>
      <point x="522" y="366" type="curve"/>
      <point x="630" y="366" type="line"/>
      <point x="630" y="269" type="line" smooth="yes"/>
      <point x="630" y="175"/>
      <point x="609" y="164"/>
      <point x="519" y="164" type="curve" smooth="yes"/>
      <point x="432" y="164"/>
      <point x="411" y="183"/>
      <point x="411" y="265" type="curve" smooth="yes"/>
      <point x="411" y="354"/>
      <point x="433" y="366"/>
    </contour>
    <contour>
      <point x="-65" y="500" type="line"/>
      <point x="-65" y="607" type="line"/>
      <point x="289" y="607" type="line"/>
      <point x="289" y="500" type="line"/>
    </contour>
    <contour>
      <point x="39" y="436" type="curve" smooth="yes"/>
      <point x="39" y="465"/>
      <point x="50" y="484"/>
      <point x="69" y="497" type="curve"/>
      <point x="69" y="501" type="line"/>
      <point x="260" y="606" type="line"/>
      <point x="260" y="500" type="line"/>
      <point x="197" y="500"/>
      <point x="185" y="483"/>
      <point x="185" y="447" type="curve" smooth="yes"/>
      <point x="185" y="411"/>
      <point x="207" y="395"/>
      <point x="290" y="395" type="curve" smooth="yes"/>
      <point x="319" y="395" type="line"/>
      <point x="319" y="280" type="line"/>
      <point x="290" y="280" type="line" smooth="yes"/>
      <point x="215" y="280"/>
      <point x="193" y="267"/>
      <point x="193" y="227" type="curve" smooth="yes"/>
      <point x="193" y="189"/>
      <point x="215" y="176"/>
      <point x="290" y="176" type="curve" smooth="yes"/>
      <point x="369" y="176"/>
      <point x="411" y="180"/>
      <point x="411" y="265" type="curve"/>
      <point x="527" y="264" type="line"/>
      <point x="527" y="104"/>
      <point x="504" y="54"/>
      <point x="279" y="54" type="curve" smooth="yes"/>
      <point x="88" y="54"/>
      <point x="48" y="105"/>
      <point x="48" y="216" type="curve" smooth="yes"/>
      <point x="48" y="281"/>
      <point x="89" y="330"/>
      <point x="163" y="334" type="curve"/>
      <point x="163" y="338" type="line"/>
      <point x="85" y="341"/>
      <point x="39" y="378"/>
    </contour>
    <component base="dvYA" xOffset="727"/>
  </outline>
</glyph>
<glyph name="dvD_DA" format="2">
  <advance width="521"/>
  <anchor x="343" y="-211" name="blwm.virama"/>
  <anchor x="472" y="607" name="abvm.bindu"/>
  <anchor x="377" y="-245" name="blwm.u"/>
  <anchor x="473" y="607" name="abvm.e"/>
  <outline>
    <contour>
      <point x="339" y="321" type="line"/>
      <point x="339" y="501" type="line"/>
      <point x="475" y="501" type="line"/>
      <point x="475" y="321" type="line"/>
    </contour>
    <contour>
      <point x="-50" y="500" type="line"/>
      <point x="-50" y="607" type="line"/>
      <point x="575" y="607" type="line"/>
      <point x="575" y="500" type="line"/>
    </contour>
    <contour>
      <point x="29" y="69" type="curve" smooth="yes"/>
      <point x="29" y="128"/>
      <point x="50" y="164"/>
      <point x="95" y="182" type="curve"/>
      <point x="95" y="184" type="line"/>
      <point x="50" y="201"/>
      <point x="36" y="245"/>
      <point x="36" y="293" type="curve" smooth="yes"/>
      <point x="36" y="398"/>
      <point x="97" y="435"/>
      <point x="226" y="435" type="curve" smooth="yes"/>
      <point x="323" y="435"/>
      <point x="445" y="434"/>
      <point x="475" y="431" type="curve"/>
      <point x="475" y="321" type="line"/>
      <point x="218" y="321" type="line" smooth="yes"/>
      <point x="185" y="321"/>
      <point x="172" y="313"/>
      <point x="172" y="286" type="curve" smooth="yes"/>
      <point x="172" y="258"/>
      <point x="186" y="250"/>
      <point x="218" y="250" type="curve" smooth="yes"/>
      <point x="352" y="250" type="line"/>
      <point x="352" y="145" type="line"/>
      <point x="236" y="145" type="line" smooth="yes"/>
      <point x="184" y="145"/>
      <point x="165" y="134"/>
      <point x="165" y="94" type="curve" smooth="yes"/>
      <point x="165" y="53"/>
      <point x="185" y="41"/>
      <point x="267" y="41" type="curve" smooth="yes"/>
      <point x="352" y="41"/>
      <point x="373" y="43"/>
      <point x="373" y="90" type="curve" smooth="yes"/>
      <point x="373" y="114" type="line"/>
      <point x="489" y="114" type="line"/>
      <point x="489" y="-155" type="line"/>
      <point x="347" y="-155" type="line"/>
      <point x="346" y="-128"/>
      <point x="348" y="-93"/>
      <point x="354" y="-62" type="curve"/>
      <point x="352" y="-60" type="line"/>
      <point x="319" y="-70"/>
      <point x="268" y="-74"/>
      <point x="219" y="-74" type="curve" smooth="yes"/>
      <point x="92" y="-74"/>
      <point x="29" y="-39"/>
    </contour>
  </outline>
</glyph>
<glyph name="dvD_GA" format="2">
  <advance width="526"/>
  <anchor x="352" y="-210" name="blwm.virama"/>
  <anchor x="479" y="607" name="abvm.bindu"/>
  <anchor x="424" y="-251" name="blwm.u"/>
  <anchor x="480" y="607" name="abvm.e"/>
  <outline>
    <contour>
      <point x="349" y="321" type="line"/>
      <point x="349" y="501" type="line"/>
      <point x="481" y="501" type="line"/>
      <point x="481" y="321" type="line"/>
    </contour>
    <contour>
      <point x="-45" y="500" type="line"/>
      <point x="-45" y="607" type="line"/>
      <point x="581" y="607" type="line"/>
      <point x="581" y="500" type="line"/>
    </contour>
    <contour>
      <point x="26" y="253" type="curve" smooth="yes"/>
      <point x="26" y="388"/>
      <point x="87" y="435"/>
      <point x="236" y="435" type="curve" smooth="yes"/>
      <point x="323" y="435"/>
      <point x="431" y="434"/>
      <point x="461" y="431" type="curve"/>
      <point x="461" y="321" type="line"/>
      <point x="253" y="321" type="line" smooth="yes"/>
      <point x="181" y="321"/>
      <point x="162" y="306"/>
      <point x="162" y="246" type="curve" smooth="yes"/>
      <point x="162" y="186"/>
      <point x="182" y="177"/>
      <point x="264" y="177" type="curve" smooth="yes"/>
      <point x="349" y="177"/>
      <point x="370" y="179"/>
      <point x="370" y="226" type="curve" smooth="yes"/>
      <point x="370" y="260" type="line"/>
      <point x="486" y="260" type="line"/>
      <point x="486" y="-161" type="line"/>
      <point x="352" y="-161" type="line"/>
      <point x="352" y="78" type="line"/>
      <point x="349" y="80" type="line"/>
      <point x="316" y="70"/>
      <point x="275" y="66"/>
      <point x="216" y="66" type="curve" smooth="yes"/>
      <point x="93" y="66"/>
      <point x="26" y="116"/>
    </contour>
    <contour>
      <point x="259" y="172" type="line"/>
      <point x="259" y="-30" type="line" smooth="yes"/>
      <point x="259" y="-86"/>
      <point x="229" y="-128"/>
      <point x="165" y="-128" type="curve" smooth="yes"/>
      <point x="127" y="-128"/>
      <point x="94" y="-121"/>
      <point x="67" y="-112" type="curve"/>
      <point x="67" y="-22" type="line"/>
      <point x="69" y="-22" type="line"/>
      <point x="78" y="-24"/>
      <point x="91" y="-26"/>
      <point x="103" y="-26" type="curve" smooth="yes"/>
      <point x="123" y="-26"/>
      <point x="135" y="-18"/>
      <point x="135" y="14" type="curve" smooth="yes"/>
      <point x="135" y="173" type="line"/>
    </contour>
  </outline>
</glyph>
<glyph name="dvD_G_RA" format="2">
  <advance width="526"/>
  <anchor x="353" y="-251" name="blwm.virama"/>
  <anchor x="480" y="607" name="abvm.bindu"/>
  <anchor x="425" y="-290" name="blwm.u"/>
  <anchor x="481" y="607" name="abvm.e"/>
  <outline>
    <contour>
      <point x="349" y="321" type="line"/>
      <point x="349" y="501" type="line"/>
      <point x="481" y="501" type="line"/>
      <point x="481" y="321" type="line"/>
    </contour>
    <contour>
      <point x="-45" y="500" type="line"/>
      <point x="-45" y="607" type="line"/>
      <point x="581" y="607" type="line"/>
      <point x="581" y="500" type="line"/>
    </contour>
    <contour>
      <point x="26" y="258" type="curve" smooth="yes"/>
      <point x="26" y="393"/>
      <point x="87" y="435"/>
      <point x="236" y="435" type="curve" smooth="yes"/>
      <point x="323" y="435"/>
      <point x="441" y="434"/>
      <point x="471" y="431" type="curve"/>
      <point x="471" y="321" type="line"/>
      <point x="253" y="321" type="line" smooth="yes"/>
      <point x="181" y="321"/>
      <point x="162" y="311"/>
      <point x="162" y="251" type="curve" smooth="yes"/>
      <point x="162" y="196"/>
      <point x="182" y="187"/>
      <point x="264" y="187" type="curve" smooth="yes"/>
      <point x="349" y="187"/>
      <point x="370" y="189"/>
      <point x="370" y="236" type="curve" smooth="yes"/>
      <point x="370" y="265" type="line"/>
      <point x="486" y="265" type="line"/>
      <point x="486" y="-200" type="line"/>
      <point x="352" y="-200" type="line"/>
      <point x="352" y="88" type="line"/>
      <point x="349" y="90" type="line"/>
      <point x="316" y="80"/>
      <point x="275" y="76"/>
      <point x="216" y="76" type="curve" smooth="yes"/>
      <point x="93" y="76"/>
      <point x="26" y="126"/>
    </contour>
    <contour>
      <point x="211" y="150" type="line"/>
      <point x="211" y="-5" type="line" smooth="yes"/>
      <point x="211" y="-64"/>
      <point x="180" y="-109"/>
      <point x="122" y="-109" type="curve" smooth="yes"/>
      <point x="84" y="-109"/>
      <point x="53" y="-101"/>
      <point x="29" y="-92" type="curve"/>
      <point x="29" y="4" type="line"/>
      <point x="31" y="4" type="line"/>
      <point x="41" y="2"/>
      <point x="52" y="0"/>
      <point x="63" y="0" type="curve" smooth="yes"/>
      <point x="88" y="0"/>
      <point x="101" y="8"/>
      <point x="101" y="42" type="curve" smooth="yes"/>
      <point x="101" y="151" type="line"/>
    </contour>
    <contour>
      <point x="372" y="42" type="curve"/>
      <point x="385" y="-74" type="line"/>
      <point x="352" y="-111" type="line"/>
      <point x="349" y="-111" type="line"/>
      <point x="239" y="-242" type="line"/>
      <point x="97" y="-242" type="line"/>
      <point x="97" y="-239" type="line"/>
      <point x="175" y="-154"/>
      <point x="310" y="-17"/>
    </contour>
  </outline>
</glyph>
<glyph name="dvD_RA" format="2">
  <advance width="551"/>
  <outline>
    <contour>
      <point x="359" y="321" type="line"/>
      <point x="359" y="501" type="line"/>
      <point x="491" y="501" type="line"/>
      <point x="491" y="321" type="line"/>
    </contour>
    <contour>
      <point x="-60" y="500" type="line"/>
      <point x="-60" y="607" type="line"/>
      <point x="591" y="607" type="line"/>
      <point x="591" y="500" type="line"/>
    </contour>
    <contour>
      <point x="26" y="253" type="curve" smooth="yes"/>
      <point x="26" y="388"/>
      <point x="87" y="435"/>
      <point x="246" y="435" type="curve" smooth="yes"/>
      <point x="333" y="435"/>
      <point x="441" y="434"/>
      <point x="471" y="431" type="curve"/>
      <point x="471" y="321" type="line"/>
      <point x="263" y="321" type="line" smooth="yes"/>
      <point x="191" y="321"/>
      <point x="162" y="306"/>
      <point x="162" y="246" type="curve" smooth="yes"/>
      <point x="162" y="186"/>
      <point x="202" y="177"/>
      <point x="284" y="177" type="curve" smooth="yes"/>
      <point x="359" y="177"/>
      <point x="380" y="189"/>
      <point x="380" y="216" type="curve" smooth="yes"/>
      <point x="380" y="250" type="line"/>
      <point x="496" y="250" type="line"/>
      <point x="496" y="-21" type="line"/>
      <point x="352" y="-21" type="line"/>
      <point x="352" y="19"/>
      <point x="355" y="68"/>
      <point x="362" y="87" type="curve"/>
      <point x="359" y="89" type="line"/>
      <point x="336" y="75"/>
      <point x="285" y="66"/>
      <point x="226" y="66" type="curve" smooth="yes"/>
      <point x="93" y="66"/>
      <point x="26" y="116"/>
    </contour>
    <contour>
      <point x="110" y="-48" type="line"/>
      <point x="110" y="-44" type="line"/>
      <point x="143" y="-1"/>
      <point x="180" y="32"/>
      <point x="226" y="62" type="curve"/>
      <point x="226" y="65" type="line"/>
      <point x="235" y="86" type="line"/>
      <point x="359" y="91" type="line"/>
      <point x="285" y="-48" type="line"/>
    </contour>
  </outline>
</glyph>
<glyph name="dvD_YA" format="2">
  <advance width="615"/>
  <outline>
    <contour>
      <point x="407" y="9" type="line"/>
      <point x="407" y="555" type="line"/>
      <point x="555" y="555" type="line"/>
      <point x="555" y="9" type="line"/>
    </contour>
    <contour>
      <point x="183" y="407" type="line"/>
      <point x="183" y="561" type="line"/>
      <point x="301" y="561" type="line"/>
      <point x="301" y="407" type="line"/>
    </contour>
    <contour>
      <point x="-60" y="500" type="line"/>
      <point x="-60" y="607" type="line"/>
      <point x="655" y="607" type="line"/>
      <point x="655" y="500" type="line"/>
    </contour>
    <contour>
      <point x="271" y="147" type="curve" smooth="yes"/>
      <point x="341" y="147"/>
      <point x="383" y="156"/>
      <point x="424" y="173" type="curve"/>
      <point x="424" y="73" type="line"/>
      <point x="408" y="56" type="line"/>
      <point x="405" y="59" type="line"/>
      <point x="354" y="48"/>
      <point x="290" y="40"/>
      <point x="227" y="40" type="curve" smooth="yes"/>
      <point x="75" y="40"/>
      <point x="14" y="71"/>
      <point x="14" y="162" type="curve" smooth="yes"/>
      <point x="14" y="217"/>
      <point x="51" y="259"/>
      <point x="108" y="264" type="curve"/>
      <point x="108" y="266" type="line"/>
      <point x="51" y="271"/>
      <point x="20" y="305"/>
      <point x="20" y="361" type="curve" smooth="yes"/>
      <point x="20" y="440"/>
      <point x="71" y="467"/>
      <point x="173" y="467" type="curve" smooth="yes"/>
      <point x="194" y="467"/>
      <point x="283" y="465"/>
      <point x="301" y="463" type="curve"/>
      <point x="301" y="374" type="line"/>
      <point x="210" y="374" type="line" smooth="yes"/>
      <point x="178" y="374"/>
      <point x="164" y="368"/>
      <point x="164" y="346" type="curve" smooth="yes"/>
      <point x="164" y="326"/>
      <point x="175" y="316"/>
      <point x="210" y="316" type="curve" smooth="yes"/>
      <point x="295" y="316" type="line"/>
      <point x="295" y="219" type="line"/>
      <point x="219" y="219" type="line" smooth="yes"/>
      <point x="174" y="219"/>
      <point x="158" y="210"/>
      <point x="158" y="185" type="curve" smooth="yes"/>
      <point x="158" y="159"/>
      <point x="177" y="147"/>
    </contour>
  </outline>
</glyph>
<glyph name="dvEyelash" format="2">
  <advance width="372"/>
  <outline>
    <contour>
      <point x="-20" y="606" type="line"/>
      <point x="412" y="606" type="line"/>
      <point x="412" y="499" type="line"/>
      <point x="-20" y="499" type="line"/>
    </contour>
    <contour>
      <point x="412" y="207" type="line"/>
      <point x="214" y="207" type="line" smooth="yes"/>
      <point x="89" y="207"/>
      <point x="14" y="247"/>
      <point x="14" y="349" type="curve" smooth="yes"/>
      <point x="14" y="363" type="line"/>
      <point x="140" y="363" type="line"/>
      <point x="140" y="331"/>
      <point x="158" y="317"/>
      <point x="213" y="317" type="curve" smooth="yes"/>
      <point x="412" y="317" type="line"/>
    </contour>
  </outline>
</glyph>
<glyph name="dvGH" format="2">
  <advance width="397"/>
  <outline>
    <contour>
      <point x="-65" y="500" type="line"/>
      <point x="-65" y="607" type="line"/>
      <point x="509" y="607" type="line"/>
      <point x="509" y="500" type="line"/>
    </contour>
    <contour>
      <point x="39" y="436" type="curve" smooth="yes"/>
      <point x="39" y="465"/>
      <point x="50" y="484"/>
      <point x="69" y="497" type="curve"/>
      <point x="69" y="501" type="line"/>
      <point x="260" y="606" type="line"/>
      <point x="260" y="500" type="line"/>
      <point x="197" y="500"/>
      <point x="185" y="483"/>
      <point x="185" y="447" type="curve" smooth="yes"/>
      <point x="185" y="411"/>
      <point x="207" y="395"/>
      <point x="290" y="395" type="curve" smooth="yes"/>
      <point x="319" y="395" type="line"/>
      <point x="319" y="280" type="line"/>
      <point x="290" y="280" type="line" smooth="yes"/>
      <point x="215" y="280"/>
      <point x="193" y="268"/>
      <point x="193" y="228" type="curve" smooth="yes"/>
      <point x="193" y="190"/>
      <point x="215" y="177"/>
      <point x="290" y="177" type="curve" smooth="yes"/>
      <point x="369" y="177"/>
      <point x="435" y="192"/>
      <point x="500" y="231" type="curve"/>
      <point x="527" y="123" type="line"/>
      <point x="449" y="77"/>
      <point x="374" y="54"/>
      <point x="249" y="54" type="curve" smooth="yes"/>
      <point x="108" y="54"/>
      <point x="48" y="112"/>
      <point x="48" y="203" type="curve" smooth="yes"/>
      <point x="48" y="280"/>
      <point x="86" y="324"/>
      <point x="163" y="334" type="curve"/>
      <point x="163" y="338" type="line"/>
      <point x="85" y="341"/>
      <point x="39" y="378"/>
    </contour>
  </outline>
</glyph>
<glyph name="dvGH_RA" format="2">
  <advance width="633"/>
  <outline>
    <contour>
      <point x="434" y="9" type="line"/>
      <point x="583" y="9" type="line"/>
      <point x="583" y="501" type="line"/>
      <point x="434" y="501" type="line"/>
    </contour>
    <contour>
      <point x="-65" y="500" type="line"/>
      <point x="683" y="500" type="line"/>
      <point x="683" y="607" type="line"/>
      <point x="-65" y="607" type="line"/>
    </contour>
    <contour>
      <point x="39" y="436" type="curve" smooth="yes"/>
      <point x="39" y="378"/>
      <point x="85" y="341"/>
      <point x="163" y="338" type="curve"/>
      <point x="163" y="334" type="line"/>
      <point x="89" y="330"/>
      <point x="48" y="281"/>
      <point x="48" y="216" type="curve" smooth="yes"/>
      <point x="48" y="130"/>
      <point x="108" y="79"/>
      <point x="259" y="79" type="curve" smooth="yes"/>
      <point x="332" y="79"/>
      <point x="388" y="91"/>
      <point x="431" y="110" type="curve"/>
      <point x="434" y="108" type="line"/>
      <point x="457" y="123" type="line"/>
      <point x="440" y="217" type="line"/>
      <point x="419" y="199"/>
      <point x="342" y="187"/>
      <point x="300" y="187" type="curve" smooth="yes"/>
      <point x="215" y="187"/>
      <point x="193" y="200"/>
      <point x="193" y="228" type="curve" smooth="yes"/>
      <point x="193" y="268"/>
      <point x="215" y="280"/>
      <point x="300" y="280" type="curve" smooth="yes"/>
      <point x="329" y="280" type="line"/>
      <point x="329" y="395" type="line"/>
      <point x="300" y="395" type="line" smooth="yes"/>
      <point x="207" y="395"/>
      <point x="185" y="411"/>
      <point x="185" y="447" type="curve" smooth="yes"/>
      <point x="185" y="483"/>
      <point x="197" y="500"/>
      <point x="270" y="500" type="curve"/>
      <point x="270" y="606" type="line"/>
      <point x="69" y="501" type="line"/>
      <point x="69" y="497" type="line"/>
      <point x="50" y="484"/>
      <point x="39" y="465"/>
    </contour>
    <contour>
      <point x="189" y="-28" type="curve"/>
      <point x="189" y="-32" type="line"/>
      <point x="354" y="-32" type="line"/>
      <point x="433" y="110" type="line"/>
      <point x="309" y="105" type="line"/>
      <point x="300" y="81" type="line"/>
      <point x="300" y="78" type="line"/>
      <point x="254" y="46"/>
      <point x="217" y="10"/>
    </contour>
  </outline>
</glyph>
<glyph name="dvG_DA" format="2">
  <advance width="859"/>
  <outline>
    <contour>
      <point x="667" y="321" type="line"/>
      <point x="667" y="501" type="line"/>
      <point x="799" y="501" type="line"/>
      <point x="799" y="321" type="line"/>
    </contour>
    <contour>
      <point x="248" y="500" type="line"/>
      <point x="248" y="607" type="line"/>
      <point x="899" y="607" type="line"/>
      <point x="899" y="500" type="line"/>
    </contour>
    <contour>
      <point x="334" y="253" type="curve" smooth="yes"/>
      <point x="334" y="388"/>
      <point x="395" y="435"/>
      <point x="554" y="435" type="curve" smooth="yes"/>
      <point x="641" y="435"/>
      <point x="749" y="434"/>
      <point x="779" y="431" type="curve"/>
      <point x="779" y="321" type="line"/>
      <point x="571" y="321" type="line" smooth="yes"/>
      <point x="489" y="321"/>
      <point x="470" y="306"/>
      <point x="470" y="247" type="curve" smooth="yes"/>
      <point x="470" y="189"/>
      <point x="490" y="179"/>
      <point x="582" y="179" type="curve" smooth="yes"/>
      <point x="667" y="179"/>
      <point x="688" y="191"/>
      <point x="688" y="218" type="curve" smooth="yes"/>
      <point x="688" y="250" type="line"/>
      <point x="804" y="250" type="line"/>
      <point x="804" y="9" type="line"/>
      <point x="660" y="9" type="line"/>
      <point x="660" y="49"/>
      <point x="663" y="68"/>
      <point x="670" y="87" type="curve"/>
      <point x="667" y="89" type="line"/>
      <point x="640" y="74"/>
      <point x="593" y="65"/>
      <point x="534" y="65" type="curve" smooth="yes"/>
      <point x="401" y="65"/>
      <point x="334" y="116"/>
    </contour>
    <component base="dvG"/>
  </outline>
</glyph>
<glyph name="dvG_DH_YA" format="2">
  <advance width="1390"/>
  <outline>
    <contour>
      <point x="243" y="500" type="line"/>
      <point x="243" y="607" type="line"/>
      <point x="582" y="607" type="line"/>
      <point x="582" y="500" type="line"/>
    </contour>
    <contour>
      <point x="347" y="436" type="curve" smooth="yes"/>
      <point x="347" y="465"/>
      <point x="358" y="484"/>
      <point x="377" y="497" type="curve"/>
      <point x="377" y="501" type="line"/>
      <point x="568" y="606" type="line"/>
      <point x="568" y="500" type="line"/>
      <point x="505" y="500"/>
      <point x="493" y="483"/>
      <point x="493" y="447" type="curve" smooth="yes"/>
      <point x="493" y="411"/>
      <point x="515" y="395"/>
      <point x="598" y="395" type="curve" smooth="yes"/>
      <point x="617" y="395" type="line"/>
      <point x="617" y="280" type="line"/>
      <point x="598" y="280" type="line" smooth="yes"/>
      <point x="523" y="280"/>
      <point x="501" y="268"/>
      <point x="501" y="228" type="curve" smooth="yes"/>
      <point x="501" y="190"/>
      <point x="524" y="177"/>
      <point x="605" y="177" type="curve" smooth="yes"/>
      <point x="684" y="177"/>
      <point x="743" y="192"/>
      <point x="808" y="231" type="curve"/>
      <point x="856" y="118" type="line"/>
      <point x="784" y="77"/>
      <point x="709" y="54"/>
      <point x="584" y="54" type="curve" smooth="yes"/>
      <point x="417" y="54"/>
      <point x="356" y="105"/>
      <point x="356" y="216" type="curve" smooth="yes"/>
      <point x="356" y="281"/>
      <point x="397" y="330"/>
      <point x="471" y="334" type="curve"/>
      <point x="471" y="338" type="line"/>
      <point x="393" y="341"/>
      <point x="347" y="378"/>
    </contour>
    <contour>
      <point x="1182" y="9" type="line"/>
      <point x="1182" y="501" type="line"/>
      <point x="1330" y="501" type="line"/>
      <point x="1330" y="9" type="line"/>
    </contour>
    <contour>
      <point x="687" y="500" type="line"/>
      <point x="687" y="607" type="line"/>
      <point x="1430" y="607" type="line"/>
      <point x="1430" y="500" type="line"/>
    </contour>
    <contour>
      <point x="1033" y="520" type="line"/>
      <point x="1033" y="422" type="line" smooth="yes"/>
      <point x="1033" y="320"/>
      <point x="990" y="277"/>
      <point x="869" y="270" type="curve"/>
      <point x="870" y="227"/>
      <point x="916" y="200"/>
      <point x="1026" y="200" type="curve" smooth="yes"/>
      <point x="1114" y="200"/>
      <point x="1177" y="216"/>
      <point x="1231" y="257" type="curve"/>
      <point x="1262" y="146" type="line"/>
      <point x="1237" y="125"/>
      <point x="1215" y="110"/>
      <point x="1182" y="98" type="curve"/>
      <point x="1178" y="100" type="line"/>
      <point x="1131" y="84"/>
      <point x="1079" y="76"/>
      <point x="1012" y="76" type="curve" smooth="yes"/>
      <point x="831" y="76"/>
      <point x="735" y="156"/>
      <point x="735" y="312" type="curve" smooth="yes"/>
      <point x="735" y="367" type="line"/>
      <point x="783" y="367" type="line" smooth="yes"/>
      <point x="876" y="367"/>
      <point x="891" y="379"/>
      <point x="891" y="464" type="curve" smooth="yes"/>
      <point x="891" y="520" type="line"/>
    </contour>
    <component base="dvG"/>
  </outline>
</glyph>
<glyph name="dvGx" format="2">
  <advance width="324"/>
  <outline>
    <contour>
      <point x="194" y="48" type="curve"/>
      <point x="196" y="26"/>
      <point x="197" y="11"/>
      <point x="197" y="-5" type="curve" smooth="yes"/>
      <point x="197" y="-21"/>
      <point x="196" y="-37"/>
      <point x="194" y="-58" type="curve"/>
      <point x="168" y="-63"/>
      <point x="143" y="-66"/>
      <point x="118" y="-66" type="curve" smooth="yes"/>
      <point x="94" y="-66"/>
      <point x="70" y="-63"/>
      <point x="45" y="-58" type="curve"/>
      <point x="42" y="-38"/>
      <point x="41" y="-22"/>
      <point x="41" y="-6" type="curve" smooth="yes"/>
      <point x="41" y="9"/>
      <point x="42" y="26"/>
      <point x="45" y="48" type="curve"/>
      <point x="70" y="53"/>
      <point x="95" y="55"/>
      <point x="120" y="55" type="curve" smooth="yes"/>
      <point x="144" y="55"/>
      <point x="169" y="53"/>
    </contour>
    <component base="dvG"/>
  </outline>
</glyph>
<glyph name="dvHA_mU" format="2">
  <advance width="525"/>
  <outline>
    <contour>
      <point x="-33" y="500" type="line"/>
      <point x="-33" y="607" type="line"/>
      <point x="560" y="607" type="line"/>
      <point x="560" y="500" type="line"/>
    </contour>
    <contour>
      <point x="347" y="370" type="line"/>
      <point x="347" y="517" type="line"/>
      <point x="470" y="517" type="line"/>
      <point x="470" y="370" type="line"/>
    </contour>
    <contour>
      <point x="65" y="-50" type="curve"/>
      <point x="65" y="-47" type="line"/>
      <point x="190" y="-47" type="line"/>
      <point x="212" y="-75"/>
      <point x="248" y="-95"/>
      <point x="308" y="-95" type="curve" smooth="yes"/>
      <point x="367" y="-95"/>
      <point x="382" y="-89"/>
      <point x="382" y="-55" type="curve" smooth="yes"/>
      <point x="382" y="-24"/>
      <point x="361" y="-20"/>
      <point x="289" y="-20" type="curve" smooth="yes"/>
      <point x="109" y="-20"/>
      <point x="37" y="17"/>
      <point x="37" y="122" type="curve" smooth="yes"/>
      <point x="37" y="199"/>
      <point x="68" y="226"/>
      <point x="122" y="236" type="curve"/>
      <point x="122" y="239" type="line"/>
      <point x="70" y="250"/>
      <point x="46" y="280"/>
      <point x="46" y="338" type="curve" smooth="yes"/>
      <point x="46" y="410"/>
      <point x="81" y="449"/>
      <point x="203" y="449" type="curve" smooth="yes"/>
      <point x="470" y="449" type="line"/>
      <point x="470" y="347" type="line"/>
      <point x="244" y="347" type="line" smooth="yes"/>
      <point x="195" y="347"/>
      <point x="183" y="342"/>
      <point x="183" y="315" type="curve" smooth="yes"/>
      <point x="183" y="288"/>
      <point x="195" y="284"/>
      <point x="264" y="284" type="curve" smooth="yes"/>
      <point x="333" y="284" type="line" smooth="yes"/>
      <point x="449" y="284"/>
      <point x="483" y="257"/>
      <point x="483" y="176" type="curve" smooth="yes"/>
      <point x="483" y="144" type="line"/>
      <point x="341" y="144" type="line"/>
      <point x="341" y="152" type="line" smooth="yes"/>
      <point x="341" y="180"/>
      <point x="338" y="185"/>
      <point x="249" y="185" type="curve" smooth="yes"/>
      <point x="190" y="185"/>
      <point x="167" y="175"/>
      <point x="167" y="139" type="curve" smooth="yes"/>
      <point x="167" y="101"/>
      <point x="196" y="90"/>
      <point x="301" y="90" type="curve" smooth="yes"/>
      <point x="460" y="90"/>
      <point x="505" y="80"/>
      <point x="505" y="-60" type="curve" smooth="yes"/>
      <point x="505" y="-160"/>
      <point x="469" y="-199"/>
      <point x="328" y="-199" type="curve" smooth="yes"/>
      <point x="183" y="-199"/>
      <point x="96" y="-133"/>
    </contour>
  </outline>
</glyph>
<glyph name="dvH_MA" format="2">
  <advance width="1121"/>
  <outline>
    <contour>
      <point x="331" y="517" type="line"/>
      <point x="454" y="517" type="line"/>
      <point x="454" y="370" type="line"/>
      <point x="331" y="370" type="line"/>
    </contour>
    <contour>
      <point x="-33" y="500" type="line"/>
      <point x="-33" y="607" type="line"/>
      <point x="560" y="607" type="line"/>
      <point x="560" y="500" type="line"/>
    </contour>
    <contour>
      <point x="264" y="282" type="curve"/>
      <point x="679" y="282" type="line"/>
      <point x="679" y="178" type="line"/>
      <point x="249" y="178" type="line" smooth="yes"/>
      <point x="190" y="178"/>
      <point x="167" y="174"/>
      <point x="167" y="136" type="curve" smooth="yes"/>
      <point x="167" y="98"/>
      <point x="196" y="90"/>
      <point x="301" y="90" type="curve" smooth="yes"/>
      <point x="362" y="90"/>
      <point x="444" y="92"/>
      <point x="478" y="96" type="curve"/>
      <point x="480" y="95" type="line"/>
      <point x="480" y="-7" type="line"/>
      <point x="443" y="-14"/>
      <point x="367" y="-20"/>
      <point x="289" y="-20" type="curve" smooth="yes"/>
      <point x="109" y="-20"/>
      <point x="37" y="17"/>
      <point x="37" y="122" type="curve" smooth="yes"/>
      <point x="37" y="196"/>
      <point x="68" y="223"/>
      <point x="122" y="233" type="curve"/>
      <point x="122" y="236" type="line"/>
      <point x="70" y="247"/>
      <point x="46" y="277"/>
      <point x="46" y="338" type="curve" smooth="yes"/>
      <point x="46" y="410"/>
      <point x="81" y="449"/>
      <point x="203" y="449" type="curve" smooth="yes"/>
      <point x="454" y="449" type="line"/>
      <point x="454" y="347" type="line"/>
      <point x="244" y="347" type="line" smooth="yes"/>
      <point x="195" y="347"/>
      <point x="183" y="342"/>
      <point x="183" y="315" type="curve" smooth="yes"/>
      <point x="183" y="286"/>
      <point x="195" y="282"/>
    </contour>
    <component base="dvMA" xOffset="500"/>
  </outline>
</glyph>
<glyph name="dvH_R" format="2">
  <advance width="569"/>
  <outline>
    <contour>
      <point x="237" y="-96" type="line"/>
      <point x="237" y="-91" type="line"/>
      <point x="375" y="-91" type="line"/>
      <point x="438" y="-127"/>
      <point x="498" y="-169"/>
      <point x="551" y="-220" type="curve"/>
      <point x="551" y="-225" type="line"/>
      <point x="411" y="-262" type="line"/>
    </contour>
    <component base="dvH_RA"/>
  </outline>
</glyph>
<glyph name="dvII_Anusvara" format="2">
  <advance width="476"/>
  <anchor x="378.551" y="600.394" name="_abvm"/>
  <outline>
    <contour>
      <point x="497" y="895" type="curve"/>
      <point x="498" y="790" type="line"/>
      <point x="496" y="786" type="line"/>
      <point x="485" y="788"/>
      <point x="474" y="789"/>
      <point x="461" y="789" type="curve" smooth="yes"/>
      <point x="401" y="789"/>
      <point x="384" y="770"/>
      <point x="384" y="726" type="curve" smooth="yes"/>
      <point x="384" y="677"/>
      <point x="405" y="632"/>
      <point x="454" y="603" type="curve"/>
      <point x="325" y="603" type="line"/>
      <point x="325" y="610" type="line"/>
      <point x="278" y="644"/>
      <point x="257" y="696"/>
      <point x="258" y="760" type="curve" smooth="yes"/>
      <point x="258" y="848"/>
      <point x="306" y="899"/>
      <point x="443" y="899" type="curve" smooth="yes"/>
      <point x="462" y="899"/>
      <point x="480" y="898"/>
    </contour>
    <component base="dvI"/>
    <component base="dvAnusvara" xScale="0.8" yScale="0.8" xOffset="600" yOffset="124"/>
  </outline>
</glyph>
<glyph name="dvJH" format="2">
  <advance width="600"/>
  <outline>
    <contour>
      <point x="396" y="118" type="line"/>
      <point x="396" y="223" type="line"/>
      <point x="721" y="223" type="line"/>
      <point x="721" y="118" type="line"/>
    </contour>
    <contour>
      <point x="407" y="340" type="line"/>
      <point x="405" y="500" type="line"/>
      <point x="523" y="500" type="line"/>
      <point x="523" y="340" type="line"/>
    </contour>
    <contour>
      <point x="-40" y="500" type="line"/>
      <point x="-40" y="607" type="line"/>
      <point x="779" y="607" type="line"/>
      <point x="779" y="500" type="line"/>
    </contour>
    <contour>
      <point x="234" y="447" type="curve" smooth="yes"/>
      <point x="484" y="447" type="line"/>
      <point x="484" y="340" type="line"/>
      <point x="238" y="340" type="line" smooth="yes"/>
      <point x="215" y="340"/>
      <point x="200" y="336"/>
      <point x="200" y="311" type="curve" smooth="yes"/>
      <point x="200" y="286"/>
      <point x="215" y="282"/>
      <point x="238" y="282" type="curve" smooth="yes"/>
      <point x="310" y="282" type="line" smooth="yes"/>
      <point x="462" y="282"/>
      <point x="509" y="256"/>
      <point x="509" y="143" type="curve" smooth="yes"/>
      <point x="509" y="36"/>
      <point x="455" y="0"/>
      <point x="317" y="0" type="curve" smooth="yes"/>
      <point x="258" y="0"/>
      <point x="202" y="7"/>
      <point x="174" y="19" type="curve"/>
      <point x="171" y="16" type="line"/>
      <point x="181" y="-12"/>
      <point x="183" y="-36"/>
      <point x="183" y="-74" type="curve"/>
      <point x="58" y="-74" type="line"/>
      <point x="58" y="157" type="line"/>
      <point x="161" y="157" type="line"/>
      <point x="161" y="149" type="line" smooth="yes"/>
      <point x="161" y="120"/>
      <point x="180" y="113"/>
      <point x="275" y="113" type="curve" smooth="yes"/>
      <point x="354" y="113"/>
      <point x="369" y="120"/>
      <point x="369" y="149" type="curve" smooth="yes"/>
      <point x="369" y="178"/>
      <point x="356" y="185"/>
      <point x="282" y="185" type="curve" smooth="yes"/>
      <point x="222" y="185" type="line" smooth="yes"/>
      <point x="105" y="185"/>
      <point x="60" y="222"/>
      <point x="60" y="318" type="curve" smooth="yes"/>
      <point x="60" y="413"/>
      <point x="112" y="447"/>
    </contour>
  </outline>
</glyph>
<glyph name="dvJ_JA" format="2">
  <advance width="1072"/>
  <outline>
    <contour>
      <point x="183" y="0" type="curve" smooth="yes"/>
      <point x="116" y="0"/>
      <point x="63" y="8"/>
      <point x="21" y="20" type="curve"/>
      <point x="21" y="134" type="line"/>
      <point x="23" y="135" type="line"/>
      <point x="55" y="127"/>
      <point x="93" y="121"/>
      <point x="140" y="121" type="curve" smooth="yes"/>
      <point x="204" y="121"/>
      <point x="225" y="135"/>
      <point x="225" y="209" type="curve" smooth="yes"/>
      <point x="225" y="269"/>
      <point x="206" y="287"/>
      <point x="124" y="287" type="curve"/>
      <point x="223" y="303" type="line"/>
      <point x="304" y="297" type="line"/>
      <point x="304" y="295" type="line"/>
      <point x="342" y="280"/>
      <point x="361" y="237"/>
      <point x="361" y="180" type="curve" smooth="yes"/>
      <point x="361" y="47"/>
      <point x="323" y="0"/>
    </contour>
    <contour>
      <point x="94" y="287" type="line"/>
      <point x="94" y="403" type="line"/>
      <point x="569" y="403" type="line"/>
      <point x="569" y="297" type="line"/>
      <point x="292" y="297" type="line"/>
      <point x="227" y="297" type="line"/>
      <point x="124" y="287" type="line"/>
    </contour>
    <contour>
      <point x="-35" y="500" type="line"/>
      <point x="-35" y="607" type="line"/>
      <point x="569" y="607" type="line"/>
      <point x="569" y="500" type="line"/>
    </contour>
    <contour>
      <point x="582" y="0" type="curve" smooth="yes"/>
      <point x="515" y="0"/>
      <point x="462" y="8"/>
      <point x="420" y="20" type="curve"/>
      <point x="420" y="134" type="line"/>
      <point x="422" y="135" type="line"/>
      <point x="454" y="127"/>
      <point x="492" y="121"/>
      <point x="539" y="121" type="curve" smooth="yes"/>
      <point x="603" y="121"/>
      <point x="624" y="135"/>
      <point x="624" y="209" type="curve" smooth="yes"/>
      <point x="624" y="269"/>
      <point x="605" y="297"/>
      <point x="523" y="297" type="curve"/>
      <point x="622" y="303" type="line"/>
      <point x="703" y="297" type="line"/>
      <point x="703" y="295" type="line"/>
      <point x="741" y="280"/>
      <point x="760" y="237"/>
      <point x="760" y="180" type="curve" smooth="yes"/>
      <point x="760" y="47"/>
      <point x="722" y="0"/>
    </contour>
    <contour>
      <point x="493" y="297" type="line"/>
      <point x="493" y="403" type="line"/>
      <point x="968" y="403" type="line"/>
      <point x="968" y="297" type="line"/>
      <point x="691" y="297" type="line"/>
      <point x="626" y="297" type="line"/>
      <point x="523" y="297" type="line"/>
    </contour>
    <contour>
      <point x="865" y="9" type="line"/>
      <point x="865" y="502" type="line"/>
      <point x="1012" y="502" type="line"/>
      <point x="1012" y="9" type="line"/>
    </contour>
    <contour>
      <point x="364" y="500" type="line"/>
      <point x="364" y="607" type="line"/>
      <point x="1112" y="607" type="line"/>
      <point x="1112" y="500" type="line"/>
    </contour>
  </outline>
</glyph>
<glyph name="dvJ_J_NYA" format="2">
  <advance width="1221"/>
  <outline>
    <contour>
      <point x="183" y="0" type="curve" smooth="yes"/>
      <point x="116" y="0"/>
      <point x="63" y="8"/>
      <point x="21" y="20" type="curve"/>
      <point x="21" y="134" type="line"/>
      <point x="23" y="135" type="line"/>
      <point x="55" y="127"/>
      <point x="93" y="121"/>
      <point x="140" y="121" type="curve" smooth="yes"/>
      <point x="204" y="121"/>
      <point x="225" y="135"/>
      <point x="225" y="209" type="curve" smooth="yes"/>
      <point x="225" y="269"/>
      <point x="206" y="287"/>
      <point x="124" y="287" type="curve"/>
      <point x="223" y="303" type="line"/>
      <point x="304" y="297" type="line"/>
      <point x="304" y="295" type="line"/>
      <point x="342" y="280"/>
      <point x="361" y="237"/>
      <point x="361" y="180" type="curve" smooth="yes"/>
      <point x="361" y="47"/>
      <point x="323" y="0"/>
    </contour>
    <contour>
      <point x="94" y="287" type="line"/>
      <point x="94" y="403" type="line"/>
      <point x="569" y="403" type="line"/>
      <point x="569" y="297" type="line"/>
      <point x="292" y="297" type="line"/>
      <point x="227" y="297" type="line"/>
      <point x="124" y="287" type="line"/>
    </contour>
    <contour>
      <point x="-35" y="500" type="line"/>
      <point x="-35" y="607" type="line"/>
      <point x="569" y="607" type="line"/>
      <point x="569" y="500" type="line"/>
    </contour>
    <contour>
      <point x="1012" y="9" type="line"/>
      <point x="1012" y="501" type="line"/>
      <point x="1161" y="501" type="line"/>
      <point x="1161" y="9" type="line"/>
    </contour>
    <contour>
      <point x="631" y="446" type="curve" smooth="yes"/>
      <point x="1042" y="446" type="line"/>
      <point x="1042" y="349" type="line"/>
      <point x="668" y="349" type="line" smooth="yes"/>
      <point x="649" y="349"/>
      <point x="640" y="343"/>
      <point x="640" y="321" type="curve" smooth="yes"/>
      <point x="640" y="300"/>
      <point x="649" y="294"/>
      <point x="668" y="294" type="curve" smooth="yes"/>
      <point x="731" y="294" type="line" smooth="yes"/>
      <point x="874" y="294"/>
      <point x="943" y="278"/>
      <point x="943" y="156" type="curve" smooth="yes"/>
      <point x="943" y="34"/>
      <point x="875" y="9"/>
      <point x="731" y="9" type="curve" smooth="yes"/>
      <point x="657" y="9"/>
      <point x="620" y="17"/>
      <point x="586" y="34" type="curve"/>
      <point x="583" y="30" type="line"/>
      <point x="598" y="9"/>
      <point x="608" y="-22"/>
      <point x="612" y="-82" type="curve"/>
      <point x="466" y="-82" type="line"/>
      <point x="466" y="167" type="line"/>
      <point x="582" y="167" type="line"/>
      <point x="582" y="143" type="line" smooth="yes"/>
      <point x="582" y="132"/>
      <point x="588" y="126"/>
      <point x="604" y="123" type="curve" smooth="yes"/>
      <point x="622" y="120"/>
      <point x="652" y="117"/>
      <point x="710" y="117" type="curve" smooth="yes"/>
      <point x="747" y="117"/>
      <point x="784" y="120"/>
      <point x="784" y="160" type="curve" smooth="yes"/>
      <point x="784" y="200"/>
      <point x="749" y="198"/>
      <point x="685" y="198" type="curve" smooth="yes"/>
      <point x="628" y="198" type="line" smooth="yes"/>
      <point x="530" y="198"/>
      <point x="484" y="223"/>
      <point x="484" y="321" type="curve" smooth="yes"/>
      <point x="484" y="416"/>
      <point x="527" y="446"/>
    </contour>
    <contour>
      <point x="412" y="500" type="line"/>
      <point x="412" y="607" type="line"/>
      <point x="1261" y="607" type="line"/>
      <point x="1261" y="500" type="line"/>
    </contour>
  </outline>
</glyph>
<glyph name="dvJ_KA" format="2">
  <advance width="1359"/>
  <anchor x="825" y="-51" name="blwm.virama"/>
  <anchor x="972" y="607" name="abvm.bindu"/>
  <anchor x="907" y="-81" name="blwm.u"/>
  <anchor x="973" y="607" name="abvm.e"/>
  <outline>
    <contour>
      <point x="825" y="9" type="line"/>
      <point x="825" y="501" type="line"/>
      <point x="973" y="501" type="line"/>
      <point x="973" y="9" type="line"/>
    </contour>
    <contour>
      <point x="394" y="500" type="line"/>
      <point x="394" y="607" type="line"/>
      <point x="1384" y="607" type="line"/>
      <point x="1384" y="500" type="line"/>
    </contour>
    <contour>
      <point x="632" y="436" type="curve" smooth="yes"/>
      <point x="679" y="436"/>
      <point x="730" y="430"/>
      <point x="767" y="419" type="curve"/>
      <point x="765" y="305" type="line"/>
      <point x="761" y="304" type="line"/>
      <point x="738" y="310"/>
      <point x="711" y="315"/>
      <point x="675" y="315" type="curve" smooth="yes"/>
      <point x="613" y="315"/>
      <point x="599" y="298"/>
      <point x="599" y="248" type="curve" smooth="yes"/>
      <point x="599" y="198"/>
      <point x="613" y="181"/>
      <point x="702" y="181" type="curve" smooth="yes"/>
      <point x="756" y="181"/>
      <point x="800" y="190"/>
      <point x="837" y="210" type="curve"/>
      <point x="825" y="87" type="line"/>
      <point x="823" y="87" type="line"/>
      <point x="793" y="72"/>
      <point x="737" y="62"/>
      <point x="680" y="62" type="curve" smooth="yes"/>
      <point x="510" y="62"/>
      <point x="459" y="108"/>
      <point x="459" y="250" type="curve" smooth="yes"/>
      <point x="459" y="390"/>
      <point x="505" y="436"/>
    </contour>
    <contour>
      <point x="1166" y="60" type="curve" smooth="yes"/>
      <point x="1119" y="60"/>
      <point x="1068" y="66"/>
      <point x="1031" y="77" type="curve"/>
      <point x="1033" y="191" type="line"/>
      <point x="1037" y="192" type="line"/>
      <point x="1060" y="186"/>
      <point x="1087" y="181"/>
      <point x="1123" y="181" type="curve" smooth="yes"/>
      <point x="1185" y="181"/>
      <point x="1199" y="198"/>
      <point x="1199" y="248" type="curve" smooth="yes"/>
      <point x="1199" y="298"/>
      <point x="1185" y="315"/>
      <point x="1096" y="315" type="curve" smooth="yes"/>
      <point x="1042" y="315"/>
      <point x="998" y="306"/>
      <point x="961" y="286" type="curve"/>
      <point x="973" y="409" type="line"/>
      <point x="975" y="409" type="line"/>
      <point x="1005" y="424"/>
      <point x="1061" y="434"/>
      <point x="1118" y="434" type="curve" smooth="yes"/>
      <point x="1288" y="434"/>
      <point x="1339" y="388"/>
      <point x="1339" y="246" type="curve" smooth="yes"/>
      <point x="1339" y="106"/>
      <point x="1293" y="60"/>
    </contour>
    <component base="dvJ"/>
  </outline>
</glyph>
<glyph name="dvJ_NA" format="2">
  <advance width="1015"/>
  <anchor x="888" y="0" name="blwm"/>
  <outline>
    <contour>
      <point x="173" y="0" type="curve" smooth="yes"/>
      <point x="106" y="0"/>
      <point x="53" y="8"/>
      <point x="11" y="20" type="curve"/>
      <point x="11" y="134" type="line"/>
      <point x="13" y="135" type="line"/>
      <point x="45" y="127"/>
      <point x="83" y="121"/>
      <point x="130" y="121" type="curve" smooth="yes"/>
      <point x="194" y="121"/>
      <point x="215" y="135"/>
      <point x="215" y="199" type="curve" smooth="yes"/>
      <point x="215" y="249"/>
      <point x="196" y="267"/>
      <point x="114" y="267" type="curve"/>
      <point x="213" y="303" type="line"/>
      <point x="294" y="297" type="line"/>
      <point x="294" y="295" type="line"/>
      <point x="332" y="280"/>
      <point x="351" y="237"/>
      <point x="351" y="180" type="curve" smooth="yes"/>
      <point x="351" y="47"/>
      <point x="313" y="0"/>
    </contour>
    <contour>
      <point x="84" y="267" type="line"/>
      <point x="84" y="374" type="line"/>
      <point x="559" y="374" type="line"/>
      <point x="559" y="268" type="line"/>
      <point x="282" y="268" type="line"/>
      <point x="217" y="287" type="line"/>
      <point x="114" y="267" type="line"/>
    </contour>
    <contour>
      <point x="-45" y="500" type="line"/>
      <point x="-45" y="607" type="line"/>
      <point x="559" y="607" type="line"/>
      <point x="559" y="500" type="line"/>
    </contour>
    <contour>
      <point x="806" y="9" type="line"/>
      <point x="806" y="501" type="line"/>
      <point x="955" y="501" type="line"/>
      <point x="955" y="9" type="line"/>
    </contour>
    <contour>
      <point x="369" y="500" type="line"/>
      <point x="369" y="607" type="line"/>
      <point x="1055" y="607" type="line"/>
      <point x="1055" y="500" type="line"/>
    </contour>
    <contour>
      <point x="556" y="262" type="line"/>
      <point x="556" y="374" type="line"/>
      <point x="924" y="375" type="line"/>
      <point x="924" y="263" type="line"/>
    </contour>
    <contour>
      <point x="554" y="364" type="curve"/>
      <point x="654" y="364" type="line"/>
      <point x="654" y="275" type="line" smooth="yes"/>
      <point x="654" y="178"/>
      <point x="634" y="168"/>
      <point x="551" y="168" type="curve" smooth="yes"/>
      <point x="471" y="168"/>
      <point x="451" y="185"/>
      <point x="451" y="271" type="curve" smooth="yes"/>
      <point x="451" y="353"/>
      <point x="472" y="364"/>
    </contour>
  </outline>
</glyph>
<glyph name="dvJ_NYA" format="2">
  <advance width="779"/>
  <outline>
    <contour>
      <point x="570" y="9" type="line"/>
      <point x="570" y="501" type="line"/>
      <point x="719" y="501" type="line"/>
      <point x="719" y="9" type="line"/>
    </contour>
    <contour>
      <point x="-30" y="500" type="line"/>
      <point x="-30" y="607" type="line"/>
      <point x="819" y="607" type="line"/>
      <point x="819" y="500" type="line"/>
    </contour>
    <contour>
      <point x="216" y="447" type="curve" smooth="yes"/>
      <point x="654" y="447" type="line"/>
      <point x="654" y="340" type="line"/>
      <point x="220" y="340" type="line" smooth="yes"/>
      <point x="197" y="340"/>
      <point x="182" y="336"/>
      <point x="182" y="311" type="curve" smooth="yes"/>
      <point x="182" y="286"/>
      <point x="197" y="282"/>
      <point x="220" y="282" type="curve" smooth="yes"/>
      <point x="312" y="282" type="line" smooth="yes"/>
      <point x="448" y="282"/>
      <point x="496" y="241"/>
      <point x="496" y="141" type="curve" smooth="yes"/>
      <point x="496" y="41"/>
      <point x="435" y="0"/>
      <point x="284" y="0" type="curve" smooth="yes"/>
      <point x="228" y="0"/>
      <point x="169" y="7"/>
      <point x="141" y="19" type="curve"/>
      <point x="138" y="16" type="line"/>
      <point x="148" y="-12"/>
      <point x="150" y="-36"/>
      <point x="150" y="-74" type="curve"/>
      <point x="25" y="-74" type="line"/>
      <point x="25" y="157" type="line"/>
      <point x="128" y="157" type="line"/>
      <point x="128" y="149" type="line" smooth="yes"/>
      <point x="128" y="120"/>
      <point x="165" y="113"/>
      <point x="242" y="113" type="curve" smooth="yes"/>
      <point x="331" y="113"/>
      <point x="356" y="120"/>
      <point x="356" y="149" type="curve" smooth="yes"/>
      <point x="356" y="178"/>
      <point x="343" y="185"/>
      <point x="269" y="185" type="curve" smooth="yes"/>
      <point x="204" y="185" type="line" smooth="yes"/>
      <point x="87" y="185"/>
      <point x="42" y="222"/>
      <point x="42" y="318" type="curve" smooth="yes"/>
      <point x="42" y="413"/>
      <point x="94" y="447"/>
    </contour>
  </outline>
</glyph>
<glyph name="dvJ_NY_R" format="2">
  <advance width="695"/>
  <outline>
    <contour>
      <point x="-30" y="500" type="line"/>
      <point x="-30" y="607" type="line"/>
      <point x="763" y="607" type="line"/>
      <point x="763" y="500" type="line"/>
    </contour>
    <contour>
      <point x="763" y="350" type="curve"/>
      <point x="763" y="208" type="line"/>
      <point x="655" y="6" type="line"/>
      <point x="479" y="6" type="line"/>
      <point x="479" y="10" type="line"/>
      <point x="548" y="104"/>
      <point x="682" y="263"/>
    </contour>
    <contour>
      <point x="216" y="447" type="curve" smooth="yes"/>
      <point x="763" y="447" type="line"/>
      <point x="763" y="340" type="line"/>
      <point x="220" y="340" type="line" smooth="yes"/>
      <point x="197" y="340"/>
      <point x="182" y="336"/>
      <point x="182" y="311" type="curve" smooth="yes"/>
      <point x="182" y="286"/>
      <point x="197" y="282"/>
      <point x="220" y="282" type="curve" smooth="yes"/>
      <point x="312" y="282" type="line" smooth="yes"/>
      <point x="448" y="282"/>
      <point x="496" y="241"/>
      <point x="496" y="141" type="curve" smooth="yes"/>
      <point x="496" y="41"/>
      <point x="435" y="0"/>
      <point x="284" y="0" type="curve" smooth="yes"/>
      <point x="228" y="0"/>
      <point x="169" y="7"/>
      <point x="141" y="19" type="curve"/>
      <point x="138" y="16" type="line"/>
      <point x="148" y="-12"/>
      <point x="150" y="-36"/>
      <point x="150" y="-74" type="curve"/>
      <point x="25" y="-74" type="line"/>
      <point x="25" y="157" type="line"/>
      <point x="128" y="157" type="line"/>
      <point x="128" y="149" type="line" smooth="yes"/>
      <point x="128" y="120"/>
      <point x="165" y="113"/>
      <point x="242" y="113" type="curve" smooth="yes"/>
      <point x="331" y="113"/>
      <point x="356" y="120"/>
      <point x="356" y="149" type="curve" smooth="yes"/>
      <point x="356" y="178"/>
      <point x="343" y="185"/>
      <point x="269" y="185" type="curve" smooth="yes"/>
      <point x="204" y="185" type="line" smooth="yes"/>
      <point x="87" y="185"/>
      <point x="42" y="222"/>
      <point x="42" y="318" type="curve" smooth="yes"/>
      <point x="42" y="413"/>
      <point x="94" y="447"/>
    </contour>
  </outline>
</glyph>
<glyph name="dvJ_R" format="2">
  <advance width="443"/>
  <outline>
    <contour>
      <point x="573" y="318" type="curve"/>
      <point x="573" y="321" type="line"/>
      <point x="573" y="188" type="line"/>
      <point x="472" y="-14" type="line"/>
      <point x="296" y="-14" type="line"/>
      <point x="296" y="-10" type="line"/>
      <point x="369" y="92"/>
      <point x="484" y="229"/>
    </contour>
    <contour>
      <point x="179" y="45" type="curve" smooth="yes"/>
      <point x="115" y="45"/>
      <point x="65" y="53"/>
      <point x="25" y="64" type="curve"/>
      <point x="25" y="173" type="line"/>
      <point x="27" y="174" type="line"/>
      <point x="57" y="166"/>
      <point x="94" y="160"/>
      <point x="138" y="160" type="curve" smooth="yes"/>
      <point x="199" y="160"/>
      <point x="219" y="174"/>
      <point x="219" y="224" type="curve" smooth="yes"/>
      <point x="219" y="281"/>
      <point x="201" y="298"/>
      <point x="123" y="298" type="curve"/>
      <point x="217" y="314" type="line"/>
      <point x="295" y="308" type="line"/>
      <point x="295" y="306" type="line"/>
      <point x="331" y="292"/>
      <point x="349" y="251"/>
      <point x="349" y="196" type="curve" smooth="yes"/>
      <point x="349" y="90"/>
      <point x="313" y="45"/>
    </contour>
    <contour>
      <point x="95" y="298" type="line"/>
      <point x="95" y="419" type="line"/>
      <point x="573" y="419" type="line"/>
      <point x="573" y="308" type="line"/>
      <point x="289" y="308" type="line"/>
      <point x="227" y="308" type="line"/>
      <point x="129" y="298" type="line"/>
    </contour>
    <contour>
      <point x="-45" y="500" type="line"/>
      <point x="-45" y="607" type="line"/>
      <point x="573" y="607" type="line"/>
      <point x="573" y="500" type="line"/>
    </contour>
  </outline>
</glyph>
<glyph name="dvJ_RA" format="2">
  <advance width="733"/>
  <outline>
    <contour>
      <point x="526" y="278" type="curve"/>
      <point x="526" y="281" type="line"/>
      <point x="561" y="188" type="line"/>
      <point x="531" y="123" type="line"/>
      <point x="523" y="123" type="line"/>
      <point x="462" y="-14" type="line"/>
      <point x="286" y="-14" type="line"/>
      <point x="286" y="-10" type="line"/>
      <point x="359" y="90"/>
      <point x="438" y="188"/>
    </contour>
    <contour>
      <point x="189" y="45" type="curve" smooth="yes"/>
      <point x="125" y="45"/>
      <point x="75" y="53"/>
      <point x="35" y="64" type="curve"/>
      <point x="35" y="173" type="line"/>
      <point x="37" y="174" type="line"/>
      <point x="67" y="166"/>
      <point x="104" y="160"/>
      <point x="148" y="160" type="curve" smooth="yes"/>
      <point x="209" y="160"/>
      <point x="229" y="174"/>
      <point x="229" y="224" type="curve" smooth="yes"/>
      <point x="229" y="281"/>
      <point x="211" y="298"/>
      <point x="133" y="298" type="curve"/>
      <point x="227" y="314" type="line"/>
      <point x="305" y="308" type="line"/>
      <point x="305" y="306" type="line"/>
      <point x="341" y="292"/>
      <point x="359" y="251"/>
      <point x="359" y="196" type="curve" smooth="yes"/>
      <point x="359" y="90"/>
      <point x="323" y="45"/>
    </contour>
    <contour>
      <point x="105" y="298" type="line"/>
      <point x="105" y="419" type="line"/>
      <point x="563" y="419" type="line"/>
      <point x="563" y="308" type="line"/>
      <point x="299" y="308" type="line"/>
      <point x="237" y="308" type="line"/>
      <point x="139" y="298" type="line"/>
    </contour>
    <contour>
      <point x="526" y="9" type="line"/>
      <point x="526" y="502" type="line"/>
      <point x="673" y="502" type="line"/>
      <point x="673" y="9" type="line"/>
    </contour>
    <contour>
      <point x="-35" y="500" type="line"/>
      <point x="-35" y="607" type="line"/>
      <point x="773" y="607" type="line"/>
      <point x="773" y="500" type="line"/>
    </contour>
  </outline>
</glyph>
<glyph name="dvJ_TA" format="2">
  <advance width="1017"/>
  <outline>
    <contour>
      <point x="173" y="0" type="curve" smooth="yes"/>
      <point x="106" y="0"/>
      <point x="53" y="8"/>
      <point x="11" y="20" type="curve"/>
      <point x="11" y="134" type="line"/>
      <point x="13" y="135" type="line"/>
      <point x="45" y="127"/>
      <point x="83" y="121"/>
      <point x="130" y="121" type="curve" smooth="yes"/>
      <point x="194" y="121"/>
      <point x="215" y="135"/>
      <point x="215" y="209" type="curve" smooth="yes"/>
      <point x="215" y="269"/>
      <point x="196" y="287"/>
      <point x="114" y="287" type="curve"/>
      <point x="213" y="303" type="line"/>
      <point x="294" y="297" type="line"/>
      <point x="294" y="295" type="line"/>
      <point x="332" y="280"/>
      <point x="351" y="237"/>
      <point x="351" y="180" type="curve" smooth="yes"/>
      <point x="351" y="47"/>
      <point x="313" y="0"/>
    </contour>
    <contour>
      <point x="84" y="287" type="line"/>
      <point x="84" y="403" type="line"/>
      <point x="599" y="403" type="line"/>
      <point x="599" y="297" type="line"/>
      <point x="282" y="297" type="line"/>
      <point x="217" y="297" type="line"/>
      <point x="114" y="287" type="line"/>
    </contour>
    <contour>
      <point x="-45" y="500" type="line"/>
      <point x="-45" y="607" type="line"/>
      <point x="559" y="607" type="line"/>
      <point x="559" y="500" type="line"/>
    </contour>
    <component base="dvTA" xOffset="429"/>
  </outline>
</glyph>
<glyph name="dvJx_JxA" format="2">
  <advance width="1082"/>
  <outline>
    <contour>
      <point x="503" y="297" type="line"/>
      <point x="503" y="403" type="line"/>
      <point x="978" y="403" type="line"/>
      <point x="978" y="297" type="line"/>
      <point x="701" y="297" type="line"/>
      <point x="636" y="297" type="line"/>
      <point x="533" y="297" type="line"/>
    </contour>
    <contour>
      <point x="875" y="9" type="line"/>
      <point x="875" y="502" type="line"/>
      <point x="1022" y="502" type="line"/>
      <point x="1022" y="9" type="line"/>
    </contour>
    <contour>
      <point x="374" y="500" type="line"/>
      <point x="374" y="607" type="line"/>
      <point x="1122" y="607" type="line"/>
      <point x="1122" y="500" type="line"/>
    </contour>
    <contour>
      <point x="582" y="0" type="curve" smooth="yes"/>
      <point x="515" y="0"/>
      <point x="462" y="8"/>
      <point x="420" y="20" type="curve"/>
      <point x="420" y="134" type="line"/>
      <point x="422" y="135" type="line"/>
      <point x="454" y="127"/>
      <point x="492" y="121"/>
      <point x="539" y="121" type="curve" smooth="yes"/>
      <point x="603" y="121"/>
      <point x="624" y="135"/>
      <point x="624" y="209" type="curve" smooth="yes"/>
      <point x="624" y="269"/>
      <point x="605" y="297"/>
      <point x="523" y="297" type="curve"/>
      <point x="622" y="303" type="line"/>
      <point x="703" y="297" type="line"/>
      <point x="703" y="295" type="line"/>
      <point x="741" y="280"/>
      <point x="760" y="237"/>
      <point x="760" y="180" type="curve" smooth="yes"/>
      <point x="760" y="47"/>
      <point x="722" y="0"/>
    </contour>
    <contour>
      <point x="162" y="-59" type="curve"/>
      <point x="164" y="-81"/>
      <point x="165" y="-96"/>
      <point x="165" y="-112" type="curve" smooth="yes"/>
      <point x="165" y="-128"/>
      <point x="164" y="-144"/>
      <point x="162" y="-165" type="curve"/>
      <point x="136" y="-170"/>
      <point x="111" y="-173"/>
      <point x="86" y="-173" type="curve" smooth="yes"/>
      <point x="62" y="-173"/>
      <point x="38" y="-170"/>
      <point x="13" y="-165" type="curve"/>
      <point x="10" y="-145"/>
      <point x="9" y="-129"/>
      <point x="9" y="-113" type="curve" smooth="yes"/>
      <point x="9" y="-98"/>
      <point x="10" y="-81"/>
      <point x="13" y="-59" type="curve"/>
      <point x="38" y="-54"/>
      <point x="63" y="-52"/>
      <point x="88" y="-52" type="curve" smooth="yes"/>
      <point x="112" y="-52"/>
      <point x="137" y="-54"/>
    </contour>
    <contour>
      <point x="575" y="-55" type="curve"/>
      <point x="577" y="-77"/>
      <point x="578" y="-92"/>
      <point x="578" y="-108" type="curve" smooth="yes"/>
      <point x="578" y="-124"/>
      <point x="577" y="-140"/>
      <point x="575" y="-161" type="curve"/>
      <point x="549" y="-166"/>
      <point x="524" y="-169"/>
      <point x="499" y="-169" type="curve" smooth="yes"/>
      <point x="475" y="-169"/>
      <point x="451" y="-166"/>
      <point x="426" y="-161" type="curve"/>
      <point x="423" y="-141"/>
      <point x="422" y="-125"/>
      <point x="422" y="-109" type="curve" smooth="yes"/>
      <point x="422" y="-94"/>
      <point x="423" y="-77"/>
      <point x="426" y="-55" type="curve"/>
      <point x="451" y="-50"/>
      <point x="476" y="-48"/>
      <point x="501" y="-48" type="curve" smooth="yes"/>
      <point x="525" y="-48"/>
      <point x="550" y="-50"/>
    </contour>
    <component base="dvJ"/>
  </outline>
</glyph>
<glyph name="dvJx_R" format="2">
  <advance width="443"/>
  <outline>
    <contour>
      <point x="186" y="-19" type="curve"/>
      <point x="188" y="-41"/>
      <point x="189" y="-56"/>
      <point x="189" y="-72" type="curve" smooth="yes"/>
      <point x="189" y="-88"/>
      <point x="188" y="-104"/>
      <point x="186" y="-125" type="curve"/>
      <point x="160" y="-130"/>
      <point x="135" y="-133"/>
      <point x="110" y="-133" type="curve" smooth="yes"/>
      <point x="86" y="-133"/>
      <point x="62" y="-130"/>
      <point x="37" y="-125" type="curve"/>
      <point x="34" y="-105"/>
      <point x="33" y="-89"/>
      <point x="33" y="-73" type="curve" smooth="yes"/>
      <point x="33" y="-58"/>
      <point x="34" y="-41"/>
      <point x="37" y="-19" type="curve"/>
      <point x="62" y="-14"/>
      <point x="87" y="-12"/>
      <point x="112" y="-12" type="curve" smooth="yes"/>
      <point x="136" y="-12"/>
      <point x="161" y="-14"/>
    </contour>
    <component base="dvJ_R"/>
  </outline>
</glyph>
